ISO-10303-21;
HEADER;
FILE_DESCRIPTION (( 'STEP AP214' ),
    '1' );
FILE_NAME ('MetalRodAdapter.STEP',
    '2026-09-08T23:05:46',
    ( 'Windows User' ),
    ( '' ),
    'SwSTEP 2.0',
    'SolidWorks 2025',
    '' );
FILE_SCHEMA (( 'AUTOMOTIVE_DESIGN' ));
ENDSEC;

DATA;
#1 = DIRECTION ( 'NONE',  ( 0.000000000000000000, 0.000000000000000000, 1.000000000000000000 ) ) ;
#2 = DIRECTION ( 'NONE',  ( 0.000000000000000000, -1.000000000000000000, 0.000000000000000000 ) ) ;
#3 = AXIS2_PLACEMENT_3D ( 'NONE', #418, #1, #76 ) ;
#4 = CARTESIAN_POINT ( 'NONE',  ( 2.527974614733548897, 0.6151583721562917662, -5.798984827281976173 ) ) ;
#5 = ORIENTED_EDGE ( 'NONE', *, *, #367, .T. ) ;
#6 = CARTESIAN_POINT ( 'NONE',  ( 2.600000000000000089, 3.184081677783118191E-16, 5.000000000000000000 ) ) ;
#7 = FACE_BOUND ( 'NONE', #201, .T. ) ;
#8 = EDGE_CURVE ( 'NONE', #132, #429, #294, .T. ) ;
#9 = ORIENTED_EDGE ( 'NONE', *, *, #299, .F. ) ;
#10 = PRODUCT_DEFINITION_FORMATION_WITH_SPECIFIED_SOURCE ( 'ANY', '', #321, .NOT_KNOWN. ) ;
#11 = ORIENTED_EDGE ( 'NONE', *, *, #84, .T. ) ;
#12 = AXIS2_PLACEMENT_3D ( 'NONE', #350, #35, #229 ) ;
#13 = CARTESIAN_POINT ( 'NONE',  ( 0.000000000000000000, 2.296212748401286986E-16, -3.125000000000000000 ) ) ;
#14 = VERTEX_POINT ( 'NONE', #342 ) ;
#15 = ADVANCED_FACE ( 'NONE', ( #443 ), #445, .T. ) ;
#16 = DIRECTION ( 'NONE',  ( 1.000000000000000000, 0.000000000000000000, -0.000000000000000000 ) ) ;
#17 = ORIENTED_EDGE ( 'NONE', *, *, #482, .F. ) ;
#18 = CARTESIAN_POINT ( 'NONE',  ( 2.600000000000000089, 3.184295451438472206E-16, -6.000000000000000000 ) ) ;
#19 = ORIENTED_EDGE ( 'NONE', *, *, #320, .F. ) ;
#20 = CARTESIAN_POINT ( 'NONE',  ( 0.000000000000000000, 1.100000000000000089, 0.000000000000000000 ) ) ;
#21 = DIRECTION ( 'NONE',  ( 0.000000000000000000, 0.000000000000000000, 1.000000000000000000 ) ) ;
#22 = DIRECTION ( 'NONE',  ( -0.000000000000000000, -0.000000000000000000, -1.000000000000000000 ) ) ;
#23 = AXIS2_PLACEMENT_3D ( 'NONE', #126, #388, #53 ) ;
#24 = DIRECTION ( 'NONE',  ( 1.000000000000000000, 0.000000000000000000, 0.000000000000000000 ) ) ;
#25 = EDGE_CURVE ( 'NONE', #195, #279, #253, .T. ) ;
#26 = DIRECTION ( 'NONE',  ( 0.000000000000000000, 0.000000000000000000, -1.000000000000000000 ) ) ;
#27 = DIRECTION ( 'NONE',  ( -1.000000000000000000, -0.000000000000000000, -0.000000000000000000 ) ) ;
#28 = DIRECTION ( 'NONE',  ( 0.000000000000000000, -1.000000000000000000, 0.000000000000000000 ) ) ;
#29 = CARTESIAN_POINT ( 'NONE',  ( 2.589617093776558132, -0.2626964891404491298, -4.026167138104379539 ) ) ;
#30 = EDGE_CURVE ( 'NONE', #195, #90, #360, .T. ) ;
#31 =( LENGTH_UNIT ( ) NAMED_UNIT ( * ) SI_UNIT ( .MILLI., .METRE. ) );
#32 = CARTESIAN_POINT ( 'NONE',  ( 2.589441084612958299, -0.2640917768898375928, -5.973356035313838852 ) ) ;
#33 = DIRECTION ( 'NONE',  ( -0.000000000000000000, -0.000000000000000000, -1.000000000000000000 ) ) ;
#34 = AXIS2_PLACEMENT_3D ( 'NONE', #346, #187, #377 ) ;
#35 = DIRECTION ( 'NONE',  ( 0.000000000000000000, 0.000000000000000000, 1.000000000000000000 ) ) ;
#36 = ORIENTED_EDGE ( 'NONE', *, *, #8, .F. ) ;
#37 = LINE ( 'NONE', #226, #119 ) ;
#38 = VECTOR ( 'NONE', #26, 1000.000000000000000 ) ;
#39 = AXIS2_PLACEMENT_3D ( 'NONE', #193, #311, #233 ) ;
#40 = FACE_OUTER_BOUND ( 'NONE', #434, .T. ) ;
#41 = EDGE_LOOP ( 'NONE', ( #363, #282, #83, #329 ) ) ;
#42 = CARTESIAN_POINT ( 'NONE',  ( 2.600000000000000533, 0.1315195041032274081, -6.000000000000000888 ) ) ;
#43 = EDGE_CURVE ( 'NONE', #279, #403, #427, .T. ) ;
#44 = FACE_OUTER_BOUND ( 'NONE', #307, .T. ) ;
#45 = ORIENTED_EDGE ( 'NONE', *, *, #338, .T. ) ;
#46 = PRESENTATION_LAYER_ASSIGNMENT (  '', '', ( #453 ) ) ;
#47 = PRODUCT_CONTEXT ( 'NONE', #169, 'mechanical' ) ;
#48 = CARTESIAN_POINT ( 'NONE',  ( 0.000000000000000000, 2.600000000000000089, -5.000000000000000000 ) ) ;
#49 = ORIENTED_EDGE ( 'NONE', *, *, #133, .F. ) ;
#50 = PRESENTATION_STYLE_ASSIGNMENT (( #244 ) ) ;
#51 = ORIENTED_EDGE ( 'NONE', *, *, #243, .F. ) ;
#52 = EDGE_CURVE ( 'NONE', #305, #364, #344, .T. ) ;
#53 = DIRECTION ( 'NONE',  ( 0.000000000000000000, 0.000000000000000000, 1.000000000000000000 ) ) ;
#54 = ORIENTED_EDGE ( 'NONE', *, *, #43, .F. ) ;
#55 = PLANE ( 'NONE',  #149 ) ;
#56 = ORIENTED_EDGE ( 'NONE', *, *, #243, .T. ) ;
#57 = DIRECTION ( 'NONE',  ( 0.000000000000000000, 0.000000000000000000, 1.000000000000000000 ) ) ;
#58 = LINE ( 'NONE', #448, #209 ) ;
#59 = PRODUCT_DEFINITION_SHAPE ( 'NONE', 'NONE',  #436 ) ;
#60 = VECTOR ( 'NONE', #27, 1000.000000000000000 ) ;
#61 = DIRECTION ( 'NONE',  ( 1.000000000000000000, 0.000000000000000000, 0.000000000000000000 ) ) ;
#62 = EDGE_CURVE ( 'NONE', #138, #228, #441, .T. ) ;
#63 = VECTOR ( 'NONE', #156, 1000.000000000000000 ) ;
#64 = CARTESIAN_POINT ( 'NONE',  ( 2.411646070491273441, -0.9730640768853382472, -4.735111533766787950 ) ) ;
#65 = FACE_OUTER_BOUND ( 'NONE', #309, .T. ) ;
#66 =( GEOMETRIC_REPRESENTATION_CONTEXT ( 3 ) GLOBAL_UNCERTAINTY_ASSIGNED_CONTEXT ( ( #128 ) ) GLOBAL_UNIT_ASSIGNED_CONTEXT ( ( #85, #234, #322 ) ) REPRESENTATION_CONTEXT ( 'NONE', 'WORKASPACE' ) );
#67 = AXIS2_PLACEMENT_3D ( 'NONE', #215, #405, #287 ) ;
#68 = DIRECTION ( 'NONE',  ( -0.000000000000000000, -0.000000000000000000, -1.000000000000000000 ) ) ;
#69 = CARTESIAN_POINT ( 'NONE',  ( 0.000000000000000000, 0.000000000000000000, -5.000000000000000000 ) ) ;
#70 = CARTESIAN_POINT ( 'NONE',  ( 2.527689812760245847, 0.6162616611333635586, -4.201941434812745513 ) ) ;
#71 = EDGE_CURVE ( 'NONE', #472, #132, #246, .T. ) ;
#72 = CARTESIAN_POINT ( 'NONE',  ( 0.000000000000000000, 2.600000000000000089, 0.000000000000000000 ) ) ;
#73 = ORIENTED_EDGE ( 'NONE', *, *, #487, .F. ) ;
#74 = AXIS2_PLACEMENT_3D ( 'NONE', #308, #306, #117 ) ;
#75 = FACE_OUTER_BOUND ( 'NONE', #462, .T. ) ;
#76 = DIRECTION ( 'NONE',  ( 1.000000000000000000, 0.000000000000000000, 0.000000000000000000 ) ) ;
#77 = AXIS2_PLACEMENT_3D ( 'NONE', #413, #68, #300 ) ;
#78 = EDGE_CURVE ( 'NONE', #288, #403, #58, .T. ) ;
#79 = LINE ( 'NONE', #225, #93 ) ;
#80 = CARTESIAN_POINT ( 'NONE',  ( -2.600000000000000089, 0.000000000000000000, 5.000000000000000000 ) ) ;
#81 = ORIENTED_EDGE ( 'NONE', *, *, #406, .F. ) ;
#82 = DIRECTION ( 'NONE',  ( -0.000000000000000000, -0.000000000000000000, -1.000000000000000000 ) ) ;
#83 = ORIENTED_EDGE ( 'NONE', *, *, #385, .T. ) ;
#84 = EDGE_CURVE ( 'NONE', #132, #472, #310, .T. ) ;
#85 =( LENGTH_UNIT ( ) NAMED_UNIT ( * ) SI_UNIT ( .MILLI., .METRE. ) );
#86 = ORIENTED_EDGE ( 'NONE', *, *, #415, .T. ) ;
#87 = SURFACE_STYLE_FILL_AREA ( #202 ) ;
#88 = ORIENTED_EDGE ( 'NONE', *, *, #133, .T. ) ;
#89 = CARTESIAN_POINT ( 'NONE',  ( 2.600000000000000089, 3.184081677783118191E-16, 5.000000000000000000 ) ) ;
#90 = VERTEX_POINT ( 'NONE', #265 ) ;
#91 = ORIENTED_EDGE ( 'NONE', *, *, #30, .T. ) ;
#92 = CIRCLE ( 'NONE', #3, 2.600000000000000089 ) ;
#93 = VECTOR ( 'NONE', #237, 1000.000000000000000 ) ;
#94 = CARTESIAN_POINT ( 'NONE',  ( 0.000000000000000000, 2.600000000000000089, 0.000000000000000000 ) ) ;
#95 = EDGE_LOOP ( 'NONE', ( #397, #203, #127, #285 ) ) ;
#96 = PLANE ( 'NONE',  #324 ) ;
#97 = CARTESIAN_POINT ( 'NONE',  ( 1.100000000000000089, 1.347111479062088503E-16, 5.000000000000000000 ) ) ;
#98 = EDGE_CURVE ( 'NONE', #426, #429, #489, .T. ) ;
#99 = CARTESIAN_POINT ( 'NONE',  ( -4.200000000000000178, 0.000000000000000000, -5.000000000000000000 ) ) ;
#100 = CARTESIAN_POINT ( 'NONE',  ( 0.000000000000000000, 0.000000000000000000, 5.000000000000000000 ) ) ;
#101 = VECTOR ( 'NONE', #296, 1000.000000000000000 ) ;
#102 = CARTESIAN_POINT ( 'NONE',  ( 0.000000000000000000, 0.000000000000000000, -5.000000000000000000 ) ) ;
#103 = CARTESIAN_POINT ( 'NONE',  ( 2.475683706650777083, -0.8001339612375745203, -5.613919126218887001 ) ) ;
#104 = DIRECTION ( 'NONE',  ( 1.000000000000000000, 0.000000000000000000, 0.000000000000000000 ) ) ;
#105 = CIRCLE ( 'NONE', #349, 1.100000000000000089 ) ;
#106 = EDGE_CURVE ( 'NONE', #472, #426, #37, .T. ) ;
#107 = DIRECTION ( 'NONE',  ( 0.000000000000000000, 0.000000000000000000, 1.000000000000000000 ) ) ;
#108 = FACE_OUTER_BOUND ( 'NONE', #432, .T. ) ;
#109 = DIRECTION ( 'NONE',  ( 0.000000000000000000, -1.000000000000000000, 0.000000000000000000 ) ) ;
#110 = CARTESIAN_POINT ( 'NONE',  ( -4.200000000000000178, 0.000000000000000000, -5.000000000000000000 ) ) ;
#111 = AXIS2_PLACEMENT_3D ( 'NONE', #473, #356, #284 ) ;
#112 = CARTESIAN_POINT ( 'NONE',  ( 2.600000000000000089, 3.184295451438472206E-16, -6.000000000000000000 ) ) ;
#113 = ADVANCED_FACE ( 'NONE', ( #264 ), #461, .F. ) ;
#114 = CARTESIAN_POINT ( 'NONE',  ( 2.476176995061654118, 0.7985129709019443967, -5.615770746594980878 ) ) ;
#115 = DIRECTION ( 'NONE',  ( -1.000000000000000000, 0.000000000000000000, 0.000000000000000000 ) ) ;
#116 = ORIENTED_EDGE ( 'NONE', *, *, #166, .T. ) ;
#117 = DIRECTION ( 'NONE',  ( 0.000000000000000000, 0.000000000000000000, 1.000000000000000000 ) ) ;
#118 = DIRECTION ( 'NONE',  ( 1.000000000000000000, 0.000000000000000000, -0.000000000000000000 ) ) ;
#119 = VECTOR ( 'NONE', #302, 1000.000000000000000 ) ;
#120 = CARTESIAN_POINT ( 'NONE',  ( 0.000000000000000000, -2.600000000000000089, -5.000000000000000000 ) ) ;
#121 = ORIENTED_EDGE ( 'NONE', *, *, #106, .T. ) ;
#122 = DIRECTION ( 'NONE',  ( 1.000000000000000000, -0.000000000000000000, -0.000000000000000000 ) ) ;
#123 = ORIENTED_EDGE ( 'NONE', *, *, #227, .T. ) ;
#124 = AXIS2_PLACEMENT_3D ( 'NONE', #99, #372, #289 ) ;
#125 = CIRCLE ( 'NONE', #162, 1.875000000000000000 ) ;
#126 = CARTESIAN_POINT ( 'NONE',  ( 2.600000000000000089, 0.000000000000000000, -5.000000000000000000 ) ) ;
#127 = ORIENTED_EDGE ( 'NONE', *, *, #8, .T. ) ;
#128 = UNCERTAINTY_MEASURE_WITH_UNIT (LENGTH_MEASURE( 1.000000000000000082E-05 ), #85, 'distance_accuracy_value', 'NONE');
#129 = CARTESIAN_POINT ( 'NONE',  ( 1.523044737829951867, 2.599999999999999201, -6.523044737829953199 ) ) ;
#130 = VERTEX_POINT ( 'NONE', #452 ) ;
#131 = DIRECTION ( 'NONE',  ( -1.000000000000000000, 0.000000000000000000, 0.000000000000000000 ) ) ;
#132 = VERTEX_POINT ( 'NONE', #146 ) ;
#133 = EDGE_CURVE ( 'NONE', #14, #435, #384, .T. ) ;
#134 = DIRECTION ( 'NONE',  ( 0.000000000000000000, 0.000000000000000000, 1.000000000000000000 ) ) ;
#135 = CARTESIAN_POINT ( 'NONE',  ( 2.527969114635723713, -0.6153018176063963507, -5.799071162483891761 ) ) ;
#136 = AXIS2_PLACEMENT_3D ( 'NONE', #315, #268, #275 ) ;
#137 = LINE ( 'NONE', #369, #38 ) ;
#138 = VERTEX_POINT ( 'NONE', #263 ) ;
#139 = AXIS2_PLACEMENT_3D ( 'NONE', #335, #220, #248 ) ;
#140 = ADVANCED_FACE ( 'NONE', ( #40 ), #266, .T. ) ;
#141 = FACE_OUTER_BOUND ( 'NONE', #147, .T. ) ;
#142 = CARTESIAN_POINT ( 'NONE',  ( 2.553256650449165388, -0.5059709623323962457, -4.127444400859772600 ) ) ;
#143 = PLANE ( 'NONE',  #303 ) ;
#144 = ORIENTED_EDGE ( 'NONE', *, *, #30, .F. ) ;
#145 = CARTESIAN_POINT ( 'NONE',  ( 2.600000000000000089, 1.582193844485930781E-16, -4.000000000000000000 ) ) ;
#146 = CARTESIAN_POINT ( 'NONE',  ( 2.600000000000000089, 1.582193844485930781E-16, -4.000000000000000000 ) ) ;
#147 = EDGE_LOOP ( 'NONE', ( #232, #486, #167 ) ) ;
#148 = EDGE_CURVE ( 'NONE', #224, #288, #450, .T. ) ;
#149 = AXIS2_PLACEMENT_3D ( 'NONE', #273, #312, #118 ) ;
#150 = CARTESIAN_POINT ( 'NONE',  ( 2.411357679890360206, 0.9738118473626374838, -5.262929710731239830 ) ) ;
#151 = AXIS2_PLACEMENT_3D ( 'NONE', #399, #22, #174 ) ;
#152 = ORIENTED_EDGE ( 'NONE', *, *, #487, .T. ) ;
#153 = LINE ( 'NONE', #379, #477 ) ;
#154 = EDGE_CURVE ( 'NONE', #429, #426, #293, .T. ) ;
#155 = FACE_OUTER_BOUND ( 'NONE', #95, .T. ) ;
#156 = DIRECTION ( 'NONE',  ( -0.000000000000000000, -0.000000000000000000, -1.000000000000000000 ) ) ;
#157 = ORIENTED_EDGE ( 'NONE', *, *, #148, .F. ) ;
#158 = CLOSED_SHELL ( 'NONE', ( #291, #313, #398, #140, #271, #113, #15, #221, #348, #430, #393, #200, #332, #190 ) ) ;
#159 = FACE_OUTER_BOUND ( 'NONE', #41, .T. ) ;
#160 = EDGE_LOOP ( 'NONE', ( #240, #185 ) ) ;
#161 = EDGE_LOOP ( 'NONE', ( #81, #389, #491, #359, #391, #218 ) ) ;
#162 = AXIS2_PLACEMENT_3D ( 'NONE', #102, #483, #247 ) ;
#163 = DIRECTION ( 'NONE',  ( 0.000000000000000000, 0.000000000000000000, 1.000000000000000000 ) ) ;
#164 = ORIENTED_EDGE ( 'NONE', *, *, #367, .F. ) ;
#165 = DIRECTION ( 'NONE',  ( 0.000000000000000000, 0.000000000000000000, 1.000000000000000000 ) ) ;
#166 = EDGE_CURVE ( 'NONE', #14, #130, #92, .T. ) ;
#167 = ORIENTED_EDGE ( 'NONE', *, *, #299, .T. ) ;
#168 = DIRECTION ( 'NONE',  ( 0.000000000000000000, 0.000000000000000000, 1.000000000000000000 ) ) ;
#169 = APPLICATION_CONTEXT ( 'automotive_design' ) ;
#170 = CARTESIAN_POINT ( 'NONE',  ( 2.449809625894837861, -0.8725384025438140956, -4.494335750369487847 ) ) ;
#171 = COLOUR_RGB ( '',0.7921568627450980005, 0.8196078431372548767, 0.9333333333333333481 ) ;
#172 = CARTESIAN_POINT ( 'NONE',  ( -4.200000000000000178, 2.296212748401286986E-16, -3.125000000000000000 ) ) ;
#173 = CARTESIAN_POINT ( 'NONE',  ( 0.000000000000000000, 0.000000000000000000, 0.000000000000000000 ) ) ;
#174 = DIRECTION ( 'NONE',  ( -1.000000000000000000, 0.000000000000000000, 0.000000000000000000 ) ) ;
#175 = DIRECTION ( 'NONE',  ( 0.000000000000000000, 0.000000000000000000, 1.000000000000000000 ) ) ;
#176 = CARTESIAN_POINT ( 'NONE',  ( 2.600999999999999979, 0.000000000000000000, -5.000000000000000000 ) ) ;
#177 = CARTESIAN_POINT ( 'NONE',  ( 2.449680591134990593, 0.8728875580992739858, -4.495041145729028464 ) ) ;
#178 =( NAMED_UNIT ( * ) PLANE_ANGLE_UNIT ( ) SI_UNIT ( $, .RADIAN. ) );
#179 = CARTESIAN_POINT ( 'NONE',  ( 2.600000000000000089, 0.000000000000000000, -4.000000000000000000 ) ) ;
#180 = EDGE_CURVE ( 'NONE', #364, #476, #153, .T. ) ;
#181 = DIRECTION ( 'NONE',  ( -0.000000000000000000, -0.000000000000000000, -1.000000000000000000 ) ) ;
#182 = ORIENTED_EDGE ( 'NONE', *, *, #406, .T. ) ;
#183 =( BOUNDED_CURVE ( )  B_SPLINE_CURVE ( 3, ( #48, #129, #463, #358 ),
 .UNSPECIFIED., .F., .T. ) 
 B_SPLINE_CURVE_WITH_KNOTS ( ( 4, 4 ),
 ( 1.570796326794896558, 3.141592653589793116 ),
 .UNSPECIFIED. ) 
 CURVE ( )  GEOMETRIC_REPRESENTATION_ITEM ( )  RATIONAL_B_SPLINE_CURVE ( ( 1.000000000000000000, 0.8047378541243649375, 0.8047378541243649375, 1.000000000000000000 ) ) 
 REPRESENTATION_ITEM ( '' )  );
#184 = CARTESIAN_POINT ( 'NONE',  ( 2.449955214617836496, 0.8721667391026391991, -5.506721546859924210 ) ) ;
#185 = ORIENTED_EDGE ( 'NONE', *, *, #62, .T. ) ;
#186 = CIRCLE ( 'NONE', #408, 1.100000000000000089 ) ;
#187 = DIRECTION ( 'NONE',  ( -1.000000000000000000, 0.000000000000000000, 0.000000000000000000 ) ) ;
#188 = VECTOR ( 'NONE', #28, 1000.000000000000000 ) ;
#189 = EDGE_LOOP ( 'NONE', ( #387, #347 ) ) ;
#190 = ADVANCED_FACE ( 'NONE', ( #155 ), #492, .F. ) ;
#191 = CARTESIAN_POINT ( 'NONE',  ( 2.553411626483939489, 0.5048526790280261078, -5.872982254769112842 ) ) ;
#192 = VERTEX_POINT ( 'NONE', #422 ) ;
#193 = CARTESIAN_POINT ( 'NONE',  ( 0.000000000000000000, 0.000000000000000000, 0.000000000000000000 ) ) ;
#194 = DIRECTION ( 'NONE',  ( 0.000000000000000000, 0.000000000000000000, 1.000000000000000000 ) ) ;
#195 = VERTEX_POINT ( 'NONE', #354 ) ;
#196 = CARTESIAN_POINT ( 'NONE',  ( 1.523044737829952977, -2.599999999999999201, -6.523044737829953199 ) ) ;
#197 = ORIENTED_EDGE ( 'NONE', *, *, #71, .T. ) ;
#198 = APPLICATION_CONTEXT ( 'automotive_design' ) ;
#199 = CARTESIAN_POINT ( 'NONE',  ( -4.200000000000000178, 0.000000000000000000, -5.000000000000000000 ) ) ;
#200 = ADVANCED_FACE ( 'NONE', ( #301 ), #304, .T. ) ;
#201 = EDGE_LOOP ( 'NONE', ( #235, #144 ) ) ;
#202 = FILL_AREA_STYLE ('',( #468 ) ) ;
#203 = ORIENTED_EDGE ( 'NONE', *, *, #84, .F. ) ;
#204 = SURFACE_SIDE_STYLE ('',( #87 ) ) ;
#205 = VERTEX_POINT ( 'NONE', #414 ) ;
#206 = CARTESIAN_POINT ( 'NONE',  ( 1.100000000000000089, 1.347111479062088503E-16, 0.000000000000000000 ) ) ;
#207 = ORIENTED_EDGE ( 'NONE', *, *, #419, .F. ) ;
#208 = CARTESIAN_POINT ( 'NONE',  ( 0.000000000000000000, 0.000000000000000000, 5.000000000000000000 ) ) ;
#209 = VECTOR ( 'NONE', #109, 1000.000000000000000 ) ;
#210 = ORIENTED_EDGE ( 'NONE', *, *, #281, .T. ) ;
#211 = DIRECTION ( 'NONE',  ( 0.000000000000000000, 0.000000000000000000, 1.000000000000000000 ) ) ;
#212 = CARTESIAN_POINT ( 'NONE',  ( 2.600000000000000089, 1.582193844485930781E-16, -4.000000000000000000 ) ) ;
#213 = UNCERTAINTY_MEASURE_WITH_UNIT (LENGTH_MEASURE( 1.000000000000000082E-05 ), #31, 'distance_accuracy_value', 'NONE');
#214 = CIRCLE ( 'NONE', #111, 1.875000000000000000 ) ;
#215 = CARTESIAN_POINT ( 'NONE',  ( 0.000000000000000000, 0.000000000000000000, 0.000000000000000000 ) ) ;
#216 = CARTESIAN_POINT ( 'NONE',  ( 2.400028419342397967, -0.9999317935675819946, -4.867656944119499229 ) ) ;
#217 = CARTESIAN_POINT ( 'NONE',  ( -4.200000000000000178, 1.224646799147352714E-16, -6.000000000000000000 ) ) ;
#218 = ORIENTED_EDGE ( 'NONE', *, *, #415, .F. ) ;
#219 = CARTESIAN_POINT ( 'NONE',  ( 0.000000000000000000, -1.100000000000000311, 0.000000000000000000 ) ) ;
#220 = DIRECTION ( 'NONE',  ( 0.000000000000000000, 0.000000000000000000, 1.000000000000000000 ) ) ;
#221 = ADVANCED_FACE ( 'NONE', ( #75 ), #417, .F. ) ;
#222 = SHAPE_DEFINITION_REPRESENTATION ( #59, #404 ) ;
#223 = CARTESIAN_POINT ( 'NONE',  ( 0.000000000000000000, 0.000000000000000000, 5.000000000000000000 ) ) ;
#224 = VERTEX_POINT ( 'NONE', #490 ) ;
#225 = CARTESIAN_POINT ( 'NONE',  ( -4.200000000000000178, 0.000000000000000000, -6.875000000000000000 ) ) ;
#226 = CARTESIAN_POINT ( 'NONE',  ( 2.600000000000000089, 1.224646799147352961E-16, -6.000000000000000000 ) ) ;
#227 = EDGE_CURVE ( 'NONE', #228, #474, #79, .T. ) ;
#228 = VERTEX_POINT ( 'NONE', #280 ) ;
#229 = DIRECTION ( 'NONE',  ( 1.000000000000000000, 0.000000000000000000, -0.000000000000000000 ) ) ;
#230 = ORIENTED_EDGE ( 'NONE', *, *, #467, .T. ) ;
#231 = CARTESIAN_POINT ( 'NONE',  ( 2.589386117558726053, 0.2643230901364389540, -5.973194507117803198 ) ) ;
#232 = ORIENTED_EDGE ( 'NONE', *, *, #320, .T. ) ;
#233 = DIRECTION ( 'NONE',  ( 1.000000000000000000, 0.000000000000000000, 0.000000000000000000 ) ) ;
#234 =( NAMED_UNIT ( * ) PLANE_ANGLE_UNIT ( ) SI_UNIT ( $, .RADIAN. ) );
#235 = ORIENTED_EDGE ( 'NONE', *, *, #338, .F. ) ;
#236 = EDGE_CURVE ( 'NONE', #224, #205, #183, .T. ) ;
#237 = DIRECTION ( 'NONE',  ( 1.000000000000000000, -0.000000000000000000, -0.000000000000000000 ) ) ;
#238 = EDGE_LOOP ( 'NONE', ( #17, #245, #88, #86, #5, #9, #51, #197 ) ) ;
#239 =( BOUNDED_CURVE ( )  B_SPLINE_CURVE ( 3, ( #241, #425, #196, #120 ),
 .UNSPECIFIED., .F., .F. ) 
 B_SPLINE_CURVE_WITH_KNOTS ( ( 4, 4 ),
 ( 3.141592653589793116, 4.712388980384689674 ),
 .UNSPECIFIED. ) 
 CURVE ( )  GEOMETRIC_REPRESENTATION_ITEM ( )  RATIONAL_B_SPLINE_CURVE ( ( 1.000000000000000000, 0.8047378541243649375, 0.8047378541243649375, 1.000000000000000000 ) ) 
 REPRESENTATION_ITEM ( '' )  );
#240 = ORIENTED_EDGE ( 'NONE', *, *, #260, .T. ) ;
#241 = CARTESIAN_POINT ( 'NONE',  ( 2.600000000000000089, 3.184081677783118191E-16, -7.599999999999997868 ) ) ;
#242 = ORIENTED_EDGE ( 'NONE', *, *, #52, .F. ) ;
#243 = EDGE_CURVE ( 'NONE', #472, #205, #392, .T. ) ;
#244 = SURFACE_STYLE_USAGE ( .BOTH. , #204 ) ;
#245 = ORIENTED_EDGE ( 'NONE', *, *, #166, .F. ) ;
#246 = B_SPLINE_CURVE_WITH_KNOTS ( 'NONE', 3,
 ( #407, #370, #32, #290, #135, #103, #259, #337, #488, #216, #64, #170, #373, #484, #142, #29, #257, #145 ),
 .UNSPECIFIED., .F., .F.,
 ( 4, 2, 2, 2, 2, 2, 2, 2, 4 ),
 ( 0.003157195279585176418, 0.003551769973081229069, 0.003946344666577282154, 0.004340919360073334371, 0.004735494053569387456, 0.005130068747065440540, 0.005524643440561492758, 0.005919218134057546710, 0.006313792827553598927 ),
 .UNSPECIFIED. ) ;
#247 = DIRECTION ( 'NONE',  ( 0.000000000000000000, 0.000000000000000000, 1.000000000000000000 ) ) ;
#248 = DIRECTION ( 'NONE',  ( 1.000000000000000000, 0.000000000000000000, 0.000000000000000000 ) ) ;
#249 = LINE ( 'NONE', #6, #471 ) ;
#250 = AXIS2_PLACEMENT_3D ( 'NONE', #456, #33, #115 ) ;
#251 = CARTESIAN_POINT ( 'NONE',  ( -4.200000000000000178, 0.000000000000000000, -5.000000000000000000 ) ) ;
#252 = DIRECTION ( 'NONE',  ( 0.000000000000000000, 0.000000000000000000, 1.000000000000000000 ) ) ;
#253 = LINE ( 'NONE', #97, #101 ) ;
#254 = AXIS2_PLACEMENT_3D ( 'NONE', #318, #16, #163 ) ;
#255 = CIRCLE ( 'NONE', #39, 1.100000000000000089 ) ;
#256 = CARTESIAN_POINT ( 'NONE',  ( 2.600999999999999979, 2.600000000000000089, 0.000000000000000000 ) ) ;
#257 = CARTESIAN_POINT ( 'NONE',  ( 2.600000000000000089, -0.1335082989433336031, -4.000000000000001776 ) ) ;
#258 = CARTESIAN_POINT ( 'NONE',  ( 0.000000000000000000, 0.000000000000000000, -5.000000000000000000 ) ) ;
#259 = CARTESIAN_POINT ( 'NONE',  ( 2.449650646909634855, -0.8729882975820126845, -5.505027758214330547 ) ) ;
#260 = EDGE_CURVE ( 'NONE', #228, #138, #214, .T. ) ;
#261 = AXIS2_PLACEMENT_3D ( 'NONE', #110, #262, #454 ) ;
#262 = DIRECTION ( 'NONE',  ( 1.000000000000000000, -0.000000000000000000, -0.000000000000000000 ) ) ;
#263 = CARTESIAN_POINT ( 'NONE',  ( -4.200000000000000178, 2.296212748401286986E-16, -3.125000000000000000 ) ) ;
#264 = FACE_OUTER_BOUND ( 'NONE', #161, .T. ) ;
#265 = CARTESIAN_POINT ( 'NONE',  ( -1.100000000000000089, 0.000000000000000000, 5.000000000000000000 ) ) ;
#266 = CYLINDRICAL_SURFACE ( 'NONE', #250, 2.600000000000000089 ) ;
#267 = ORIENTED_EDGE ( 'NONE', *, *, #236, .F. ) ;
#268 = DIRECTION ( 'NONE',  ( 0.000000000000000000, 0.000000000000000000, 1.000000000000000000 ) ) ;
#269 = DIRECTION ( 'NONE',  ( -0.000000000000000000, -0.000000000000000000, -1.000000000000000000 ) ) ;
#270 = EDGE_LOOP ( 'NONE', ( #340, #396 ) ) ;
#271 = ADVANCED_FACE ( 'NONE', ( #433, #7 ), #55, .T. ) ;
#272 = AXIS2_PLACEMENT_3D ( 'NONE', #173, #21, #24 ) ;
#273 = CARTESIAN_POINT ( 'NONE',  ( 0.000000000000000000, 0.000000000000000000, 5.000000000000000000 ) ) ;
#274 = VERTEX_POINT ( 'NONE', #13 ) ;
#275 = DIRECTION ( 'NONE',  ( 1.000000000000000000, 0.000000000000000000, 0.000000000000000000 ) ) ;
#276 = FACE_BOUND ( 'NONE', #189, .T. ) ;
#277 = CIRCLE ( 'NONE', #254, 2.600000000000000089 ) ;
#278 = CIRCLE ( 'NONE', #383, 1.875000000000000000 ) ;
#279 = VERTEX_POINT ( 'NONE', #206 ) ;
#280 = CARTESIAN_POINT ( 'NONE',  ( -4.200000000000000178, 0.000000000000000000, -6.875000000000000000 ) ) ;
#281 = EDGE_CURVE ( 'NONE', #90, #305, #326, .T. ) ;
#282 = ORIENTED_EDGE ( 'NONE', *, *, #455, .T. ) ;
#283 = MANIFOLD_SOLID_BREP ( 'Cut-Extrude1', #158 ) ;
#284 = DIRECTION ( 'NONE',  ( 0.000000000000000000, 0.000000000000000000, 1.000000000000000000 ) ) ;
#285 = ORIENTED_EDGE ( 'NONE', *, *, #154, .T. ) ;
#286 = AXIS2_PLACEMENT_3D ( 'NONE', #351, #386, #194 ) ;
#287 = DIRECTION ( 'NONE',  ( 1.000000000000000000, 0.000000000000000000, 0.000000000000000000 ) ) ;
#288 = VERTEX_POINT ( 'NONE', #94 ) ;
#289 = DIRECTION ( 'NONE',  ( 0.000000000000000000, 0.000000000000000000, 1.000000000000000000 ) ) ;
#290 = CARTESIAN_POINT ( 'NONE',  ( 2.553229624950463350, -0.5059328805065668178, -5.872466823738893282 ) ) ;
#291 = ADVANCED_FACE ( 'NONE', ( #44 ), #464, .F. ) ;
#292 = LINE ( 'NONE', #172, #446 ) ;
#293 = CIRCLE ( 'NONE', #286, 1.000000000000000000 ) ;
#294 = LINE ( 'NONE', #179, #60 ) ;
#295 = CARTESIAN_POINT ( 'NONE',  ( 0.000000000000000000, 0.000000000000000000, 0.000000000000000000 ) ) ;
#296 = DIRECTION ( 'NONE',  ( -0.000000000000000000, -0.000000000000000000, -1.000000000000000000 ) ) ;
#297 = CIRCLE ( 'NONE', #67, 2.600000000000000089 ) ;
#298 = DIRECTION ( 'NONE',  ( -1.000000000000000000, 0.000000000000000000, -0.000000000000000000 ) ) ;
#299 = EDGE_CURVE ( 'NONE', #205, #192, #239, .T. ) ;
#300 = DIRECTION ( 'NONE',  ( -1.000000000000000000, 0.000000000000000000, 0.000000000000000000 ) ) ;
#301 = FACE_OUTER_BOUND ( 'NONE', #420, .T. ) ;
#302 = DIRECTION ( 'NONE',  ( -1.000000000000000000, -0.000000000000000000, -0.000000000000000000 ) ) ;
#303 = AXIS2_PLACEMENT_3D ( 'NONE', #256, #439, #298 ) ;
#304 = CYLINDRICAL_SURFACE ( 'NONE', #261, 1.875000000000000000 ) ;
#305 = VERTEX_POINT ( 'NONE', #428 ) ;
#306 = DIRECTION ( 'NONE',  ( -1.000000000000000000, -0.000000000000000000, -0.000000000000000000 ) ) ;
#307 = EDGE_LOOP ( 'NONE', ( #345, #121, #325, #36 ) ) ;
#308 = CARTESIAN_POINT ( 'NONE',  ( 2.600000000000000089, 0.000000000000000000, -5.000000000000000000 ) ) ;
#309 = EDGE_LOOP ( 'NONE', ( #230, #152, #361 ) ) ;
#310 = B_SPLINE_CURVE_WITH_KNOTS ( 'NONE', 3,
 ( #212, #440, #411, #438, #70, #400, #177, #368, #331, #479, #150, #184, #114, #4, #191, #231, #42, #112 ),
 .UNSPECIFIED., .F., .F.,
 ( 4, 2, 2, 2, 2, 2, 2, 2, 4 ),
 ( 1.535532849776407345E-19, 0.0003946494099481472149, 0.0007892988198962942129, 0.001183948229844441428, 0.001578597639792588426, 0.001973247049740735424, 0.002367896459688882422, 0.002762545869637029420, 0.003157195279585176418 ),
 .UNSPECIFIED. ) ;
#311 = DIRECTION ( 'NONE',  ( 0.000000000000000000, 0.000000000000000000, 1.000000000000000000 ) ) ;
#312 = DIRECTION ( 'NONE',  ( 0.000000000000000000, 0.000000000000000000, 1.000000000000000000 ) ) ;
#313 = ADVANCED_FACE ( 'NONE', ( #159 ), #390, .T. ) ;
#314 = ORIENTED_EDGE ( 'NONE', *, *, #451, .T. ) ;
#315 = CARTESIAN_POINT ( 'NONE',  ( 0.000000000000000000, 0.000000000000000000, 0.000000000000000000 ) ) ;
#316 = CARTESIAN_POINT ( 'NONE',  ( -1.100000000000000089, 0.000000000000000000, 5.000000000000000000 ) ) ;
#317 = ORIENTED_EDGE ( 'NONE', *, *, #378, .F. ) ;
#318 = CARTESIAN_POINT ( 'NONE',  ( 0.000000000000000000, 0.000000000000000000, -5.000000000000000000 ) ) ;
#319 = ORIENTED_EDGE ( 'NONE', *, *, #180, .F. ) ;
#320 = EDGE_CURVE ( 'NONE', #192, #224, #277, .T. ) ;
#321 = PRODUCT ( 'MetalRodAdapter', 'MetalRodAdapter', '', ( #47 ) ) ;
#322 =( NAMED_UNIT ( * ) SI_UNIT ( $, .STERADIAN. ) SOLID_ANGLE_UNIT ( ) );
#323 = CIRCLE ( 'NONE', #333, 2.600000000000000089 ) ;
#324 = AXIS2_PLACEMENT_3D ( 'NONE', #258, #437, #412 ) ;
#325 = ORIENTED_EDGE ( 'NONE', *, *, #98, .T. ) ;
#326 = LINE ( 'NONE', #316, #371 ) ;
#327 = ORIENTED_EDGE ( 'NONE', *, *, #281, .F. ) ;
#328 = CYLINDRICAL_SURFACE ( 'NONE', #151, 1.100000000000000089 ) ;
#329 = ORIENTED_EDGE ( 'NONE', *, *, #227, .F. ) ;
#330 = CARTESIAN_POINT ( 'NONE',  ( 0.000000000000000000, 0.000000000000000000, -6.875000000000000000 ) ) ;
#331 = CARTESIAN_POINT ( 'NONE',  ( 2.400031799376282304, 0.9999236814820147146, -4.867506229309373822 ) ) ;
#332 = ADVANCED_FACE ( 'NONE', ( #276, #431 ), #480, .T. ) ;
#333 = AXIS2_PLACEMENT_3D ( 'NONE', #208, #211, #339 ) ;
#334 = CARTESIAN_POINT ( 'NONE',  ( -4.200000000000000178, 0.000000000000000000, -4.000000000000000000 ) ) ;
#335 = CARTESIAN_POINT ( 'NONE',  ( 0.000000000000000000, 0.000000000000000000, 0.000000000000000000 ) ) ;
#336 = CARTESIAN_POINT ( 'NONE',  ( -2.600000000000000089, 0.000000000000000000, 0.000000000000000000 ) ) ;
#337 = CARTESIAN_POINT ( 'NONE',  ( 2.411424150237559516, -0.9736171872306891295, -5.263118180692884174 ) ) ;
#338 = EDGE_CURVE ( 'NONE', #90, #195, #186, .T. ) ;
#339 = DIRECTION ( 'NONE',  ( 1.000000000000000000, 0.000000000000000000, 0.000000000000000000 ) ) ;
#340 = ORIENTED_EDGE ( 'NONE', *, *, #451, .F. ) ;
#341 =( NAMED_UNIT ( * ) SI_UNIT ( $, .STERADIAN. ) SOLID_ANGLE_UNIT ( ) );
#342 = CARTESIAN_POINT ( 'NONE',  ( -2.600000000000000089, 0.000000000000000000, 5.000000000000000000 ) ) ;
#343 = DIRECTION ( 'NONE',  ( -1.000000000000000000, 0.000000000000000000, 0.000000000000000000 ) ) ;
#344 = CIRCLE ( 'NONE', #139, 1.100000000000000089 ) ;
#345 = ORIENTED_EDGE ( 'NONE', *, *, #71, .F. ) ;
#346 = CARTESIAN_POINT ( 'NONE',  ( -4.200000000000000178, 0.000000000000000000, -5.000000000000000000 ) ) ;
#347 = ORIENTED_EDGE ( 'NONE', *, *, #98, .F. ) ;
#348 = ADVANCED_FACE ( 'NONE', ( #65 ), #143, .F. ) ;
#349 = AXIS2_PLACEMENT_3D ( 'NONE', #485, #168, #447 ) ;
#350 = CARTESIAN_POINT ( 'NONE',  ( 0.000000000000000000, 0.000000000000000000, 0.000000000000000000 ) ) ;
#351 = CARTESIAN_POINT ( 'NONE',  ( -4.200000000000000178, 0.000000000000000000, -5.000000000000000000 ) ) ;
#352 = ORIENTED_EDGE ( 'NONE', *, *, #482, .T. ) ;
#353 = PRODUCT_RELATED_PRODUCT_CATEGORY ( 'part', '', ( #321 ) ) ;
#354 = CARTESIAN_POINT ( 'NONE',  ( 1.100000000000000089, 1.347111479062088503E-16, 5.000000000000000000 ) ) ;
#355 = ORIENTED_EDGE ( 'NONE', *, *, #467, .F. ) ;
#356 = DIRECTION ( 'NONE',  ( -1.000000000000000000, 0.000000000000000000, 0.000000000000000000 ) ) ;
#357 = ORIENTED_EDGE ( 'NONE', *, *, #378, .T. ) ;
#358 = CARTESIAN_POINT ( 'NONE',  ( 2.600000000000000089, 3.184081677783118191E-16, -7.599999999999997868 ) ) ;
#359 = ORIENTED_EDGE ( 'NONE', *, *, #52, .T. ) ;
#360 = CIRCLE ( 'NONE', #380, 1.100000000000000089 ) ;
#361 = ORIENTED_EDGE ( 'NONE', *, *, #43, .T. ) ;
#362 =( GEOMETRIC_REPRESENTATION_CONTEXT ( 3 ) GLOBAL_UNCERTAINTY_ASSIGNED_CONTEXT ( ( #213 ) ) GLOBAL_UNIT_ASSIGNED_CONTEXT ( ( #31, #178, #341 ) ) REPRESENTATION_CONTEXT ( 'NONE', 'WORKASPACE' ) );
#363 = ORIENTED_EDGE ( 'NONE', *, *, #62, .F. ) ;
#364 = VERTEX_POINT ( 'NONE', #219 ) ;
#365 = AXIS2_PLACEMENT_3D ( 'NONE', #251, #375, #175 ) ;
#366 = CYLINDRICAL_SURFACE ( 'NONE', #421, 2.600000000000000089 ) ;
#367 = EDGE_CURVE ( 'NONE', #476, #192, #137, .T. ) ;
#368 = CARTESIAN_POINT ( 'NONE',  ( 2.411661554177274791, 0.9730139956707922755, -4.735122862783656572 ) ) ;
#369 = CARTESIAN_POINT ( 'NONE',  ( 0.000000000000000000, -2.600000000000000089, 0.000000000000000000 ) ) ;
#370 = CARTESIAN_POINT ( 'NONE',  ( 2.599999999999999645, -0.1314946043555522692, -5.999999999999999112 ) ) ;
#371 = VECTOR ( 'NONE', #269, 1000.000000000000000 ) ;
#372 = DIRECTION ( 'NONE',  ( -1.000000000000000000, 0.000000000000000000, 0.000000000000000000 ) ) ;
#373 = CARTESIAN_POINT ( 'NONE',  ( 2.476159628033776539, -0.7985801595328284597, -4.384285827244498890 ) ) ;
#374 = LINE ( 'NONE', #72, #188 ) ;
#375 = DIRECTION ( 'NONE',  ( -1.000000000000000000, 0.000000000000000000, 0.000000000000000000 ) ) ;
#376 = EDGE_LOOP ( 'NONE', ( #116, #357 ) ) ;
#377 = DIRECTION ( 'NONE',  ( 0.000000000000000000, 0.000000000000000000, 1.000000000000000000 ) ) ;
#378 = EDGE_CURVE ( 'NONE', #130, #14, #323, .T. ) ;
#379 = CARTESIAN_POINT ( 'NONE',  ( 0.000000000000000000, 2.600000000000000089, 0.000000000000000000 ) ) ;
#380 = AXIS2_PLACEMENT_3D ( 'NONE', #100, #107, #481 ) ;
#381 = ORIENTED_EDGE ( 'NONE', *, *, #455, .F. ) ;
#382 = CARTESIAN_POINT ( 'NONE',  ( 0.000000000000000000, 2.600000000000000089, 0.000000000000000000 ) ) ;
#383 = AXIS2_PLACEMENT_3D ( 'NONE', #69, #131, #252 ) ;
#384 = LINE ( 'NONE', #80, #401 ) ;
#385 = EDGE_CURVE ( 'NONE', #274, #474, #278, .T. ) ;
#386 = DIRECTION ( 'NONE',  ( -1.000000000000000000, 0.000000000000000000, 0.000000000000000000 ) ) ;
#387 = ORIENTED_EDGE ( 'NONE', *, *, #154, .F. ) ;
#388 = DIRECTION ( 'NONE',  ( -1.000000000000000000, -0.000000000000000000, -0.000000000000000000 ) ) ;
#389 = ORIENTED_EDGE ( 'NONE', *, *, #78, .T. ) ;
#390 = CYLINDRICAL_SURFACE ( 'NONE', #470, 1.875000000000000000 ) ;
#391 = ORIENTED_EDGE ( 'NONE', *, *, #180, .T. ) ;
#392 = LINE ( 'NONE', #89, #63 ) ;
#393 = ADVANCED_FACE ( 'NONE', ( #141 ), #366, .T. ) ;
#394 = EDGE_LOOP ( 'NONE', ( #493, #157, #19, #164, #319, #355 ) ) ;
#395 = DIRECTION ( 'NONE',  ( 0.000000000000000000, 0.000000000000000000, -1.000000000000000000 ) ) ;
#396 = ORIENTED_EDGE ( 'NONE', *, *, #385, .F. ) ;
#397 = ORIENTED_EDGE ( 'NONE', *, *, #106, .F. ) ;
#398 = ADVANCED_FACE ( 'NONE', ( #108 ), #328, .F. ) ;
#399 = CARTESIAN_POINT ( 'NONE',  ( 0.000000000000000000, 0.000000000000000000, 5.000000000000000000 ) ) ;
#400 = CARTESIAN_POINT ( 'NONE',  ( 2.476074615223669007, 0.7987795217453604879, -4.384673107940301406 ) ) ;
#401 = VECTOR ( 'NONE', #82, 1000.000000000000000 ) ;
#402 = DIRECTION ( 'NONE',  ( -1.000000000000000000, -0.000000000000000000, -0.000000000000000000 ) ) ;
#403 = VERTEX_POINT ( 'NONE', #20 ) ;
#404 = ADVANCED_BREP_SHAPE_REPRESENTATION ( 'MetalRodAdapter', ( #283, #136 ), #362 ) ;
#405 = DIRECTION ( 'NONE',  ( 0.000000000000000000, 0.000000000000000000, 1.000000000000000000 ) ) ;
#406 = EDGE_CURVE ( 'NONE', #288, #435, #297, .T. ) ;
#407 = CARTESIAN_POINT ( 'NONE',  ( 2.600000000000000089, 3.184295451438472206E-16, -6.000000000000000000 ) ) ;
#408 = AXIS2_PLACEMENT_3D ( 'NONE', #410, #134, #104 ) ;
#409 = CIRCLE ( 'NONE', #495, 2.600000000000000089 ) ;
#410 = CARTESIAN_POINT ( 'NONE',  ( 0.000000000000000000, 0.000000000000000000, 5.000000000000000000 ) ) ;
#411 = CARTESIAN_POINT ( 'NONE',  ( 2.589401202750253095, 0.2644581794653481088, -4.026748882078850400 ) ) ;
#412 = DIRECTION ( 'NONE',  ( 0.000000000000000000, 0.000000000000000000, 1.000000000000000000 ) ) ;
#413 = CARTESIAN_POINT ( 'NONE',  ( 0.000000000000000000, 0.000000000000000000, 5.000000000000000000 ) ) ;
#414 = CARTESIAN_POINT ( 'NONE',  ( 2.600000000000000089, 3.184081677783118191E-16, -7.599999999999997868 ) ) ;
#415 = EDGE_CURVE ( 'NONE', #435, #476, #409, .T. ) ;
#416 = DIRECTION ( 'NONE',  ( -0.000000000000000000, -0.000000000000000000, 1.000000000000000000 ) ) ;
#417 = CYLINDRICAL_SURFACE ( 'NONE', #459, 1.100000000000000089 ) ;
#418 = CARTESIAN_POINT ( 'NONE',  ( 0.000000000000000000, 0.000000000000000000, 5.000000000000000000 ) ) ;
#419 = EDGE_CURVE ( 'NONE', #403, #305, #105, .T. ) ;
#420 = EDGE_LOOP ( 'NONE', ( #381, #465, #123, #314 ) ) ;
#421 = AXIS2_PLACEMENT_3D ( 'NONE', #176, #402, #165 ) ;
#422 = CARTESIAN_POINT ( 'NONE',  ( 0.000000000000000000, -2.600000000000000089, -5.000000000000000000 ) ) ;
#423 = ORIENTED_EDGE ( 'NONE', *, *, #25, .T. ) ;
#424 = APPLICATION_PROTOCOL_DEFINITION ( 'draft international standard', 'automotive_design', 1998, #169 ) ;
#425 = CARTESIAN_POINT ( 'NONE',  ( 2.599999999999999201, -1.523044737829951867, -7.599999999999997868 ) ) ;
#426 = VERTEX_POINT ( 'NONE', #217 ) ;
#427 = CIRCLE ( 'NONE', #272, 1.100000000000000089 ) ;
#428 = CARTESIAN_POINT ( 'NONE',  ( -1.100000000000000089, 0.000000000000000000, 0.000000000000000000 ) ) ;
#429 = VERTEX_POINT ( 'NONE', #334 ) ;
#430 = ADVANCED_FACE ( 'NONE', ( #442, #475 ), #96, .T. ) ;
#431 = FACE_OUTER_BOUND ( 'NONE', #160, .T. ) ;
#432 = EDGE_LOOP ( 'NONE', ( #45, #423, #73, #242, #327 ) ) ;
#433 = FACE_OUTER_BOUND ( 'NONE', #376, .T. ) ;
#434 = EDGE_LOOP ( 'NONE', ( #317, #352, #11, #56, #267, #469, #182, #49 ) ) ;
#435 = VERTEX_POINT ( 'NONE', #336 ) ;
#436 = PRODUCT_DEFINITION ( 'UNKNOWN', '', #10, #458 ) ;
#437 = DIRECTION ( 'NONE',  ( -1.000000000000000000, -0.000000000000000000, 0.000000000000000000 ) ) ;
#438 = CARTESIAN_POINT ( 'NONE',  ( 2.553176003815748718, 0.5061906864315268706, -4.127688784784424136 ) ) ;
#439 = DIRECTION ( 'NONE',  ( 0.000000000000000000, 0.000000000000000000, -1.000000000000000000 ) ) ;
#440 = CARTESIAN_POINT ( 'NONE',  ( 2.599999999999999645, 0.1335335800031345055, -4.000000000000000000 ) ) ;
#441 = CIRCLE ( 'NONE', #365, 1.875000000000000000 ) ;
#442 = FACE_BOUND ( 'NONE', #270, .T. ) ;
#443 = FACE_OUTER_BOUND ( 'NONE', #238, .T. ) ;
#444 = DIRECTION ( 'NONE',  ( 1.000000000000000000, -0.000000000000000000, -0.000000000000000000 ) ) ;
#445 = CYLINDRICAL_SURFACE ( 'NONE', #77, 2.600000000000000089 ) ;
#446 = VECTOR ( 'NONE', #444, 1000.000000000000000 ) ;
#447 = DIRECTION ( 'NONE',  ( 1.000000000000000000, 0.000000000000000000, 0.000000000000000000 ) ) ;
#448 = CARTESIAN_POINT ( 'NONE',  ( 0.000000000000000000, 2.600000000000000089, 0.000000000000000000 ) ) ;
#449 = APPLICATION_PROTOCOL_DEFINITION ( 'draft international standard', 'automotive_design', 1998, #198 ) ;
#450 = LINE ( 'NONE', #382, #466 ) ;
#451 = EDGE_CURVE ( 'NONE', #474, #274, #125, .T. ) ;
#452 = CARTESIAN_POINT ( 'NONE',  ( 2.600000000000000089, 3.184081677783118191E-16, 5.000000000000000000 ) ) ;
#453 = STYLED_ITEM ( 'NONE', ( #50 ), #283 ) ;
#454 = DIRECTION ( 'NONE',  ( 0.000000000000000000, 0.000000000000000000, -1.000000000000000000 ) ) ;
#455 = EDGE_CURVE ( 'NONE', #138, #274, #292, .T. ) ;
#456 = CARTESIAN_POINT ( 'NONE',  ( 0.000000000000000000, 0.000000000000000000, 5.000000000000000000 ) ) ;
#457 = ORIENTED_EDGE ( 'NONE', *, *, #25, .F. ) ;
#458 = PRODUCT_DEFINITION_CONTEXT ( 'detailed design', #198, 'design' ) ;
#459 = AXIS2_PLACEMENT_3D ( 'NONE', #223, #181, #343 ) ;
#460 = DIRECTION ( 'NONE',  ( -0.000000000000000000, -0.000000000000000000, -1.000000000000000000 ) ) ;
#461 = PLANE ( 'NONE',  #12 ) ;
#462 = EDGE_LOOP ( 'NONE', ( #457, #91, #210, #207, #54 ) ) ;
#463 = CARTESIAN_POINT ( 'NONE',  ( 2.599999999999999201, 1.523044737829952977, -7.599999999999997868 ) ) ;
#464 = CYLINDRICAL_SURFACE ( 'NONE', #23, 1.000000000000000000 ) ;
#465 = ORIENTED_EDGE ( 'NONE', *, *, #260, .F. ) ;
#466 = VECTOR ( 'NONE', #416, 1000.000000000000000 ) ;
#467 = EDGE_CURVE ( 'NONE', #403, #364, #374, .T. ) ;
#468 = FILL_AREA_STYLE_COLOUR ( '', #171 ) ;
#469 = ORIENTED_EDGE ( 'NONE', *, *, #148, .T. ) ;
#470 = AXIS2_PLACEMENT_3D ( 'NONE', #199, #122, #395 ) ;
#471 = VECTOR ( 'NONE', #460, 1000.000000000000000 ) ;
#472 = VERTEX_POINT ( 'NONE', #18 ) ;
#473 = CARTESIAN_POINT ( 'NONE',  ( -4.200000000000000178, 0.000000000000000000, -5.000000000000000000 ) ) ;
#474 = VERTEX_POINT ( 'NONE', #330 ) ;
#475 = FACE_OUTER_BOUND ( 'NONE', #394, .T. ) ;
#476 = VERTEX_POINT ( 'NONE', #478 ) ;
#477 = VECTOR ( 'NONE', #2, 1000.000000000000000 ) ;
#478 = CARTESIAN_POINT ( 'NONE',  ( 0.000000000000000000, -2.600000000000000089, 0.000000000000000000 ) ) ;
#479 = CARTESIAN_POINT ( 'NONE',  ( 2.399968339475616386, 1.000075985273395363, -5.131339223919634485 ) ) ;
#480 = PLANE ( 'NONE',  #124 ) ;
#481 = DIRECTION ( 'NONE',  ( 1.000000000000000000, 0.000000000000000000, 0.000000000000000000 ) ) ;
#482 = EDGE_CURVE ( 'NONE', #130, #132, #249, .T. ) ;
#483 = DIRECTION ( 'NONE',  ( -1.000000000000000000, 0.000000000000000000, 0.000000000000000000 ) ) ;
#484 = CARTESIAN_POINT ( 'NONE',  ( 2.528015004098849161, -0.6150096859033560293, -4.200877168404929307 ) ) ;
#485 = CARTESIAN_POINT ( 'NONE',  ( 0.000000000000000000, 0.000000000000000000, 0.000000000000000000 ) ) ;
#486 = ORIENTED_EDGE ( 'NONE', *, *, #236, .T. ) ;
#487 = EDGE_CURVE ( 'NONE', #364, #279, #255, .T. ) ;
#488 = CARTESIAN_POINT ( 'NONE',  ( 2.399971691762497805, -1.000067939780645787, -5.131310289200676777 ) ) ;
#489 = CIRCLE ( 'NONE', #34, 1.000000000000000000 ) ;
#490 = CARTESIAN_POINT ( 'NONE',  ( 0.000000000000000000, 2.600000000000000089, -5.000000000000000000 ) ) ;
#491 = ORIENTED_EDGE ( 'NONE', *, *, #419, .T. ) ;
#492 = CYLINDRICAL_SURFACE ( 'NONE', #74, 1.000000000000000000 ) ;
#493 = ORIENTED_EDGE ( 'NONE', *, *, #78, .F. ) ;
#494 = MECHANICAL_DESIGN_GEOMETRIC_PRESENTATION_REPRESENTATION (  '', ( #453 ), #66 ) ;
#495 = AXIS2_PLACEMENT_3D ( 'NONE', #295, #57, #61 ) ;
ENDSEC;
END-ISO-10303-21;
