ISO-10303-21;
HEADER;
/* Generated by software containing ST-Developer
 * from STEP Tools, Inc. (www.steptools.com) 
 */

FILE_DESCRIPTION(
/* description */ ('STEP AP214'),
/* implementation_level */ '2;1');

FILE_NAME(
/* name */ 'Servo Mount for Elevator.stp',
/* time_stamp */ '2026-09-11T14:09:59-07:00',
/* author */ ('4031071'),
/* organization */ (''),
/* preprocessor_version */ 'ST-DEVELOPER v20',
/* originating_system */ 'Autodesk Inventor 2025',
/* authorisation */ '');

FILE_SCHEMA (('AUTOMOTIVE_DESIGN { 1 0 10303 214 3 1 1 }'));
ENDSEC;

DATA;
#10=MECHANICAL_DESIGN_GEOMETRIC_PRESENTATION_REPRESENTATION('',(#13),#1375);
#11=SHAPE_REPRESENTATION_RELATIONSHIP('SRR','None',#1382,#12);
#12=ADVANCED_BREP_SHAPE_REPRESENTATION('',(#14),#1374);
#13=STYLED_ITEM('',(#1392),#14);
#14=MANIFOLD_SOLID_BREP('Solid1',#611);
#15=SPHERICAL_SURFACE('',#675,1.);
#16=SPHERICAL_SURFACE('',#677,1.);
#17=SPHERICAL_SURFACE('',#683,1.);
#18=SPHERICAL_SURFACE('',#685,1.);
#19=FACE_BOUND('',#205,.T.);
#20=FACE_BOUND('',#207,.T.);
#21=PLANE('',#646);
#22=PLANE('',#650);
#23=PLANE('',#651);
#24=PLANE('',#654);
#25=PLANE('',#657);
#26=PLANE('',#658);
#27=PLANE('',#663);
#28=PLANE('',#664);
#29=PLANE('',#665);
#30=PLANE('',#666);
#31=PLANE('',#667);
#32=PLANE('',#668);
#33=PLANE('',#669);
#34=PLANE('',#670);
#35=PLANE('',#671);
#36=LINE('',#982,#88);
#37=LINE('',#983,#89);
#38=LINE('',#1053,#90);
#39=LINE('',#1178,#91);
#40=LINE('',#1179,#92);
#41=LINE('',#1250,#93);
#42=LINE('',#1256,#94);
#43=LINE('',#1258,#95);
#44=LINE('',#1260,#96);
#45=LINE('',#1261,#97);
#46=LINE('',#1262,#98);
#47=LINE('',#1265,#99);
#48=LINE('',#1268,#100);
#49=LINE('',#1270,#101);
#50=LINE('',#1272,#102);
#51=LINE('',#1275,#103);
#52=LINE('',#1278,#104);
#53=LINE('',#1281,#105);
#54=LINE('',#1282,#106);
#55=LINE('',#1285,#107);
#56=LINE('',#1289,#108);
#57=LINE('',#1290,#109);
#58=LINE('',#1293,#110);
#59=LINE('',#1295,#111);
#60=LINE('',#1297,#112);
#61=LINE('',#1299,#113);
#62=LINE('',#1301,#114);
#63=LINE('',#1303,#115);
#64=LINE('',#1305,#116);
#65=LINE('',#1306,#117);
#66=LINE('',#1309,#118);
#67=LINE('',#1310,#119);
#68=LINE('',#1313,#120);
#69=LINE('',#1315,#121);
#70=LINE('',#1317,#122);
#71=LINE('',#1319,#123);
#72=LINE('',#1321,#124);
#73=LINE('',#1323,#125);
#74=LINE('',#1325,#126);
#75=LINE('',#1326,#127);
#76=LINE('',#1334,#128);
#77=LINE('',#1336,#129);
#78=LINE('',#1338,#130);
#79=LINE('',#1339,#131);
#80=LINE('',#1341,#132);
#81=LINE('',#1342,#133);
#82=LINE('',#1344,#134);
#83=LINE('',#1346,#135);
#84=LINE('',#1348,#136);
#85=LINE('',#1350,#137);
#86=LINE('',#1352,#138);
#87=LINE('',#1354,#139);
#88=VECTOR('',#696,10.);
#89=VECTOR('',#697,10.);
#90=VECTOR('',#702,10.);
#91=VECTOR('',#711,10.);
#92=VECTOR('',#712,10.);
#93=VECTOR('',#717,10.);
#94=VECTOR('',#724,10.);
#95=VECTOR('',#725,1000.);
#96=VECTOR('',#726,1000.);
#97=VECTOR('',#727,1000.);
#98=VECTOR('',#728,10.);
#99=VECTOR('',#731,10.);
#100=VECTOR('',#734,10.);
#101=VECTOR('',#737,10.);
#102=VECTOR('',#740,10.);
#103=VECTOR('',#743,1000.);
#104=VECTOR('',#746,1000.);
#105=VECTOR('',#749,1000.);
#106=VECTOR('',#750,1000.);
#107=VECTOR('',#753,1000.);
#108=VECTOR('',#758,1000.);
#109=VECTOR('',#759,1000.);
#110=VECTOR('',#760,1000.);
#111=VECTOR('',#761,1000.);
#112=VECTOR('',#762,1000.);
#113=VECTOR('',#763,1000.);
#114=VECTOR('',#764,1000.);
#115=VECTOR('',#765,1000.);
#116=VECTOR('',#766,1000.);
#117=VECTOR('',#767,1000.);
#118=VECTOR('',#770,1000.);
#119=VECTOR('',#771,1000.);
#120=VECTOR('',#772,1000.);
#121=VECTOR('',#773,1000.);
#122=VECTOR('',#774,1000.);
#123=VECTOR('',#775,1000.);
#124=VECTOR('',#776,1000.);
#125=VECTOR('',#777,1000.);
#126=VECTOR('',#778,1000.);
#127=VECTOR('',#779,1000.);
#128=VECTOR('',#790,1000.);
#129=VECTOR('',#791,1000.);
#130=VECTOR('',#792,1000.);
#131=VECTOR('',#793,1000.);
#132=VECTOR('',#796,1000.);
#133=VECTOR('',#797,1000.);
#134=VECTOR('',#800,1000.);
#135=VECTOR('',#803,1000.);
#136=VECTOR('',#806,1000.);
#137=VECTOR('',#809,1000.);
#138=VECTOR('',#812,1000.);
#139=VECTOR('',#815,1000.);
#140=CYLINDRICAL_SURFACE('',#635,2.);
#141=CYLINDRICAL_SURFACE('',#637,6.55);
#142=CYLINDRICAL_SURFACE('',#641,2.);
#143=CYLINDRICAL_SURFACE('',#643,6.55);
#144=CYLINDRICAL_SURFACE('',#648,4.85);
#145=CYLINDRICAL_SURFACE('',#652,1.);
#146=CYLINDRICAL_SURFACE('',#655,1.);
#147=CYLINDRICAL_SURFACE('',#659,1.);
#148=CYLINDRICAL_SURFACE('',#661,1.);
#149=CYLINDRICAL_SURFACE('',#672,1.);
#150=CYLINDRICAL_SURFACE('',#679,1.);
#151=CYLINDRICAL_SURFACE('',#681,1.);
#152=CYLINDRICAL_SURFACE('',#687,1.);
#153=FACE_OUTER_BOUND('',#189,.T.);
#154=FACE_OUTER_BOUND('',#190,.T.);
#155=FACE_OUTER_BOUND('',#191,.T.);
#156=FACE_OUTER_BOUND('',#192,.T.);
#157=FACE_OUTER_BOUND('',#193,.T.);
#158=FACE_OUTER_BOUND('',#194,.T.);
#159=FACE_OUTER_BOUND('',#195,.T.);
#160=FACE_OUTER_BOUND('',#196,.T.);
#161=FACE_OUTER_BOUND('',#197,.T.);
#162=FACE_OUTER_BOUND('',#198,.T.);
#163=FACE_OUTER_BOUND('',#199,.T.);
#164=FACE_OUTER_BOUND('',#200,.T.);
#165=FACE_OUTER_BOUND('',#201,.T.);
#166=FACE_OUTER_BOUND('',#202,.T.);
#167=FACE_OUTER_BOUND('',#203,.T.);
#168=FACE_OUTER_BOUND('',#204,.T.);
#169=FACE_OUTER_BOUND('',#206,.T.);
#170=FACE_OUTER_BOUND('',#208,.T.);
#171=FACE_OUTER_BOUND('',#209,.T.);
#172=FACE_OUTER_BOUND('',#210,.T.);
#173=FACE_OUTER_BOUND('',#211,.T.);
#174=FACE_OUTER_BOUND('',#212,.T.);
#175=FACE_OUTER_BOUND('',#213,.T.);
#176=FACE_OUTER_BOUND('',#214,.T.);
#177=FACE_OUTER_BOUND('',#215,.T.);
#178=FACE_OUTER_BOUND('',#216,.T.);
#179=FACE_OUTER_BOUND('',#217,.T.);
#180=FACE_OUTER_BOUND('',#218,.T.);
#181=FACE_OUTER_BOUND('',#219,.T.);
#182=FACE_OUTER_BOUND('',#220,.T.);
#183=FACE_OUTER_BOUND('',#221,.T.);
#184=FACE_OUTER_BOUND('',#222,.T.);
#185=FACE_OUTER_BOUND('',#223,.T.);
#186=FACE_OUTER_BOUND('',#224,.T.);
#187=FACE_OUTER_BOUND('',#225,.T.);
#188=FACE_OUTER_BOUND('',#226,.T.);
#189=EDGE_LOOP('',(#399,#400,#401,#402));
#190=EDGE_LOOP('',(#403,#404,#405,#406));
#191=EDGE_LOOP('',(#407,#408,#409,#410));
#192=EDGE_LOOP('',(#411,#412,#413,#414,#415,#416));
#193=EDGE_LOOP('',(#417,#418,#419,#420));
#194=EDGE_LOOP('',(#421,#422,#423,#424));
#195=EDGE_LOOP('',(#425,#426,#427,#428));
#196=EDGE_LOOP('',(#429,#430,#431,#432,#433,#434));
#197=EDGE_LOOP('',(#435,#436,#437,#438,#439,#440,#441,#442,#443,#444));
#198=EDGE_LOOP('',(#445,#446,#447,#448));
#199=EDGE_LOOP('',(#449,#450,#451,#452));
#200=EDGE_LOOP('',(#453,#454,#455,#456));
#201=EDGE_LOOP('',(#457,#458,#459,#460));
#202=EDGE_LOOP('',(#461,#462,#463,#464,#465,#466,#467,#468,#469,#470));
#203=EDGE_LOOP('',(#471,#472,#473,#474));
#204=EDGE_LOOP('',(#475,#476,#477,#478));
#205=EDGE_LOOP('',(#479,#480,#481,#482,#483,#484,#485,#486));
#206=EDGE_LOOP('',(#487,#488,#489,#490));
#207=EDGE_LOOP('',(#491,#492,#493,#494,#495,#496,#497,#498));
#208=EDGE_LOOP('',(#499,#500,#501,#502));
#209=EDGE_LOOP('',(#503,#504,#505,#506));
#210=EDGE_LOOP('',(#507,#508,#509,#510));
#211=EDGE_LOOP('',(#511,#512,#513,#514));
#212=EDGE_LOOP('',(#515,#516,#517,#518));
#213=EDGE_LOOP('',(#519,#520,#521,#522));
#214=EDGE_LOOP('',(#523,#524,#525,#526));
#215=EDGE_LOOP('',(#527,#528,#529,#530));
#216=EDGE_LOOP('',(#531,#532,#533,#534));
#217=EDGE_LOOP('',(#535,#536,#537,#538));
#218=EDGE_LOOP('',(#539,#540,#541,#542));
#219=EDGE_LOOP('',(#543,#544,#545,#546));
#220=EDGE_LOOP('',(#547,#548,#549));
#221=EDGE_LOOP('',(#550,#551,#552));
#222=EDGE_LOOP('',(#553,#554,#555,#556));
#223=EDGE_LOOP('',(#557,#558,#559,#560));
#224=EDGE_LOOP('',(#561,#562,#563));
#225=EDGE_LOOP('',(#564,#565,#566));
#226=EDGE_LOOP('',(#567,#568,#569,#570));
#227=B_SPLINE_CURVE_WITH_KNOTS('',3,(#895,#896,#897,#898,#899,#900,#901,
#902,#903,#904,#905,#906,#907,#908,#909,#910,#911,#912,#913,#914,#915,#916,
#917,#918,#919,#920,#921,#922,#923,#924,#925,#926,#927,#928,#929,#930,#931,
#932,#933,#934,#935,#936,#937,#938,#939,#940,#941,#942,#943,#944,#945,#946,
#947,#948,#949,#950,#951,#952,#953,#954,#955,#956,#957,#958,#959,#960,#961),
 .UNSPECIFIED.,.F.,.F.,(4,3,3,3,3,3,3,3,3,3,3,3,3,3,3,3,3,3,3,3,3,3,4),
(-2.24342945903464,-2.2332657076212,-2.22247777328875,-2.21822065037677,
-2.20119924644767,-2.18290511852436,-2.17761264301388,-2.15742293981018,
-2.15464500118326,-2.13157773883797,-2.11547216090229,-2.08005569960142,
-2.06581224178968,-2.02223364443313,-1.98915079098536,-1.97691452975139,
-1.9056047835995,-1.83373235115108,-1.79923243232654,-1.75844173425361,
-1.70005235306208,-1.64765656389107,-1.62169356161113),.UNSPECIFIED.);
#228=B_SPLINE_CURVE_WITH_KNOTS('',3,(#963,#964,#965,#966,#967,#968,#969,
#970,#971,#972),.UNSPECIFIED.,.F.,.F.,(4,2,2,2,4),(-0.00166234179047939,
0.,0.147849103229348,0.319758183344517,0.418100867591511),.UNSPECIFIED.);
#229=B_SPLINE_CURVE_WITH_KNOTS('',3,(#973,#974,#975,#976,#977),
 .UNSPECIFIED.,.F.,.F.,(4,1,4),(2.13111543659549,2.154610045117,2.24342945903464),
 .UNSPECIFIED.);
#230=B_SPLINE_CURVE_WITH_KNOTS('',3,(#1026,#1027,#1028,#1029,#1030,#1031,
#1032,#1033,#1034,#1035),.UNSPECIFIED.,.F.,.F.,(4,2,2,2,4),(0.,0.0657456426409306,
0.240772926626128,0.390220447826048,0.39171097258866),.UNSPECIFIED.);
#231=B_SPLINE_CURVE_WITH_KNOTS('',3,(#1036,#1037,#1038,#1039,#1040,#1041,
#1042,#1043),.UNSPECIFIED.,.F.,.F.,(4,1,1,1,1,4),(-2.86516535103386,-2.68752652474837,
-2.50988769846288,-2.42106828532013,-2.33224887217739,-2.24342945903464),
 .UNSPECIFIED.);
#232=B_SPLINE_CURVE_WITH_KNOTS('',3,(#1044,#1045,#1046,#1047,#1048),
 .UNSPECIFIED.,.F.,.F.,(4,1,4),(2.24342945903464,2.33224887217739,2.35571392754457),
 .UNSPECIFIED.);
#233=B_SPLINE_CURVE_WITH_KNOTS('',3,(#1094,#1095,#1096,#1097,#1098,#1099,
#1100,#1101,#1102,#1103,#1104,#1105,#1106,#1107,#1108,#1109,#1110,#1111,
#1112,#1113,#1114,#1115,#1116,#1117,#1118,#1119,#1120,#1121,#1122,#1123,
#1124,#1125,#1126,#1127,#1128,#1129,#1130,#1131,#1132,#1133,#1134,#1135,
#1136,#1137,#1138,#1139,#1140,#1141,#1142,#1143,#1144,#1145,#1146,#1147,
#1148,#1149,#1150,#1151,#1152,#1153,#1154,#1155,#1156,#1157),
 .UNSPECIFIED.,.F.,.F.,(4,3,3,3,3,3,3,3,3,3,3,3,3,3,3,3,3,3,3,3,3,4),(-2.24342945903464,
-2.23331908597887,-2.22258894544309,-2.21822065037677,-2.20118197265771,
-2.18291430572581,-2.17761264301389,-2.15709856063814,-2.15461556904195,
-2.13177337286242,-2.11547216090229,-2.0684274438617,-2.06571729496967,
-2.00716116828506,-1.98915079098536,-1.9252919750778,-1.8880338115129,-1.82149779856796,
-1.75844173425361,-1.70567841289325,-1.65812239923988,-1.62169356161113),
 .UNSPECIFIED.);
#234=B_SPLINE_CURVE_WITH_KNOTS('',3,(#1159,#1160,#1161,#1162,#1163,#1164,
#1165,#1166,#1167,#1168),.UNSPECIFIED.,.F.,.F.,(4,2,2,2,4),(-0.00166234153401657,
0.,0.147849098682185,0.319758221964881,0.418100930914792),.UNSPECIFIED.);
#235=B_SPLINE_CURVE_WITH_KNOTS('',3,(#1169,#1170,#1171,#1172,#1173),
 .UNSPECIFIED.,.F.,.F.,(4,1,4),(2.13112202050782,2.154610045117,2.24342945903464),
 .UNSPECIFIED.);
#236=B_SPLINE_CURVE_WITH_KNOTS('',3,(#1222,#1223,#1224,#1225,#1226,#1227,
#1228,#1229,#1230,#1231),.UNSPECIFIED.,.F.,.F.,(4,2,2,2,4),(0.,0.0657456426409333,
0.240772926712496,0.390220461235503,0.391710986307177),.UNSPECIFIED.);
#237=B_SPLINE_CURVE_WITH_KNOTS('',3,(#1232,#1233,#1234,#1235,#1236,#1237,
#1238,#1239),.UNSPECIFIED.,.F.,.F.,(4,1,1,1,1,4),(-2.86516535103386,-2.68752652474837,
-2.50988769846288,-2.33224887217739,-2.3100440188917,-2.24342945903464),
 .UNSPECIFIED.);
#238=B_SPLINE_CURVE_WITH_KNOTS('',3,(#1240,#1241,#1242,#1243,#1244,#1245),
 .UNSPECIFIED.,.F.,.F.,(4,1,1,4),(2.24342945903464,2.3100440188917,2.33224887217739,
2.3557281008539),.UNSPECIFIED.);
#239=CIRCLE('',#634,2.);
#240=CIRCLE('',#636,2.);
#241=CIRCLE('',#638,6.55);
#242=CIRCLE('',#639,6.55);
#243=CIRCLE('',#640,2.);
#244=CIRCLE('',#642,2.);
#245=CIRCLE('',#644,6.55);
#246=CIRCLE('',#645,6.55);
#247=CIRCLE('',#647,4.85);
#248=CIRCLE('',#649,4.85);
#249=CIRCLE('',#653,1.);
#250=CIRCLE('',#656,1.);
#251=CIRCLE('',#660,1.);
#252=CIRCLE('',#662,1.);
#253=CIRCLE('',#673,1.);
#254=CIRCLE('',#674,1.);
#255=CIRCLE('',#676,1.);
#256=CIRCLE('',#678,1.);
#257=CIRCLE('',#680,1.);
#258=CIRCLE('',#682,1.);
#259=CIRCLE('',#684,1.);
#260=CIRCLE('',#686,1.);
#261=VERTEX_POINT('',#891);
#262=VERTEX_POINT('',#892);
#263=VERTEX_POINT('',#894);
#264=VERTEX_POINT('',#962);
#265=VERTEX_POINT('',#979);
#266=VERTEX_POINT('',#980);
#267=VERTEX_POINT('',#1024);
#268=VERTEX_POINT('',#1025);
#269=VERTEX_POINT('',#1050);
#270=VERTEX_POINT('',#1052);
#271=VERTEX_POINT('',#1090);
#272=VERTEX_POINT('',#1091);
#273=VERTEX_POINT('',#1093);
#274=VERTEX_POINT('',#1158);
#275=VERTEX_POINT('',#1175);
#276=VERTEX_POINT('',#1176);
#277=VERTEX_POINT('',#1220);
#278=VERTEX_POINT('',#1221);
#279=VERTEX_POINT('',#1247);
#280=VERTEX_POINT('',#1249);
#281=VERTEX_POINT('',#1253);
#282=VERTEX_POINT('',#1254);
#283=VERTEX_POINT('',#1257);
#284=VERTEX_POINT('',#1259);
#285=VERTEX_POINT('',#1264);
#286=VERTEX_POINT('',#1266);
#287=VERTEX_POINT('',#1274);
#288=VERTEX_POINT('',#1276);
#289=VERTEX_POINT('',#1280);
#290=VERTEX_POINT('',#1284);
#291=VERTEX_POINT('',#1288);
#292=VERTEX_POINT('',#1291);
#293=VERTEX_POINT('',#1292);
#294=VERTEX_POINT('',#1294);
#295=VERTEX_POINT('',#1296);
#296=VERTEX_POINT('',#1298);
#297=VERTEX_POINT('',#1300);
#298=VERTEX_POINT('',#1302);
#299=VERTEX_POINT('',#1304);
#300=VERTEX_POINT('',#1308);
#301=VERTEX_POINT('',#1311);
#302=VERTEX_POINT('',#1312);
#303=VERTEX_POINT('',#1314);
#304=VERTEX_POINT('',#1316);
#305=VERTEX_POINT('',#1318);
#306=VERTEX_POINT('',#1320);
#307=VERTEX_POINT('',#1322);
#308=VERTEX_POINT('',#1324);
#309=VERTEX_POINT('',#1332);
#310=VERTEX_POINT('',#1333);
#311=VERTEX_POINT('',#1335);
#312=VERTEX_POINT('',#1337);
#313=EDGE_CURVE('',#261,#262,#239,.T.);
#314=EDGE_CURVE('',#262,#263,#227,.T.);
#315=EDGE_CURVE('',#263,#264,#228,.T.);
#316=EDGE_CURVE('',#264,#261,#229,.T.);
#317=EDGE_CURVE('',#265,#266,#240,.T.);
#318=EDGE_CURVE('',#266,#262,#36,.T.);
#319=EDGE_CURVE('',#261,#265,#37,.T.);
#320=EDGE_CURVE('',#267,#268,#230,.T.);
#321=EDGE_CURVE('',#268,#266,#231,.T.);
#322=EDGE_CURVE('',#265,#267,#232,.T.);
#323=EDGE_CURVE('',#269,#264,#241,.T.);
#324=EDGE_CURVE('',#269,#270,#38,.T.);
#325=EDGE_CURVE('',#267,#270,#242,.T.);
#326=EDGE_CURVE('',#271,#272,#243,.T.);
#327=EDGE_CURVE('',#272,#273,#233,.T.);
#328=EDGE_CURVE('',#273,#274,#234,.T.);
#329=EDGE_CURVE('',#274,#271,#235,.T.);
#330=EDGE_CURVE('',#275,#276,#244,.T.);
#331=EDGE_CURVE('',#276,#272,#39,.T.);
#332=EDGE_CURVE('',#271,#275,#40,.T.);
#333=EDGE_CURVE('',#277,#278,#236,.T.);
#334=EDGE_CURVE('',#278,#276,#237,.T.);
#335=EDGE_CURVE('',#275,#277,#238,.T.);
#336=EDGE_CURVE('',#279,#274,#245,.T.);
#337=EDGE_CURVE('',#280,#279,#41,.T.);
#338=EDGE_CURVE('',#277,#280,#246,.T.);
#339=EDGE_CURVE('',#281,#282,#247,.T.);
#340=EDGE_CURVE('',#282,#279,#42,.T.);
#341=EDGE_CURVE('',#273,#283,#43,.T.);
#342=EDGE_CURVE('',#283,#284,#44,.T.);
#343=EDGE_CURVE('',#284,#268,#45,.T.);
#344=EDGE_CURVE('',#270,#281,#46,.T.);
#345=EDGE_CURVE('',#285,#281,#47,.T.);
#346=EDGE_CURVE('',#286,#285,#248,.T.);
#347=EDGE_CURVE('',#286,#282,#48,.T.);
#348=EDGE_CURVE('',#285,#269,#49,.T.);
#349=EDGE_CURVE('',#280,#286,#50,.T.);
#350=EDGE_CURVE('',#287,#278,#51,.T.);
#351=EDGE_CURVE('',#288,#287,#249,.T.);
#352=EDGE_CURVE('',#276,#288,#52,.T.);
#353=EDGE_CURVE('',#263,#289,#53,.T.);
#354=EDGE_CURVE('',#289,#287,#54,.T.);
#355=EDGE_CURVE('',#290,#262,#55,.T.);
#356=EDGE_CURVE('',#289,#290,#250,.T.);
#357=EDGE_CURVE('',#288,#291,#56,.T.);
#358=EDGE_CURVE('',#291,#272,#57,.T.);
#359=EDGE_CURVE('',#292,#293,#58,.T.);
#360=EDGE_CURVE('',#294,#292,#59,.T.);
#361=EDGE_CURVE('',#295,#294,#60,.T.);
#362=EDGE_CURVE('',#296,#295,#61,.T.);
#363=EDGE_CURVE('',#297,#296,#62,.T.);
#364=EDGE_CURVE('',#298,#297,#63,.T.);
#365=EDGE_CURVE('',#299,#298,#64,.T.);
#366=EDGE_CURVE('',#293,#299,#65,.T.);
#367=EDGE_CURVE('',#266,#300,#66,.T.);
#368=EDGE_CURVE('',#300,#290,#67,.T.);
#369=EDGE_CURVE('',#301,#302,#68,.T.);
#370=EDGE_CURVE('',#303,#301,#69,.T.);
#371=EDGE_CURVE('',#304,#303,#70,.T.);
#372=EDGE_CURVE('',#305,#304,#71,.T.);
#373=EDGE_CURVE('',#306,#305,#72,.T.);
#374=EDGE_CURVE('',#307,#306,#73,.T.);
#375=EDGE_CURVE('',#308,#307,#74,.T.);
#376=EDGE_CURVE('',#302,#308,#75,.T.);
#377=EDGE_CURVE('',#283,#291,#251,.T.);
#378=EDGE_CURVE('',#300,#284,#252,.T.);
#379=EDGE_CURVE('',#309,#310,#76,.T.);
#380=EDGE_CURVE('',#310,#311,#77,.T.);
#381=EDGE_CURVE('',#311,#312,#78,.T.);
#382=EDGE_CURVE('',#312,#309,#79,.T.);
#383=EDGE_CURVE('',#301,#293,#80,.T.);
#384=EDGE_CURVE('',#302,#292,#81,.T.);
#385=EDGE_CURVE('',#303,#299,#82,.T.);
#386=EDGE_CURVE('',#304,#298,#83,.T.);
#387=EDGE_CURVE('',#305,#297,#84,.T.);
#388=EDGE_CURVE('',#306,#296,#85,.T.);
#389=EDGE_CURVE('',#307,#295,#86,.T.);
#390=EDGE_CURVE('',#308,#294,#87,.T.);
#391=EDGE_CURVE('',#284,#312,#253,.T.);
#392=EDGE_CURVE('',#309,#283,#254,.T.);
#393=EDGE_CURVE('',#300,#312,#255,.T.);
#394=EDGE_CURVE('',#309,#291,#256,.T.);
#395=EDGE_CURVE('',#290,#311,#257,.T.);
#396=EDGE_CURVE('',#310,#288,#258,.T.);
#397=EDGE_CURVE('',#289,#311,#259,.T.);
#398=EDGE_CURVE('',#310,#287,#260,.T.);
#399=ORIENTED_EDGE('',*,*,#313,.T.);
#400=ORIENTED_EDGE('',*,*,#314,.T.);
#401=ORIENTED_EDGE('',*,*,#315,.T.);
#402=ORIENTED_EDGE('',*,*,#316,.T.);
#403=ORIENTED_EDGE('',*,*,#317,.T.);
#404=ORIENTED_EDGE('',*,*,#318,.T.);
#405=ORIENTED_EDGE('',*,*,#313,.F.);
#406=ORIENTED_EDGE('',*,*,#319,.T.);
#407=ORIENTED_EDGE('',*,*,#320,.T.);
#408=ORIENTED_EDGE('',*,*,#321,.T.);
#409=ORIENTED_EDGE('',*,*,#317,.F.);
#410=ORIENTED_EDGE('',*,*,#322,.T.);
#411=ORIENTED_EDGE('',*,*,#322,.F.);
#412=ORIENTED_EDGE('',*,*,#319,.F.);
#413=ORIENTED_EDGE('',*,*,#316,.F.);
#414=ORIENTED_EDGE('',*,*,#323,.F.);
#415=ORIENTED_EDGE('',*,*,#324,.T.);
#416=ORIENTED_EDGE('',*,*,#325,.F.);
#417=ORIENTED_EDGE('',*,*,#326,.T.);
#418=ORIENTED_EDGE('',*,*,#327,.T.);
#419=ORIENTED_EDGE('',*,*,#328,.T.);
#420=ORIENTED_EDGE('',*,*,#329,.T.);
#421=ORIENTED_EDGE('',*,*,#330,.T.);
#422=ORIENTED_EDGE('',*,*,#331,.T.);
#423=ORIENTED_EDGE('',*,*,#326,.F.);
#424=ORIENTED_EDGE('',*,*,#332,.T.);
#425=ORIENTED_EDGE('',*,*,#333,.T.);
#426=ORIENTED_EDGE('',*,*,#334,.T.);
#427=ORIENTED_EDGE('',*,*,#330,.F.);
#428=ORIENTED_EDGE('',*,*,#335,.T.);
#429=ORIENTED_EDGE('',*,*,#335,.F.);
#430=ORIENTED_EDGE('',*,*,#332,.F.);
#431=ORIENTED_EDGE('',*,*,#329,.F.);
#432=ORIENTED_EDGE('',*,*,#336,.F.);
#433=ORIENTED_EDGE('',*,*,#337,.F.);
#434=ORIENTED_EDGE('',*,*,#338,.F.);
#435=ORIENTED_EDGE('',*,*,#339,.T.);
#436=ORIENTED_EDGE('',*,*,#340,.T.);
#437=ORIENTED_EDGE('',*,*,#336,.T.);
#438=ORIENTED_EDGE('',*,*,#328,.F.);
#439=ORIENTED_EDGE('',*,*,#341,.T.);
#440=ORIENTED_EDGE('',*,*,#342,.T.);
#441=ORIENTED_EDGE('',*,*,#343,.T.);
#442=ORIENTED_EDGE('',*,*,#320,.F.);
#443=ORIENTED_EDGE('',*,*,#325,.T.);
#444=ORIENTED_EDGE('',*,*,#344,.T.);
#445=ORIENTED_EDGE('',*,*,#339,.F.);
#446=ORIENTED_EDGE('',*,*,#345,.F.);
#447=ORIENTED_EDGE('',*,*,#346,.F.);
#448=ORIENTED_EDGE('',*,*,#347,.T.);
#449=ORIENTED_EDGE('',*,*,#348,.F.);
#450=ORIENTED_EDGE('',*,*,#345,.T.);
#451=ORIENTED_EDGE('',*,*,#344,.F.);
#452=ORIENTED_EDGE('',*,*,#324,.F.);
#453=ORIENTED_EDGE('',*,*,#349,.F.);
#454=ORIENTED_EDGE('',*,*,#337,.T.);
#455=ORIENTED_EDGE('',*,*,#340,.F.);
#456=ORIENTED_EDGE('',*,*,#347,.F.);
#457=ORIENTED_EDGE('',*,*,#334,.F.);
#458=ORIENTED_EDGE('',*,*,#350,.F.);
#459=ORIENTED_EDGE('',*,*,#351,.F.);
#460=ORIENTED_EDGE('',*,*,#352,.F.);
#461=ORIENTED_EDGE('',*,*,#346,.T.);
#462=ORIENTED_EDGE('',*,*,#348,.T.);
#463=ORIENTED_EDGE('',*,*,#323,.T.);
#464=ORIENTED_EDGE('',*,*,#315,.F.);
#465=ORIENTED_EDGE('',*,*,#353,.T.);
#466=ORIENTED_EDGE('',*,*,#354,.T.);
#467=ORIENTED_EDGE('',*,*,#350,.T.);
#468=ORIENTED_EDGE('',*,*,#333,.F.);
#469=ORIENTED_EDGE('',*,*,#338,.T.);
#470=ORIENTED_EDGE('',*,*,#349,.T.);
#471=ORIENTED_EDGE('',*,*,#314,.F.);
#472=ORIENTED_EDGE('',*,*,#355,.F.);
#473=ORIENTED_EDGE('',*,*,#356,.F.);
#474=ORIENTED_EDGE('',*,*,#353,.F.);
#475=ORIENTED_EDGE('',*,*,#331,.F.);
#476=ORIENTED_EDGE('',*,*,#352,.T.);
#477=ORIENTED_EDGE('',*,*,#357,.T.);
#478=ORIENTED_EDGE('',*,*,#358,.T.);
#479=ORIENTED_EDGE('',*,*,#359,.F.);
#480=ORIENTED_EDGE('',*,*,#360,.F.);
#481=ORIENTED_EDGE('',*,*,#361,.F.);
#482=ORIENTED_EDGE('',*,*,#362,.F.);
#483=ORIENTED_EDGE('',*,*,#363,.F.);
#484=ORIENTED_EDGE('',*,*,#364,.F.);
#485=ORIENTED_EDGE('',*,*,#365,.F.);
#486=ORIENTED_EDGE('',*,*,#366,.F.);
#487=ORIENTED_EDGE('',*,*,#318,.F.);
#488=ORIENTED_EDGE('',*,*,#367,.T.);
#489=ORIENTED_EDGE('',*,*,#368,.T.);
#490=ORIENTED_EDGE('',*,*,#355,.T.);
#491=ORIENTED_EDGE('',*,*,#369,.F.);
#492=ORIENTED_EDGE('',*,*,#370,.F.);
#493=ORIENTED_EDGE('',*,*,#371,.F.);
#494=ORIENTED_EDGE('',*,*,#372,.F.);
#495=ORIENTED_EDGE('',*,*,#373,.F.);
#496=ORIENTED_EDGE('',*,*,#374,.F.);
#497=ORIENTED_EDGE('',*,*,#375,.F.);
#498=ORIENTED_EDGE('',*,*,#376,.F.);
#499=ORIENTED_EDGE('',*,*,#327,.F.);
#500=ORIENTED_EDGE('',*,*,#358,.F.);
#501=ORIENTED_EDGE('',*,*,#377,.F.);
#502=ORIENTED_EDGE('',*,*,#341,.F.);
#503=ORIENTED_EDGE('',*,*,#321,.F.);
#504=ORIENTED_EDGE('',*,*,#343,.F.);
#505=ORIENTED_EDGE('',*,*,#378,.F.);
#506=ORIENTED_EDGE('',*,*,#367,.F.);
#507=ORIENTED_EDGE('',*,*,#379,.T.);
#508=ORIENTED_EDGE('',*,*,#380,.T.);
#509=ORIENTED_EDGE('',*,*,#381,.T.);
#510=ORIENTED_EDGE('',*,*,#382,.T.);
#511=ORIENTED_EDGE('',*,*,#383,.F.);
#512=ORIENTED_EDGE('',*,*,#369,.T.);
#513=ORIENTED_EDGE('',*,*,#384,.T.);
#514=ORIENTED_EDGE('',*,*,#359,.T.);
#515=ORIENTED_EDGE('',*,*,#385,.F.);
#516=ORIENTED_EDGE('',*,*,#370,.T.);
#517=ORIENTED_EDGE('',*,*,#383,.T.);
#518=ORIENTED_EDGE('',*,*,#366,.T.);
#519=ORIENTED_EDGE('',*,*,#386,.F.);
#520=ORIENTED_EDGE('',*,*,#371,.T.);
#521=ORIENTED_EDGE('',*,*,#385,.T.);
#522=ORIENTED_EDGE('',*,*,#365,.T.);
#523=ORIENTED_EDGE('',*,*,#387,.F.);
#524=ORIENTED_EDGE('',*,*,#372,.T.);
#525=ORIENTED_EDGE('',*,*,#386,.T.);
#526=ORIENTED_EDGE('',*,*,#364,.T.);
#527=ORIENTED_EDGE('',*,*,#388,.F.);
#528=ORIENTED_EDGE('',*,*,#373,.T.);
#529=ORIENTED_EDGE('',*,*,#387,.T.);
#530=ORIENTED_EDGE('',*,*,#363,.T.);
#531=ORIENTED_EDGE('',*,*,#389,.F.);
#532=ORIENTED_EDGE('',*,*,#374,.T.);
#533=ORIENTED_EDGE('',*,*,#388,.T.);
#534=ORIENTED_EDGE('',*,*,#362,.T.);
#535=ORIENTED_EDGE('',*,*,#390,.F.);
#536=ORIENTED_EDGE('',*,*,#375,.T.);
#537=ORIENTED_EDGE('',*,*,#389,.T.);
#538=ORIENTED_EDGE('',*,*,#361,.T.);
#539=ORIENTED_EDGE('',*,*,#384,.F.);
#540=ORIENTED_EDGE('',*,*,#376,.T.);
#541=ORIENTED_EDGE('',*,*,#390,.T.);
#542=ORIENTED_EDGE('',*,*,#360,.T.);
#543=ORIENTED_EDGE('',*,*,#391,.F.);
#544=ORIENTED_EDGE('',*,*,#342,.F.);
#545=ORIENTED_EDGE('',*,*,#392,.F.);
#546=ORIENTED_EDGE('',*,*,#382,.F.);
#547=ORIENTED_EDGE('',*,*,#378,.T.);
#548=ORIENTED_EDGE('',*,*,#391,.T.);
#549=ORIENTED_EDGE('',*,*,#393,.F.);
#550=ORIENTED_EDGE('',*,*,#392,.T.);
#551=ORIENTED_EDGE('',*,*,#377,.T.);
#552=ORIENTED_EDGE('',*,*,#394,.F.);
#553=ORIENTED_EDGE('',*,*,#393,.T.);
#554=ORIENTED_EDGE('',*,*,#381,.F.);
#555=ORIENTED_EDGE('',*,*,#395,.F.);
#556=ORIENTED_EDGE('',*,*,#368,.F.);
#557=ORIENTED_EDGE('',*,*,#394,.T.);
#558=ORIENTED_EDGE('',*,*,#357,.F.);
#559=ORIENTED_EDGE('',*,*,#396,.F.);
#560=ORIENTED_EDGE('',*,*,#379,.F.);
#561=ORIENTED_EDGE('',*,*,#356,.T.);
#562=ORIENTED_EDGE('',*,*,#395,.T.);
#563=ORIENTED_EDGE('',*,*,#397,.F.);
#564=ORIENTED_EDGE('',*,*,#396,.T.);
#565=ORIENTED_EDGE('',*,*,#351,.T.);
#566=ORIENTED_EDGE('',*,*,#398,.F.);
#567=ORIENTED_EDGE('',*,*,#397,.T.);
#568=ORIENTED_EDGE('',*,*,#380,.F.);
#569=ORIENTED_EDGE('',*,*,#398,.T.);
#570=ORIENTED_EDGE('',*,*,#354,.F.);
#571=B_SPLINE_SURFACE_WITH_KNOTS('',3,3,((#851,#852,#853,#854,#855,#856,
#857,#858),(#859,#860,#861,#862,#863,#864,#865,#866),(#867,#868,#869,#870,
#871,#872,#873,#874),(#875,#876,#877,#878,#879,#880,#881,#882),(#883,#884,
#885,#886,#887,#888,#889,#890)),.UNSPECIFIED.,.F.,.F.,.F.,(4,1,4),(4,1,
1,1,1,4),(0.,0.571428571428571,1.),(1.62169356161113,1.79933238944642,1.97697121728171,
2.06579063119935,2.154610045117,2.24342945903464),.UNSPECIFIED.);
#572=B_SPLINE_SURFACE_WITH_KNOTS('',3,3,((#984,#985,#986,#987,#988,#989,
#990,#991),(#992,#993,#994,#995,#996,#997,#998,#999),(#1000,#1001,#1002,
#1003,#1004,#1005,#1006,#1007),(#1008,#1009,#1010,#1011,#1012,#1013,#1014,
#1015),(#1016,#1017,#1018,#1019,#1020,#1021,#1022,#1023)),.UNSPECIFIED.,
 .F.,.F.,.F.,(4,1,4),(4,1,1,1,1,4),(0.,0.571428571428571,1.),(2.24342945903464,
2.33224887217739,2.42106828532013,2.50988769846288,2.68752652474837,2.86516535103386),
 .UNSPECIFIED.);
#573=B_SPLINE_SURFACE_WITH_KNOTS('',3,3,((#1055,#1056,#1057,#1058,#1059,
#1060,#1061),(#1062,#1063,#1064,#1065,#1066,#1067,#1068),(#1069,#1070,#1071,
#1072,#1073,#1074,#1075),(#1076,#1077,#1078,#1079,#1080,#1081,#1082),(#1083,
#1084,#1085,#1086,#1087,#1088,#1089)),.UNSPECIFIED.,.F.,.F.,.F.,(4,1,4),
(4,1,1,1,4),(0.,0.571428571428571,1.),(1.62169356161113,1.88815180336406,
2.06579063119935,2.154610045117,2.24342945903464),.UNSPECIFIED.);
#574=B_SPLINE_SURFACE_WITH_KNOTS('',3,3,((#1180,#1181,#1182,#1183,#1184,
#1185,#1186,#1187),(#1188,#1189,#1190,#1191,#1192,#1193,#1194,#1195),(#1196,
#1197,#1198,#1199,#1200,#1201,#1202,#1203),(#1204,#1205,#1206,#1207,#1208,
#1209,#1210,#1211),(#1212,#1213,#1214,#1215,#1216,#1217,#1218,#1219)),
 .UNSPECIFIED.,.F.,.F.,.F.,(4,1,4),(4,1,1,1,1,4),(0.,0.571428571428571,
1.),(2.24342945903464,2.3100440188917,2.33224887217739,2.50988769846288,
2.68752652474837,2.86516535103386),.UNSPECIFIED.);
#575=ADVANCED_FACE('',(#153),#571,.T.);
#576=ADVANCED_FACE('',(#154),#140,.F.);
#577=ADVANCED_FACE('',(#155),#572,.T.);
#578=ADVANCED_FACE('',(#156),#141,.T.);
#579=ADVANCED_FACE('',(#157),#573,.T.);
#580=ADVANCED_FACE('',(#158),#142,.F.);
#581=ADVANCED_FACE('',(#159),#574,.T.);
#582=ADVANCED_FACE('',(#160),#143,.T.);
#583=ADVANCED_FACE('',(#161),#21,.F.);
#584=ADVANCED_FACE('',(#162),#144,.F.);
#585=ADVANCED_FACE('',(#163),#22,.T.);
#586=ADVANCED_FACE('',(#164),#23,.T.);
#587=ADVANCED_FACE('',(#165),#145,.T.);
#588=ADVANCED_FACE('',(#166),#24,.T.);
#589=ADVANCED_FACE('',(#167),#146,.T.);
#590=ADVANCED_FACE('',(#168,#19),#25,.F.);
#591=ADVANCED_FACE('',(#169,#20),#26,.F.);
#592=ADVANCED_FACE('',(#170),#147,.T.);
#593=ADVANCED_FACE('',(#171),#148,.T.);
#594=ADVANCED_FACE('',(#172),#27,.T.);
#595=ADVANCED_FACE('',(#173),#28,.F.);
#596=ADVANCED_FACE('',(#174),#29,.F.);
#597=ADVANCED_FACE('',(#175),#30,.F.);
#598=ADVANCED_FACE('',(#176),#31,.F.);
#599=ADVANCED_FACE('',(#177),#32,.F.);
#600=ADVANCED_FACE('',(#178),#33,.F.);
#601=ADVANCED_FACE('',(#179),#34,.F.);
#602=ADVANCED_FACE('',(#180),#35,.F.);
#603=ADVANCED_FACE('',(#181),#149,.T.);
#604=ADVANCED_FACE('',(#182),#15,.T.);
#605=ADVANCED_FACE('',(#183),#16,.T.);
#606=ADVANCED_FACE('',(#184),#150,.T.);
#607=ADVANCED_FACE('',(#185),#151,.T.);
#608=ADVANCED_FACE('',(#186),#17,.T.);
#609=ADVANCED_FACE('',(#187),#18,.T.);
#610=ADVANCED_FACE('',(#188),#152,.T.);
#611=CLOSED_SHELL('',(#575,#576,#577,#578,#579,#580,#581,#582,#583,#584,
#585,#586,#587,#588,#589,#590,#591,#592,#593,#594,#595,#596,#597,#598,#599,
#600,#601,#602,#603,#604,#605,#606,#607,#608,#609,#610));
#612=DERIVED_UNIT_ELEMENT(#615,1.);
#613=DERIVED_UNIT_ELEMENT(#1377,-3.);
#614=DIMENSIONAL_EXPONENTS(0.,1.,0.,0.,0.,0.,0.);
#615=(
CONVERSION_BASED_UNIT('gram',#617)
MASS_UNIT()
NAMED_UNIT(#614)
);
#616=(
MASS_UNIT()
NAMED_UNIT(*)
SI_UNIT(.KILO.,.GRAM.)
);
#617=MASS_MEASURE_WITH_UNIT(MASS_MEASURE(0.001),#616);
#618=DERIVED_UNIT((#612,#613));
#619=MEASURE_REPRESENTATION_ITEM('density measure',
POSITIVE_RATIO_MEASURE(1.),#618);
#620=PROPERTY_DEFINITION_REPRESENTATION(#625,#622);
#621=PROPERTY_DEFINITION_REPRESENTATION(#626,#623);
#622=REPRESENTATION('material name',(#624),#1374);
#623=REPRESENTATION('density',(#619),#1374);
#624=DESCRIPTIVE_REPRESENTATION_ITEM('Generic','Generic');
#625=PROPERTY_DEFINITION('material property','material name',#1384);
#626=PROPERTY_DEFINITION('material property','density of part',#1384);
#627=DATE_TIME_ROLE('creation_date');
#628=APPLIED_DATE_AND_TIME_ASSIGNMENT(#629,#627,(#1384));
#629=DATE_AND_TIME(#630,#631);
#630=CALENDAR_DATE(2026,8,9);
#631=LOCAL_TIME(23,5,55.,#632);
#632=COORDINATED_UNIVERSAL_TIME_OFFSET(0,0,.BEHIND.);
#633=AXIS2_PLACEMENT_3D('',#850,#688,#689);
#634=AXIS2_PLACEMENT_3D('',#893,#690,#691);
#635=AXIS2_PLACEMENT_3D('',#978,#692,#693);
#636=AXIS2_PLACEMENT_3D('',#981,#694,#695);
#637=AXIS2_PLACEMENT_3D('',#1049,#698,#699);
#638=AXIS2_PLACEMENT_3D('',#1051,#700,#701);
#639=AXIS2_PLACEMENT_3D('',#1054,#703,#704);
#640=AXIS2_PLACEMENT_3D('',#1092,#705,#706);
#641=AXIS2_PLACEMENT_3D('',#1174,#707,#708);
#642=AXIS2_PLACEMENT_3D('',#1177,#709,#710);
#643=AXIS2_PLACEMENT_3D('',#1246,#713,#714);
#644=AXIS2_PLACEMENT_3D('',#1248,#715,#716);
#645=AXIS2_PLACEMENT_3D('',#1251,#718,#719);
#646=AXIS2_PLACEMENT_3D('',#1252,#720,#721);
#647=AXIS2_PLACEMENT_3D('',#1255,#722,#723);
#648=AXIS2_PLACEMENT_3D('',#1263,#729,#730);
#649=AXIS2_PLACEMENT_3D('',#1267,#732,#733);
#650=AXIS2_PLACEMENT_3D('',#1269,#735,#736);
#651=AXIS2_PLACEMENT_3D('',#1271,#738,#739);
#652=AXIS2_PLACEMENT_3D('',#1273,#741,#742);
#653=AXIS2_PLACEMENT_3D('',#1277,#744,#745);
#654=AXIS2_PLACEMENT_3D('',#1279,#747,#748);
#655=AXIS2_PLACEMENT_3D('',#1283,#751,#752);
#656=AXIS2_PLACEMENT_3D('',#1286,#754,#755);
#657=AXIS2_PLACEMENT_3D('',#1287,#756,#757);
#658=AXIS2_PLACEMENT_3D('',#1307,#768,#769);
#659=AXIS2_PLACEMENT_3D('',#1327,#780,#781);
#660=AXIS2_PLACEMENT_3D('',#1328,#782,#783);
#661=AXIS2_PLACEMENT_3D('',#1329,#784,#785);
#662=AXIS2_PLACEMENT_3D('',#1330,#786,#787);
#663=AXIS2_PLACEMENT_3D('',#1331,#788,#789);
#664=AXIS2_PLACEMENT_3D('',#1340,#794,#795);
#665=AXIS2_PLACEMENT_3D('',#1343,#798,#799);
#666=AXIS2_PLACEMENT_3D('',#1345,#801,#802);
#667=AXIS2_PLACEMENT_3D('',#1347,#804,#805);
#668=AXIS2_PLACEMENT_3D('',#1349,#807,#808);
#669=AXIS2_PLACEMENT_3D('',#1351,#810,#811);
#670=AXIS2_PLACEMENT_3D('',#1353,#813,#814);
#671=AXIS2_PLACEMENT_3D('',#1355,#816,#817);
#672=AXIS2_PLACEMENT_3D('',#1356,#818,#819);
#673=AXIS2_PLACEMENT_3D('',#1357,#820,#821);
#674=AXIS2_PLACEMENT_3D('',#1358,#822,#823);
#675=AXIS2_PLACEMENT_3D('',#1359,#824,#825);
#676=AXIS2_PLACEMENT_3D('',#1360,#826,#827);
#677=AXIS2_PLACEMENT_3D('',#1361,#828,#829);
#678=AXIS2_PLACEMENT_3D('',#1362,#830,#831);
#679=AXIS2_PLACEMENT_3D('',#1363,#832,#833);
#680=AXIS2_PLACEMENT_3D('',#1364,#834,#835);
#681=AXIS2_PLACEMENT_3D('',#1365,#836,#837);
#682=AXIS2_PLACEMENT_3D('',#1366,#838,#839);
#683=AXIS2_PLACEMENT_3D('',#1367,#840,#841);
#684=AXIS2_PLACEMENT_3D('',#1368,#842,#843);
#685=AXIS2_PLACEMENT_3D('',#1369,#844,#845);
#686=AXIS2_PLACEMENT_3D('',#1370,#846,#847);
#687=AXIS2_PLACEMENT_3D('',#1371,#848,#849);
#688=DIRECTION('axis',(0.,0.,1.));
#689=DIRECTION('refdir',(1.,0.,0.));
#690=DIRECTION('center_axis',(-1.,2.55749439505809E-14,-2.22044604925032E-15));
#691=DIRECTION('ref_axis',(-1.11022302462516E-14,-0.352869586936739,0.935672514619883));
#692=DIRECTION('center_axis',(-1.,0.,0.));
#693=DIRECTION('ref_axis',(0.,-0.179342528949657,0.983786692992918));
#694=DIRECTION('center_axis',(-1.,0.,0.));
#695=DIRECTION('ref_axis',(0.,-0.352869586936739,0.935672514619883));
#696=DIRECTION('',(1.,0.,0.));
#697=DIRECTION('',(-1.,0.,0.));
#698=DIRECTION('center_axis',(-1.,0.,0.));
#699=DIRECTION('ref_axis',(0.,-0.832892294377939,-0.553435114503817));
#700=DIRECTION('center_axis',(1.,0.,0.));
#701=DIRECTION('ref_axis',(0.,-0.832892294377939,-0.553435114503817));
#702=DIRECTION('',(-1.,0.,0.));
#703=DIRECTION('center_axis',(-1.,0.,0.));
#704=DIRECTION('ref_axis',(0.,-0.832892294377939,-0.553435114503817));
#705=DIRECTION('center_axis',(1.,0.,0.));
#706=DIRECTION('ref_axis',(0.,-0.352869586936739,-0.935672514619883));
#707=DIRECTION('center_axis',(1.,0.,0.));
#708=DIRECTION('ref_axis',(0.,-0.179342528949656,-0.983786692992918));
#709=DIRECTION('center_axis',(1.,0.,0.));
#710=DIRECTION('ref_axis',(0.,-0.352869586936738,-0.935672514619883));
#711=DIRECTION('',(-1.,0.,0.));
#712=DIRECTION('',(1.,0.,0.));
#713=DIRECTION('center_axis',(-1.,0.,0.));
#714=DIRECTION('ref_axis',(0.,-0.832892294377939,-0.553435114503817));
#715=DIRECTION('center_axis',(-1.,0.,0.));
#716=DIRECTION('ref_axis',(0.,-0.832892294377939,-0.553435114503817));
#717=DIRECTION('',(-1.,0.,0.));
#718=DIRECTION('center_axis',(1.,0.,0.));
#719=DIRECTION('ref_axis',(0.,-0.832892294377939,-0.553435114503817));
#720=DIRECTION('center_axis',(1.,0.,0.));
#721=DIRECTION('ref_axis',(0.,0.,-1.));
#722=DIRECTION('center_axis',(1.,0.,0.));
#723=DIRECTION('ref_axis',(0.,-0.66434880658069,-0.747422680412371));
#724=DIRECTION('',(0.,-1.,1.33108491680349E-16));
#725=DIRECTION('',(0.,1.,9.59270492766576E-17));
#726=DIRECTION('',(0.,0.,-1.));
#727=DIRECTION('',(0.,-1.,9.59270492766576E-17));
#728=DIRECTION('',(0.,1.,-3.81663716932392E-16));
#729=DIRECTION('center_axis',(-1.,0.,0.));
#730=DIRECTION('ref_axis',(0.,0.66434880658069,0.747422680412371));
#731=DIRECTION('',(-1.,0.,0.));
#732=DIRECTION('center_axis',(-1.,0.,0.));
#733=DIRECTION('ref_axis',(0.,0.66434880658069,0.747422680412371));
#734=DIRECTION('',(-1.,0.,0.));
#735=DIRECTION('center_axis',(0.,3.81663716932392E-16,1.));
#736=DIRECTION('ref_axis',(0.,1.,-3.81663716932392E-16));
#737=DIRECTION('',(0.,-1.,3.81663716932392E-16));
#738=DIRECTION('center_axis',(0.,-1.33108491680349E-16,-1.));
#739=DIRECTION('ref_axis',(0.,-1.,1.33108491680349E-16));
#740=DIRECTION('',(0.,1.,-1.33108491680349E-16));
#741=DIRECTION('center_axis',(0.,1.,9.59270492766576E-17));
#742=DIRECTION('ref_axis',(0.,-9.59270492766576E-17,1.));
#743=DIRECTION('',(0.,-1.,-9.59270492766576E-17));
#744=DIRECTION('center_axis',(0.,1.,0.));
#745=DIRECTION('ref_axis',(0.,0.,1.));
#746=DIRECTION('',(0.,1.,9.59270492766576E-17));
#747=DIRECTION('center_axis',(1.,0.,0.));
#748=DIRECTION('ref_axis',(0.,0.,-1.));
#749=DIRECTION('',(0.,1.,-9.59270492766576E-17));
#750=DIRECTION('',(0.,0.,1.));
#751=DIRECTION('center_axis',(0.,-1.,9.59270492766576E-17));
#752=DIRECTION('ref_axis',(0.,-9.59270492766576E-17,-1.));
#753=DIRECTION('',(0.,-1.,9.59270492766576E-17));
#754=DIRECTION('center_axis',(0.,1.,0.));
#755=DIRECTION('ref_axis',(0.,0.,1.));
#756=DIRECTION('center_axis',(0.,9.59270492766576E-17,-1.));
#757=DIRECTION('ref_axis',(0.,1.,9.59270492766576E-17));
#758=DIRECTION('',(-1.,0.,0.));
#759=DIRECTION('',(0.,-1.,-9.59270492766576E-17));
#760=DIRECTION('',(1.,3.77113799125393E-17,0.));
#761=DIRECTION('',(4.47670574445628E-16,-1.,0.));
#762=DIRECTION('',(1.,0.,0.));
#763=DIRECTION('',(0.,-1.,0.));
#764=DIRECTION('',(-1.,0.,0.));
#765=DIRECTION('',(0.,-1.,0.));
#766=DIRECTION('',(-1.,-1.50845519650157E-16,0.));
#767=DIRECTION('',(0.,1.,0.));
#768=DIRECTION('center_axis',(0.,9.59270492766576E-17,1.));
#769=DIRECTION('ref_axis',(0.,-1.,9.59270492766576E-17));
#770=DIRECTION('',(0.,1.,-9.59270492766576E-17));
#771=DIRECTION('',(1.,0.,0.));
#772=DIRECTION('',(-1.,-3.77113799125393E-17,3.61754139916091E-33));
#773=DIRECTION('',(0.,-1.,9.59270492766576E-17));
#774=DIRECTION('',(1.,1.50845519650157E-16,-1.44701655966436E-32));
#775=DIRECTION('',(0.,1.,-9.59270492766576E-17));
#776=DIRECTION('',(1.,0.,0.));
#777=DIRECTION('',(0.,1.,-9.59270492766576E-17));
#778=DIRECTION('',(-1.,0.,0.));
#779=DIRECTION('',(-4.47670574445628E-16,1.,-9.59270492766576E-17));
#780=DIRECTION('center_axis',(0.,-1.,-9.59270492766576E-17));
#781=DIRECTION('ref_axis',(0.,9.59270492766576E-17,-1.));
#782=DIRECTION('center_axis',(0.,1.,0.));
#783=DIRECTION('ref_axis',(0.,0.,1.));
#784=DIRECTION('center_axis',(0.,1.,-9.59270492766576E-17));
#785=DIRECTION('ref_axis',(0.,9.59270492766576E-17,1.));
#786=DIRECTION('center_axis',(0.,1.,0.));
#787=DIRECTION('ref_axis',(0.,0.,1.));
#788=DIRECTION('center_axis',(0.,1.,0.));
#789=DIRECTION('ref_axis',(0.,0.,1.));
#790=DIRECTION('',(1.,0.,0.));
#791=DIRECTION('',(0.,0.,-1.));
#792=DIRECTION('',(-1.,0.,0.));
#793=DIRECTION('',(0.,0.,1.));
#794=DIRECTION('center_axis',(3.77113799125393E-17,-1.,0.));
#795=DIRECTION('ref_axis',(1.,3.77113799125393E-17,0.));
#796=DIRECTION('',(0.,0.,1.));
#797=DIRECTION('',(0.,0.,1.));
#798=DIRECTION('center_axis',(1.,0.,0.));
#799=DIRECTION('ref_axis',(0.,0.,-1.));
#800=DIRECTION('',(0.,0.,1.));
#801=DIRECTION('center_axis',(-1.50845519650157E-16,1.,0.));
#802=DIRECTION('ref_axis',(-1.,-1.50845519650157E-16,0.));
#803=DIRECTION('',(0.,0.,1.));
#804=DIRECTION('center_axis',(-1.,0.,0.));
#805=DIRECTION('ref_axis',(0.,0.,1.));
#806=DIRECTION('',(0.,0.,1.));
#807=DIRECTION('center_axis',(0.,1.,0.));
#808=DIRECTION('ref_axis',(0.,0.,1.));
#809=DIRECTION('',(0.,0.,1.));
#810=DIRECTION('center_axis',(-1.,0.,0.));
#811=DIRECTION('ref_axis',(0.,0.,1.));
#812=DIRECTION('',(0.,0.,1.));
#813=DIRECTION('center_axis',(0.,-1.,0.));
#814=DIRECTION('ref_axis',(0.,0.,-1.));
#815=DIRECTION('',(0.,0.,1.));
#816=DIRECTION('center_axis',(-1.,-4.47670574445628E-16,0.));
#817=DIRECTION('ref_axis',(4.47670574445628E-16,-1.,0.));
#818=DIRECTION('center_axis',(0.,0.,-1.));
#819=DIRECTION('ref_axis',(-1.,0.,0.));
#820=DIRECTION('center_axis',(0.,0.,-1.));
#821=DIRECTION('ref_axis',(-1.,0.,0.));
#822=DIRECTION('center_axis',(0.,0.,1.));
#823=DIRECTION('ref_axis',(1.,0.,0.));
#824=DIRECTION('center_axis',(0.,1.,0.));
#825=DIRECTION('ref_axis',(0.,0.,1.));
#826=DIRECTION('center_axis',(1.,0.,8.67361737988403E-16));
#827=DIRECTION('ref_axis',(-8.67361737988404E-16,0.,1.));
#828=DIRECTION('center_axis',(0.,1.,0.));
#829=DIRECTION('ref_axis',(0.,0.,1.));
#830=DIRECTION('center_axis',(1.,8.67361737988403E-16,0.));
#831=DIRECTION('ref_axis',(8.67361737988403E-16,-1.,0.));
#832=DIRECTION('center_axis',(-1.,0.,0.));
#833=DIRECTION('ref_axis',(0.,0.,1.));
#834=DIRECTION('center_axis',(1.,0.,0.));
#835=DIRECTION('ref_axis',(0.,0.,-1.));
#836=DIRECTION('center_axis',(1.,0.,0.));
#837=DIRECTION('ref_axis',(0.,0.,-1.));
#838=DIRECTION('center_axis',(1.,0.,0.));
#839=DIRECTION('ref_axis',(0.,0.,-1.));
#840=DIRECTION('center_axis',(0.,1.,0.));
#841=DIRECTION('ref_axis',(-1.,0.,0.));
#842=DIRECTION('center_axis',(-8.67361737988403E-16,0.,1.));
#843=DIRECTION('ref_axis',(-1.,0.,-8.67361737988403E-16));
#844=DIRECTION('center_axis',(0.,1.,0.));
#845=DIRECTION('ref_axis',(1.,0.,0.));
#846=DIRECTION('center_axis',(0.,0.,-1.));
#847=DIRECTION('ref_axis',(1.,0.,0.));
#848=DIRECTION('center_axis',(0.,0.,1.));
#849=DIRECTION('ref_axis',(1.,0.,0.));
#850=CARTESIAN_POINT('',(0.,0.,0.));
#851=CARTESIAN_POINT('Ctrl Pts',(40.,6.93559661794206,-4.99999998510635));
#852=CARTESIAN_POINT('Ctrl Pts',(40.0000000023844,6.58934558375618,-5.16009715331425));
#853=CARTESIAN_POINT('Ctrl Pts',(39.923091974784,5.80080725638156,-5.45294650349749));
#854=CARTESIAN_POINT('Ctrl Pts',(39.7141175075154,4.71023345860214,-5.72206598128398));
#855=CARTESIAN_POINT('Ctrl Pts',(39.4882343111243,3.85828687004624,-5.88030260988782));
#856=CARTESIAN_POINT('Ctrl Pts',(39.2844686364401,3.26704479081098,-5.9691810572231));
#857=CARTESIAN_POINT('Ctrl Pts',(39.0986882376862,3.01703496830911,-6.));
#858=CARTESIAN_POINT('Ctrl Pts',(39.,3.01703496830912,-6.));
#859=CARTESIAN_POINT('Ctrl Pts',(39.9999999947881,6.45018710518231,-4.65005928413889));
#860=CARTESIAN_POINT('Ctrl Pts',(40.0577669372507,6.15785417719357,-4.79667267101686));
#861=CARTESIAN_POINT('Ctrl Pts',(40.0894500864676,5.46997429079663,-5.13858192466499));
#862=CARTESIAN_POINT('Ctrl Pts',(39.9121058462874,4.46967473991236,-5.54128303267828));
#863=CARTESIAN_POINT('Ctrl Pts',(39.6492359266921,3.6739290538464,-5.79671701604903));
#864=CARTESIAN_POINT('Ctrl Pts',(39.3876510174762,3.1166382845431,-5.94685516233174));
#865=CARTESIAN_POINT('Ctrl Pts',(39.1346381170343,2.87964974623473,-6.));
#866=CARTESIAN_POINT('Ctrl Pts',(39.,2.87964974623473,-6.));
#867=CARTESIAN_POINT('Ctrl Pts',(40.501818162471,5.60960005225896,-4.04406451390936));
#868=CARTESIAN_POINT('Ctrl Pts',(40.5909263250662,5.40614115064055,-4.24831792455101));
#869=CARTESIAN_POINT('Ctrl Pts',(40.6399871713114,4.89060602023843,-4.75244580836534));
#870=CARTESIAN_POINT('Ctrl Pts',(40.3631179552147,4.04727205930237,-5.35045137908048));
#871=CARTESIAN_POINT('Ctrl Pts',(39.9659071991189,3.35008911547951,-5.72664337697298));
#872=CARTESIAN_POINT('Ctrl Pts',(39.5749958649692,2.85284555393733,-5.94704858334603));
#873=CARTESIAN_POINT('Ctrl Pts',(39.2000070329685,2.63923260280182,-6.02486620222835));
#874=CARTESIAN_POINT('Ctrl Pts',(39.,2.63923260280182,-6.02486620222835));
#875=CARTESIAN_POINT('Ctrl Pts',(41.5512010469987,5.31323483279647,-3.83040932689422));
#876=CARTESIAN_POINT('Ctrl Pts',(41.5776647644357,5.08242488990656,-4.15138138354868));
#877=CARTESIAN_POINT('Ctrl Pts',(41.4305618711312,4.53523439126203,-4.78474879306637));
#878=CARTESIAN_POINT('Ctrl Pts',(40.9084952756546,3.72102431267585,-5.41703940682886));
#879=CARTESIAN_POINT('Ctrl Pts',(40.3149746219389,3.06600862763639,-5.79849059447326));
#880=CARTESIAN_POINT('Ctrl Pts',(39.7698376905691,2.60465141067244,-6.01625851945906));
#881=CARTESIAN_POINT('Ctrl Pts',(39.2672477383809,2.4077064765931,-6.09229567083679));
#882=CARTESIAN_POINT('Ctrl Pts',(39.,2.4077064765931,-6.09229567083678));
#883=CARTESIAN_POINT('Ctrl Pts',(42.,5.31323483596731,-3.83040932249589));
#884=CARTESIAN_POINT('Ctrl Pts',(42.0000000071533,5.04797819574303,-4.19835193714913));
#885=CARTESIAN_POINT('Ctrl Pts',(41.7692759243519,4.4438932782806,-4.87139167178079));
#886=CARTESIAN_POINT('Ctrl Pts',(41.1423525225463,3.60842446243789,-5.48989433125499));
#887=CARTESIAN_POINT('Ctrl Pts',(40.464702933373,2.95576362559097,-5.85356096892348));
#888=CARTESIAN_POINT('Ctrl Pts',(39.8534059093202,2.5028237871125,-6.05782547069404));
#889=CARTESIAN_POINT('Ctrl Pts',(39.2960647130587,2.31129579443563,-6.12865497076024));
#890=CARTESIAN_POINT('Ctrl Pts',(39.,2.31129579443564,-6.12865497076023));
#891=CARTESIAN_POINT('',(39.,2.31129579443564,-6.12865497076023));
#892=CARTESIAN_POINT('',(39.,3.01703496830912,-6.));
#893=CARTESIAN_POINT('Origin',(39.,3.01703496830912,-8.));
#894=CARTESIAN_POINT('',(40.,6.93559662105276,-4.99999999183403));
#895=CARTESIAN_POINT('Ctrl Pts',(39.,3.01703496830912,-6.));
#896=CARTESIAN_POINT('Ctrl Pts',(39.011293057126,3.01703496830912,-6.));
#897=CARTESIAN_POINT('Ctrl Pts',(39.0225740204314,3.01856829716149,-5.99979793656209));
#898=CARTESIAN_POINT('Ctrl Pts',(39.0338115205828,3.02159145049877,-5.99940112338198));
#899=CARTESIAN_POINT('Ctrl Pts',(39.0457391454098,3.02480026369704,-5.99897994085251));
#900=CARTESIAN_POINT('Ctrl Pts',(39.0576179575396,3.02968713621812,-5.99833903697512));
#901=CARTESIAN_POINT('Ctrl Pts',(39.0693853745947,3.03614656618351,-5.99749374485255));
#902=CARTESIAN_POINT('Ctrl Pts',(39.0740290199133,3.03869557941037,-5.99716017659459));
#903=CARTESIAN_POINT('Ctrl Pts',(39.0786550438761,3.04148895132847,-5.99679487612781));
#904=CARTESIAN_POINT('Ctrl Pts',(39.0832585642903,3.04451834620084,-5.99639921009099));
#905=CARTESIAN_POINT('Ctrl Pts',(39.1016649815081,3.056630882026,-5.99481720469135));
#906=CARTESIAN_POINT('Ctrl Pts',(39.1197236340187,3.07252075218299,-5.99274876878216));
#907=CARTESIAN_POINT('Ctrl Pts',(39.1373681996386,3.09146790363892,-5.99026709972498));
#908=CARTESIAN_POINT('Ctrl Pts',(39.1563320842832,3.11183177103558,-5.98759987137036));
#909=CARTESIAN_POINT('Ctrl Pts',(39.1748175128173,3.13572770642515,-5.98445580218855));
#910=CARTESIAN_POINT('Ctrl Pts',(39.1927710023702,3.16231459052112,-5.9809225014265));
#911=CARTESIAN_POINT('Ctrl Pts',(39.1979649314924,3.17000615327653,-5.97990032054788));
#912=CARTESIAN_POINT('Ctrl Pts',(39.2031145192959,3.17792322039863,-5.97884551693207));
#913=CARTESIAN_POINT('Ctrl Pts',(39.2082188917552,3.18604606794837,-5.97776007690077));
#914=CARTESIAN_POINT('Ctrl Pts',(39.2276910205896,3.21703305709431,-5.97361934690888));
#915=CARTESIAN_POINT('Ctrl Pts',(39.2466192546929,3.2511382487976,-5.96900850269256));
#916=CARTESIAN_POINT('Ctrl Pts',(39.264926547865,3.28730307893275,-5.96402214719481));
#917=CARTESIAN_POINT('Ctrl Pts',(39.2674454822121,3.29227906483777,-5.96333606531411));
#918=CARTESIAN_POINT('Ctrl Pts',(39.269952697896,3.29729397205447,-5.96264286432325));
#919=CARTESIAN_POINT('Ctrl Pts',(39.2724480284177,3.30234497812965,-5.96194277962956));
#920=CARTESIAN_POINT('Ctrl Pts',(39.2931685883413,3.34428718704495,-5.95612946282807));
#921=CARTESIAN_POINT('Ctrl Pts',(39.3130668356906,3.38872167553115,-5.94984320692493));
#922=CARTESIAN_POINT('Ctrl Pts',(39.3323018010895,3.43506698564418,-5.94310040068341));
#923=CARTESIAN_POINT('Ctrl Pts',(39.3457316667443,3.46742531203789,-5.93839256887389));
#924=CARTESIAN_POINT('Ctrl Pts',(39.3588390135797,3.50071425741856,-5.93346179204104));
#925=CARTESIAN_POINT('Ctrl Pts',(39.3716860426076,3.53472542055751,-5.92830674896043));
#926=CARTESIAN_POINT('Ctrl Pts',(39.3999368950895,3.60951659215778,-5.91697071466858));
#927=CARTESIAN_POINT('Ctrl Pts',(39.4266645790811,3.68792852829959,-5.90465406561205));
#928=CARTESIAN_POINT('Ctrl Pts',(39.4523103042278,3.76823941640535,-5.89148867736743));
#929=CARTESIAN_POINT('Ctrl Pts',(39.4626242596813,3.80053809065289,-5.88619394590219));
#930=CARTESIAN_POINT('Ctrl Pts',(39.4727628651583,3.83314444659938,-5.88076201847355));
#931=CARTESIAN_POINT('Ctrl Pts',(39.4827536297644,3.86594832500898,-5.87520189716341));
#932=CARTESIAN_POINT('Ctrl Pts',(39.5133208918582,3.96631349109716,-5.85819041785618));
#933=CARTESIAN_POINT('Ctrl Pts',(39.5425061528842,4.06852493679104,-5.83997646579081));
#934=CARTESIAN_POINT('Ctrl Pts',(39.5703774118158,4.17202882671545,-5.82061090626367));
#935=CARTESIAN_POINT('Ctrl Pts',(39.5915359811726,4.25060418777234,-5.80590947008552));
#936=CARTESIAN_POINT('Ctrl Pts',(39.6119363256958,4.32992537259097,-5.79054494018012));
#937=CARTESIAN_POINT('Ctrl Pts',(39.6316024157164,4.40976330282087,-5.77455324774987));
#938=CARTESIAN_POINT('Ctrl Pts',(39.6388762566903,4.43929273178064,-5.7686384457979));
#939=CARTESIAN_POINT('Ctrl Pts',(39.6460560747289,4.46886803400311,-5.76263280672135));
#940=CARTESIAN_POINT('Ctrl Pts',(39.65314409938,4.49847296281134,-5.75653673658326));
#941=CARTESIAN_POINT('Ctrl Pts',(39.6944512624849,4.67100278362774,-5.72101042623736));
#942=CARTESIAN_POINT('Ctrl Pts',(39.7326436166859,4.84453684294637,-5.68241008930832));
#943=CARTESIAN_POINT('Ctrl Pts',(39.7675135340555,5.01730587803677,-5.64070219047629));
#944=CARTESIAN_POINT('Ctrl Pts',(39.8026586006961,5.19143818776713,-5.59866518567493));
#945=CARTESIAN_POINT('Ctrl Pts',(39.8344262434225,5.36479289145965,-5.55347104798125));
#946=CARTESIAN_POINT('Ctrl Pts',(39.8625900463868,5.53558690935255,-5.50512613281752));
#947=CARTESIAN_POINT('Ctrl Pts',(39.8761091229362,5.61757077371182,-5.48191979915231));
#948=CARTESIAN_POINT('Ctrl Pts',(39.8887978369959,5.69896507712286,-5.45798811596114));
#949=CARTESIAN_POINT('Ctrl Pts',(39.9006324823474,5.77957544873406,-5.43333476254679));
#950=CARTESIAN_POINT('Ctrl Pts',(39.9146250789036,5.87488446515994,-5.40418607090132));
#951=CARTESIAN_POINT('Ctrl Pts',(39.9274235629679,5.96909747511682,-5.3740285961217));
#952=CARTESIAN_POINT('Ctrl Pts',(39.9388368519755,6.06190655964858,-5.34294392602639));
#953=CARTESIAN_POINT('Ctrl Pts',(39.9551742748194,6.19475706897485,-5.29844812827947));
#954=CARTESIAN_POINT('Ctrl Pts',(39.9687254581565,6.32486554218972,-5.25190501682299));
#955=CARTESIAN_POINT('Ctrl Pts',(39.9788783189119,6.45108797237395,-5.20357196073397));
#956=CARTESIAN_POINT('Ctrl Pts',(39.9879890020663,6.56435383862608,-5.16020022832043));
#957=CARTESIAN_POINT('Ctrl Pts',(39.9943628168551,6.67448983440521,-5.11538792320007));
#958=CARTESIAN_POINT('Ctrl Pts',(39.9975828103689,6.78069796344279,-5.06933883117876));
#959=CARTESIAN_POINT('Ctrl Pts',(39.999178371773,6.83332589290008,-5.04652072499018));
#960=CARTESIAN_POINT('Ctrl Pts',(40.0000000003485,6.88498990937756,-5.02339916643313));
#961=CARTESIAN_POINT('Ctrl Pts',(40.,6.93559661794206,-4.99999998510635));
#962=CARTESIAN_POINT('',(39.9999999999877,2.63360950652596,-5.9972161014204));
#963=CARTESIAN_POINT('Ctrl Pts',(40.,6.93559658573075,-5.));
#964=CARTESIAN_POINT('Ctrl Pts',(40.,6.93019173522071,-5.0012213990846));
#965=CARTESIAN_POINT('Ctrl Pts',(40.,6.9247862396385,-5.00244027053265));
#966=CARTESIAN_POINT('Ctrl Pts',(40.,6.43857030112958,-5.11183952375514));
#967=CARTESIAN_POINT('Ctrl Pts',(40.,5.98874031995077,-5.19517783682606));
#968=CARTESIAN_POINT('Ctrl Pts',(40.,4.70115048240866,-5.43636787245874));
#969=CARTESIAN_POINT('Ctrl Pts',(40.,4.0345174756672,-5.56251942395035));
#970=CARTESIAN_POINT('Ctrl Pts',(40.,3.1588878103759,-5.79715083768016));
#971=CARTESIAN_POINT('Ctrl Pts',(40.,2.88133831357886,-5.88842880240264));
#972=CARTESIAN_POINT('Ctrl Pts',(40.,2.6336095065411,-5.99721610141375));
#973=CARTESIAN_POINT('Ctrl Pts',(39.9998887823664,2.633732309451,-5.99708250661073));
#974=CARTESIAN_POINT('Ctrl Pts',(39.940947416658,2.59763250849096,-6.01296695466639));
#975=CARTESIAN_POINT('Ctrl Pts',(39.6484495626211,2.43239138783361,-6.0838722723112));
#976=CARTESIAN_POINT('Ctrl Pts',(39.2960647130587,2.31129579443563,-6.12865497076024));
#977=CARTESIAN_POINT('Ctrl Pts',(39.,2.31129579443564,-6.12865497076023));
#978=CARTESIAN_POINT('Origin',(40.,3.01703496830911,-8.));
#979=CARTESIAN_POINT('',(1.,2.31129579443564,-6.12865497076023));
#980=CARTESIAN_POINT('',(1.,3.01703496830912,-6.));
#981=CARTESIAN_POINT('Origin',(1.,3.01703496830911,-8.));
#982=CARTESIAN_POINT('',(40.,3.01703496830911,-6.));
#983=CARTESIAN_POINT('',(40.,2.31129579443564,-6.12865497076023));
#984=CARTESIAN_POINT('Ctrl Pts',(1.,3.01703496830912,-6.));
#985=CARTESIAN_POINT('Ctrl Pts',(0.901311763174727,3.01703496830912,-6.));
#986=CARTESIAN_POINT('Ctrl Pts',(0.715346006140736,3.26680616943353,-5.96921768030008));
#987=CARTESIAN_POINT('Ctrl Pts',(0.511613820182479,3.85810769125106,-5.88034676844355));
#988=CARTESIAN_POINT('Ctrl Pts',(0.28574697565576,4.71013411665033,-5.72209465964398));
#989=CARTESIAN_POINT('Ctrl Pts',(0.0765441222770486,5.80018356564761,-5.45308481102219));
#990=CARTESIAN_POINT('Ctrl Pts',(-3.64546482560921E-11,6.5893455520123,
-5.1600971658508));
#991=CARTESIAN_POINT('Ctrl Pts',(8.32667268468867E-16,6.93559658622323,
-4.99999999977229));
#992=CARTESIAN_POINT('Ctrl Pts',(1.,2.87964974623473,-6.));
#993=CARTESIAN_POINT('Ctrl Pts',(0.865361884140234,2.87964974623473,-6.));
#994=CARTESIAN_POINT('Ctrl Pts',(0.612314691564339,3.11634084839152,-5.94683232367944));
#995=CARTESIAN_POINT('Ctrl Pts',(0.351039330676323,3.67358559091004,-5.79674026091094));
#996=CARTESIAN_POINT('Ctrl Pts',(0.0880913787727921,4.46943910890783,-5.54135359808817));
#997=CARTESIAN_POINT('Ctrl Pts',(-0.0892937417996556,5.46915520839157,-5.1388408277897));
#998=CARTESIAN_POINT('Ctrl Pts',(-0.0577669396506528,6.15785414977282,-4.79667268471667));
#999=CARTESIAN_POINT('Ctrl Pts',(7.96854450632568E-11,6.45018707833376,
-4.65005929763618));
#1000=CARTESIAN_POINT('Ctrl Pts',(1.,2.63923206822146,-6.02486290301676));
#1001=CARTESIAN_POINT('Ctrl Pts',(0.799992968776317,2.63923206822146,-6.02486290301676));
#1002=CARTESIAN_POINT('Ctrl Pts',(0.424508433669072,2.85269615554299,-5.9470585314782));
#1003=CARTESIAN_POINT('Ctrl Pts',(0.0335165386011975,3.35004830179625,-5.72667445887057));
#1004=CARTESIAN_POINT('Ctrl Pts',(-0.363457845961014,4.04717669351872,-5.35036341994436));
#1005=CARTESIAN_POINT('Ctrl Pts',(-0.641007434831674,4.89024297240218,-4.75206605865816));
#1006=CARTESIAN_POINT('Ctrl Pts',(-0.590085459431246,5.40557294407936,-4.2479083281532));
#1007=CARTESIAN_POINT('Ctrl Pts',(-0.500977301179986,5.60903184709051,-4.0436549163913));
#1008=CARTESIAN_POINT('Ctrl Pts',(1.,2.4077064765931,-6.09229567083678));
#1009=CARTESIAN_POINT('Ctrl Pts',(0.73275226395053,2.4077064765931,-6.09229567083678));
#1010=CARTESIAN_POINT('Ctrl Pts',(0.229591463612295,2.60442921068006,-6.01628787070014));
#1011=CARTESIAN_POINT('Ctrl Pts',(-0.315539210496737,3.0657903072337,-5.79850799365494));
#1012=CARTESIAN_POINT('Ctrl Pts',(-0.908980605402482,3.72088420276561,-5.41704023048496));
#1013=CARTESIAN_POINT('Ctrl Pts',(-1.43178644583079,4.53467097208478,-4.78482484528808));
#1014=CARTESIAN_POINT('Ctrl Pts',(-1.57766476065216,5.08242486816665,-4.15138141003124));
#1015=CARTESIAN_POINT('Ctrl Pts',(-1.55120104944912,5.31323481161961,-3.83040935626906));
#1016=CARTESIAN_POINT('Ctrl Pts',(1.,2.31129579443564,-6.12865497076023));
#1017=CARTESIAN_POINT('Ctrl Pts',(0.70393528952418,2.31129579443564,-6.12865497076023));
#1018=CARTESIAN_POINT('Ctrl Pts',(0.146038018422172,2.50264098360114,-6.05790963952005));
#1019=CARTESIAN_POINT('Ctrl Pts',(-0.465158539452566,2.95562635996426,-5.8536624561305));
#1020=CARTESIAN_POINT('Ctrl Pts',(-1.14275907303273,3.60834835836956,-5.48996024117009));
#1021=CARTESIAN_POINT('Ctrl Pts',(-1.77036763316886,4.443415480116,-4.87170953644281));
#1022=CARTESIAN_POINT('Ctrl Pts',(-2.00000000010936,5.04797817142463,-4.1983519659612));
#1023=CARTESIAN_POINT('Ctrl Pts',(-2.,5.31323481166809,-3.83040935620182));
#1024=CARTESIAN_POINT('',(7.8545288965926E-12,2.63360950653142,-5.997216101418));
#1025=CARTESIAN_POINT('',(8.15320033729495E-16,6.93559658627078,-4.99999999987515));
#1026=CARTESIAN_POINT('Ctrl Pts',(3.7828813212225E-17,2.63360950654111,
-5.99721610141375));
#1027=CARTESIAN_POINT('Ctrl Pts',(3.53453986028569E-17,2.83426641577468,
-5.90909989303064));
#1028=CARTESIAN_POINT('Ctrl Pts',(-2.21863642255307E-16,3.04622488799059,
-5.83645352876274));
#1029=CARTESIAN_POINT('Ctrl Pts',(-1.71703288785262E-16,3.80964072020031,
-5.60978259326699));
#1030=CARTESIAN_POINT('Ctrl Pts',(5.55111512312578E-16,4.4915022881511,
-5.47622330530523));
#1031=CARTESIAN_POINT('Ctrl Pts',(5.55111512312578E-16,5.84973651914498,
-5.22080902934031));
#1032=CARTESIAN_POINT('Ctrl Pts',(-2.77439248480791E-16,6.37734874824727,
-5.12561445717221));
#1033=CARTESIAN_POINT('Ctrl Pts',(-2.77556918153316E-16,6.92478623880713,
-5.00244027071862));
#1034=CARTESIAN_POINT('Ctrl Pts',(8.32486044227739E-16,6.930191736053,-5.00122139889652));
#1035=CARTESIAN_POINT('Ctrl Pts',(8.32667268468867E-16,6.93559658573075,
-5.));
#1036=CARTESIAN_POINT('Ctrl Pts',(8.32667268468867E-16,6.93559658622323,
-4.99999999977229));
#1037=CARTESIAN_POINT('Ctrl Pts',(-3.64546482560921E-11,6.5893455520123,
-5.1600971658508));
#1038=CARTESIAN_POINT('Ctrl Pts',(0.0765441222770486,5.80018356564761,-5.45308481102219));
#1039=CARTESIAN_POINT('Ctrl Pts',(0.28574697565576,4.71013411665033,-5.72209465964398));
#1040=CARTESIAN_POINT('Ctrl Pts',(0.511613820182479,3.85810769125106,-5.88034676844355));
#1041=CARTESIAN_POINT('Ctrl Pts',(0.715346006140736,3.26680616943353,-5.96921768030008));
#1042=CARTESIAN_POINT('Ctrl Pts',(0.901311763174727,3.01703496830912,-6.));
#1043=CARTESIAN_POINT('Ctrl Pts',(1.,3.01703496830912,-6.));
#1044=CARTESIAN_POINT('Ctrl Pts',(1.,2.31129579443564,-6.12865497076023));
#1045=CARTESIAN_POINT('Ctrl Pts',(0.70393528952418,2.31129579443564,-6.12865497076023));
#1046=CARTESIAN_POINT('Ctrl Pts',(0.351291670565851,2.43224397517204,-6.08393725851248));
#1047=CARTESIAN_POINT('Ctrl Pts',(0.058752471620048,2.59739962182403,-6.01308165632809));
#1048=CARTESIAN_POINT('Ctrl Pts',(-0.00013402429490679,2.63344654923599,
-5.99722381886009));
#1049=CARTESIAN_POINT('Origin',(40.,0.,0.));
#1050=CARTESIAN_POINT('',(40.,-5.4554445281755,-3.625));
#1051=CARTESIAN_POINT('Origin',(40.,0.,0.));
#1052=CARTESIAN_POINT('',(0.,-5.4554445281755,-3.625));
#1053=CARTESIAN_POINT('',(40.,-5.4554445281755,-3.625));
#1054=CARTESIAN_POINT('Origin',(0.,0.,0.));
#1055=CARTESIAN_POINT('Ctrl Pts',(8.32667268468867E-16,6.93559661794206,
4.99999998510635));
#1056=CARTESIAN_POINT('Ctrl Pts',(-3.57664514659592E-9,6.41622006666324,
5.2401457374182));
#1057=CARTESIAN_POINT('Ctrl Pts',(0.138022607578493,5.37309453745281,5.5853198694817));
#1058=CARTESIAN_POINT('Ctrl Pts',(0.443679740846735,4.05739495781279,5.8501254881087));
#1059=CARTESIAN_POINT('Ctrl Pts',(0.715746954472276,3.26734029648973,5.96926494488051));
#1060=CARTESIAN_POINT('Ctrl Pts',(0.90131176231373,3.01703496830912,6.));
#1061=CARTESIAN_POINT('Ctrl Pts',(1.,3.01703496830912,6.));
#1062=CARTESIAN_POINT('Ctrl Pts',(5.21189396166132E-9,6.45018710518231,
4.65005928413889));
#1063=CARTESIAN_POINT('Ctrl Pts',(-0.0866504084820584,6.0116877131992,4.86997936445584));
#1064=CARTESIAN_POINT('Ctrl Pts',(-0.0695335747660965,5.08633571371673,
5.32185136234646));
#1065=CARTESIAN_POINT('Ctrl Pts',(0.264844065365622,3.86105554869017,5.74622421442786));
#1066=CARTESIAN_POINT('Ctrl Pts',(0.612637984295691,3.11697672716051,5.94667771090349));
#1067=CARTESIAN_POINT('Ctrl Pts',(0.865361882965594,2.87964974623473,6.));
#1068=CARTESIAN_POINT('Ctrl Pts',(1.,2.87964974623473,6.));
#1069=CARTESIAN_POINT('Ctrl Pts',(-0.50097729294769,5.6090318656824,4.04365489770371));
#1070=CARTESIAN_POINT('Ctrl Pts',(-0.634639536840526,5.30384351325479,4.35003501366618));
#1071=CARTESIAN_POINT('Ctrl Pts',(-0.607132697512674,4.58420659410462,5.02660557993674));
#1072=CARTESIAN_POINT('Ctrl Pts',(-0.0945792548904418,3.51640644162537,
5.65238935673877));
#1073=CARTESIAN_POINT('Ctrl Pts',(0.424893949078128,2.85348460041101,5.94678343225548));
#1074=CARTESIAN_POINT('Ctrl Pts',(0.799992967031372,2.63923206822147,6.02486290301676));
#1075=CARTESIAN_POINT('Ctrl Pts',(1.,2.63923206822147,6.02486290301676));
#1076=CARTESIAN_POINT('Ctrl Pts',(-1.55120104699868,5.31323483279647,3.83040932689422));
#1077=CARTESIAN_POINT('Ctrl Pts',(-1.59089662315419,4.96701991846161,4.31186741187591));
#1078=CARTESIAN_POINT('Ctrl Pts',(-1.29235922249532,4.2271531194275,5.08788341002521));
#1079=CARTESIAN_POINT('Ctrl Pts',(-0.496626380270224,3.22085011299631,5.72474382575491));
#1080=CARTESIAN_POINT('Ctrl Pts',(0.230552197453278,2.60498383390332,6.01626715693797));
#1081=CARTESIAN_POINT('Ctrl Pts',(0.732752261618949,2.40770647659311,6.09229567083678));
#1082=CARTESIAN_POINT('Ctrl Pts',(1.,2.40770647659311,6.09229567083678));
#1083=CARTESIAN_POINT('Ctrl Pts',(-2.,5.31323483596731,3.83040932249589));
#1084=CARTESIAN_POINT('Ctrl Pts',(-2.00000001072994,4.9153498756309,4.38232324447574));
#1085=CARTESIAN_POINT('Ctrl Pts',(-1.58593217726453,4.11623031816562,5.17561817956904));
#1086=CARTESIAN_POINT('Ctrl Pts',(-0.668960777459801,3.10829672206711,5.78420653115041));
#1087=CARTESIAN_POINT('Ctrl Pts',(0.147240863416813,2.50305016865588,6.05801826513474));
#1088=CARTESIAN_POINT('Ctrl Pts',(0.703935286941188,2.31129579443564,6.12865497076023));
#1089=CARTESIAN_POINT('Ctrl Pts',(1.,2.31129579443564,6.12865497076023));
#1090=CARTESIAN_POINT('',(1.,2.31129579443564,6.12865497076023));
#1091=CARTESIAN_POINT('',(1.,3.01703496830912,6.));
#1092=CARTESIAN_POINT('Origin',(1.,3.01703496830912,8.));
#1093=CARTESIAN_POINT('',(9.32413869671535E-16,6.93559662105276,4.99999999183403));
#1094=CARTESIAN_POINT('Ctrl Pts',(1.,3.01703496830912,6.));
#1095=CARTESIAN_POINT('Ctrl Pts',(0.988766252160255,3.01703496830912,6.));
#1096=CARTESIAN_POINT('Ctrl Pts',(0.977544467172679,3.01855171865856,5.99980060033656));
#1097=CARTESIAN_POINT('Ctrl Pts',(0.966365468426856,3.02154334582758,5.99940864349066));
#1098=CARTESIAN_POINT('Ctrl Pts',(0.954501195275876,3.02471836021896,5.99899265962763));
#1099=CARTESIAN_POINT('Ctrl Pts',(0.942684962925938,3.02955425122335,5.99835947328202));
#1100=CARTESIAN_POINT('Ctrl Pts',(0.930978173063313,3.03594717806065,5.99752374039271));
#1101=CARTESIAN_POINT('Ctrl Pts',(0.92621227906325,3.03854977125778,5.99718350926107));
#1102=CARTESIAN_POINT('Ctrl Pts',(0.921464806658106,3.04140985977727,5.99680980826566));
#1103=CARTESIAN_POINT('Ctrl Pts',(0.916741023928912,3.04451836913925,5.99640409051378));
#1104=CARTESIAN_POINT('Ctrl Pts',(0.89831575495882,3.0566432115323,5.99482157515841));
#1105=CARTESIAN_POINT('Ctrl Pts',(0.88023961451422,3.07255342289575,5.99275102859093));
#1106=CARTESIAN_POINT('Ctrl Pts',(0.862578227252937,3.0915261432358,5.99026490271443));
#1107=CARTESIAN_POINT('Ctrl Pts',(0.843642935127338,3.11186735407848,5.98759945412674));
#1108=CARTESIAN_POINT('Ctrl Pts',(0.825184504765738,3.13572925037963,5.98445677475678));
#1109=CARTESIAN_POINT('Ctrl Pts',(0.807257291043412,3.1622747557081,5.98092363721517));
#1110=CARTESIAN_POINT('Ctrl Pts',(0.802054435042441,3.16997882193034,5.9798982460894));
#1111=CARTESIAN_POINT('Ctrl Pts',(0.796896156895081,3.17790922277296,5.97883992727648));
#1112=CARTESIAN_POINT('Ctrl Pts',(0.791783392987122,3.18604616955825,5.97775068316564));
#1113=CARTESIAN_POINT('Ctrl Pts',(0.772000229539227,3.21753100850604,5.97353599720177));
#1114=CARTESIAN_POINT('Ctrl Pts',(0.752786847111615,3.25223979750957,5.9688345587563));
#1115=CARTESIAN_POINT('Ctrl Pts',(0.734218332351308,3.28906137701277,5.96374474358156));
#1116=CARTESIAN_POINT('Ctrl Pts',(0.731970829135755,3.29351820188021,5.96312868052431));
#1117=CARTESIAN_POINT('Ctrl Pts',(0.729732739188996,3.29800592862517,5.962506917107));
#1118=CARTESIAN_POINT('Ctrl Pts',(0.727504168161075,3.30252254593123,5.96187961807368));
#1119=CARTESIAN_POINT('Ctrl Pts',(0.707002505288811,3.34407301220387,5.95610880209333));
#1120=CARTESIAN_POINT('Ctrl Pts',(0.687309373416662,3.3880713888872,5.94987138373264));
#1121=CARTESIAN_POINT('Ctrl Pts',(0.668263974113607,3.4339405347036,5.94318671088971));
#1122=CARTESIAN_POINT('Ctrl Pts',(0.654672326074852,3.46667480694723,5.93841622962599));
#1123=CARTESIAN_POINT('Ctrl Pts',(0.641409690002455,3.5003610603973,5.93341755428708));
#1124=CARTESIAN_POINT('Ctrl Pts',(0.628408505213052,3.53477903471586,5.92818954071212));
#1125=CARTESIAN_POINT('Ctrl Pts',(0.590887549034706,3.63410808257362,5.91310167976534));
#1126=CARTESIAN_POINT('Ctrl Pts',(0.556021733264639,3.73993880119209,5.89629115525016));
#1127=CARTESIAN_POINT('Ctrl Pts',(0.522806491506032,3.84806312588751,5.87811369769314));
#1128=CARTESIAN_POINT('Ctrl Pts',(0.520893030094983,3.85429194470521,5.87706653194197));
#1129=CARTESIAN_POINT('Ctrl Pts',(0.518985053820944,3.86052838602858,5.87601483194859));
#1130=CARTESIAN_POINT('Ctrl Pts',(0.517082373053309,3.86677164863879,5.87495866664153));
#1131=CARTESIAN_POINT('Ctrl Pts',(0.475972596244621,4.00166507733664,5.85213890581511));
#1132=CARTESIAN_POINT('Ctrl Pts',(0.437332422304586,4.13973951417024,5.82723203701069));
#1133=CARTESIAN_POINT('Ctrl Pts',(0.401036824735004,4.27986782012032,5.80022636628438));
#1134=CARTESIAN_POINT('Ctrl Pts',(0.389873220795365,4.32296772790832,5.79192010788665));
#1135=CARTESIAN_POINT('Ctrl Pts',(0.37893159707852,4.36626220492904,5.78341552538071));
#1136=CARTESIAN_POINT('Ctrl Pts',(0.368208617522155,4.40971908304683,5.7747128912404));
#1137=CARTESIAN_POINT('Ctrl Pts',(0.330188493563852,4.56380273901151,5.74385624108647));
#1138=CARTESIAN_POINT('Ctrl Pts',(0.294961702208875,4.71918555041236,5.71055032809463));
#1139=CARTESIAN_POINT('Ctrl Pts',(0.262267184740048,4.874294246425,5.67473421896684));
#1140=CARTESIAN_POINT('Ctrl Pts',(0.243191702957042,4.96479177733354,5.65383745736585));
#1141=CARTESIAN_POINT('Ctrl Pts',(0.224979006040043,5.05519700041617,5.6320858601616));
#1142=CARTESIAN_POINT('Ctrl Pts',(0.207582846980404,5.14520213339593,5.60946467074622));
#1143=CARTESIAN_POINT('Ctrl Pts',(0.17651660662832,5.30593422859491,5.56906751727005));
#1144=CARTESIAN_POINT('Ctrl Pts',(0.148052578290715,5.46539188680751,5.52589812588412));
#1145=CARTESIAN_POINT('Ctrl Pts',(0.122797982577711,5.62242934480805,5.48008130273077));
#1146=CARTESIAN_POINT('Ctrl Pts',(0.0988642459285123,5.77125347197115,5.4366607787233));
#1147=CARTESIAN_POINT('Ctrl Pts',(0.0778128271049293,5.91790546913639,5.39086222629549));
#1148=CARTESIAN_POINT('Ctrl Pts',(0.0601919417961698,6.06138310741405,5.34277913605034));
#1149=CARTESIAN_POINT('Ctrl Pts',(0.0454473419815448,6.18144065966995,5.30254472608214));
#1150=CARTESIAN_POINT('Ctrl Pts',(0.0331009904603061,6.29933905535874,5.26068530283338));
#1151=CARTESIAN_POINT('Ctrl Pts',(0.0235136282770611,6.41416416170296,5.21735627839468));
#1152=CARTESIAN_POINT('Ctrl Pts',(0.0148724602245017,6.51765697042436,5.17830347382007));
#1153=CARTESIAN_POINT('Ctrl Pts',(0.00847263251814253,6.61865254708793,
5.13805725055122));
#1154=CARTESIAN_POINT('Ctrl Pts',(0.0045520831753256,6.71650986335331,5.09674619499729));
#1155=CARTESIAN_POINT('Ctrl Pts',(0.00154886561243195,6.79147048370727,
5.06510111755207));
#1156=CARTESIAN_POINT('Ctrl Pts',(-4.88980315369973E-10,6.86459005447363,
5.0328315108293));
#1157=CARTESIAN_POINT('Ctrl Pts',(8.32667270652024E-16,6.93559661794206,
4.99999998510635));
#1158=CARTESIAN_POINT('',(1.22760337661833E-11,2.63360950652596,5.9972161014204));
#1159=CARTESIAN_POINT('Ctrl Pts',(8.32667268468867E-16,6.93559658573075,
5.));
#1160=CARTESIAN_POINT('Ctrl Pts',(8.32923883451292E-16,6.93019173605456,
5.00122139889617));
#1161=CARTESIAN_POINT('Ctrl Pts',(-2.77555756156289E-16,6.92478623880557,
5.00244027071897));
#1162=CARTESIAN_POINT('Ctrl Pts',(-2.77555756156289E-16,6.43857031592343,
5.11183952044984));
#1163=CARTESIAN_POINT('Ctrl Pts',(0.,5.98874015192552,5.19517786830019));
#1164=CARTESIAN_POINT('Ctrl Pts',(0.,4.70115048229655,5.43636787247995));
#1165=CARTESIAN_POINT('Ctrl Pts',(1.86336091603089E-15,4.03451747562033,
5.56251942396291));
#1166=CARTESIAN_POINT('Ctrl Pts',(1.77021858797648E-15,3.15888781037547,
5.79715083768027));
#1167=CARTESIAN_POINT('Ctrl Pts',(-5.83672819158991E-17,2.88133831357863,
5.88842880240275));
#1168=CARTESIAN_POINT('Ctrl Pts',(-5.80602285228317E-17,2.63360950654111,
5.99721610141375));
#1169=CARTESIAN_POINT('Ctrl Pts',(0.00045874620243113,2.63422509835736,
5.99691530150933));
#1170=CARTESIAN_POINT('Ctrl Pts',(0.0594185455615502,2.59807405593163,6.01285038584791));
#1171=CARTESIAN_POINT('Ctrl Pts',(0.351979999293391,2.4325274128685,6.08399678667151));
#1172=CARTESIAN_POINT('Ctrl Pts',(0.703935286941188,2.31129579443564,6.12865497076023));
#1173=CARTESIAN_POINT('Ctrl Pts',(1.,2.31129579443564,6.12865497076023));
#1174=CARTESIAN_POINT('Origin',(40.,3.01703496830911,8.));
#1175=CARTESIAN_POINT('',(39.,2.31129579443563,6.12865497076024));
#1176=CARTESIAN_POINT('',(39.,3.01703496830911,6.));
#1177=CARTESIAN_POINT('Origin',(39.,3.01703496830911,8.));
#1178=CARTESIAN_POINT('',(40.,3.01703496830911,6.));
#1179=CARTESIAN_POINT('',(40.,2.31129579443563,6.12865497076024));
#1180=CARTESIAN_POINT('Ctrl Pts',(39.,3.01703496830912,6.));
#1181=CARTESIAN_POINT('Ctrl Pts',(39.074016177619,3.01703496830911,6.));
#1182=CARTESIAN_POINT('Ctrl Pts',(39.1704816754133,3.10769612218802,5.98870450845887));
#1183=CARTESIAN_POINT('Ctrl Pts',(39.4156372470362,3.57389188293395,5.92565460290443));
#1184=CARTESIAN_POINT('Ctrl Pts',(39.6708623778571,4.50164250695162,5.77498217233391));
#1185=CARTESIAN_POINT('Ctrl Pts',(39.9245597312593,5.79303445437909,5.45364571639816));
#1186=CARTESIAN_POINT('Ctrl Pts',(40.0000000000365,6.5893455520123,5.1600971658508));
#1187=CARTESIAN_POINT('Ctrl Pts',(40.,6.93559658622323,4.99999999977229));
#1188=CARTESIAN_POINT('Ctrl Pts',(39.,2.87964974623473,6.));
#1189=CARTESIAN_POINT('Ctrl Pts',(39.1009785868948,2.87964974623473,6.));
#1190=CARTESIAN_POINT('Ctrl Pts',(39.2326214106116,2.96559842436229,5.98053309540716));
#1191=CARTESIAN_POINT('Ctrl Pts',(39.5596542848334,3.40623158522869,5.87263526918437));
#1192=CARTESIAN_POINT('Ctrl Pts',(39.8751184778408,4.27880839351913,5.62051791121603));
#1193=CARTESIAN_POINT('Ctrl Pts',(40.0913513407755,5.46252614987725,5.13979400704607));
#1194=CARTESIAN_POINT('Ctrl Pts',(40.0577669396507,6.15785414977282,4.79667268471667));
#1195=CARTESIAN_POINT('Ctrl Pts',(39.9999999999203,6.45018707833376,4.65005929763618));
#1196=CARTESIAN_POINT('Ctrl Pts',(39.,2.63923260280182,6.02486620222835));
#1197=CARTESIAN_POINT('Ctrl Pts',(39.1500052734178,2.63923260280181,6.02486620222835));
#1198=CARTESIAN_POINT('Ctrl Pts',(39.3450778558827,2.71663175176283,5.9963032197627));
#1199=CARTESIAN_POINT('Ctrl Pts',(39.8321416304146,3.11236574714267,5.83843875177539));
#1200=CARTESIAN_POINT('Ctrl Pts',(40.3045114702526,3.88668518118409,5.46786018897107));
#1201=CARTESIAN_POINT('Ctrl Pts',(40.6430332917943,4.88386476564385,4.75434674150103));
#1202=CARTESIAN_POINT('Ctrl Pts',(40.5909263289345,5.40614113063956,4.24831794436488));
#1203=CARTESIAN_POINT('Ctrl Pts',(40.5018181706833,5.60960003365072,4.04406453260297));
#1204=CARTESIAN_POINT('Ctrl Pts',(39.,2.4077064765931,6.09229567083678));
#1205=CARTESIAN_POINT('Ctrl Pts',(39.2004358020371,2.4077064765931,6.09229567083679));
#1206=CARTESIAN_POINT('Ctrl Pts',(39.4615118982233,2.47911098109823,6.06442813514519));
#1207=CARTESIAN_POINT('Ctrl Pts',(40.1224464565295,2.84472232552647,5.90926532934322));
#1208=CARTESIAN_POINT('Ctrl Pts',(40.8000053065269,3.56580487367594,5.54138702038517));
#1209=CARTESIAN_POINT('Ctrl Pts',(41.4345680868202,4.52903311174753,4.78649557178023));
#1210=CARTESIAN_POINT('Ctrl Pts',(41.5776647606522,5.08242486816665,4.15138141003124));
#1211=CARTESIAN_POINT('Ctrl Pts',(41.5512010494491,5.31323481161961,3.83040935626906));
#1212=CARTESIAN_POINT('Ctrl Pts',(39.,2.31129579443564,6.12865497076023));
#1213=CARTESIAN_POINT('Ctrl Pts',(39.2220485328569,2.31129579443563,6.12865497076024));
#1214=CARTESIAN_POINT('Ctrl Pts',(39.51144502624,2.3807496608575,6.10269515686746));
#1215=CARTESIAN_POINT('Ctrl Pts',(40.2469117411086,2.73789378166283,5.95779098796164));
#1216=CARTESIAN_POINT('Ctrl Pts',(41.0125871335713,3.44862671585182,5.61150873524696));
#1217=CARTESIAN_POINT('Ctrl Pts',(41.7736791937778,4.43793867557695,4.87299863476304));
#1218=CARTESIAN_POINT('Ctrl Pts',(42.0000000001094,5.04797817142462,4.19835196596121));
#1219=CARTESIAN_POINT('Ctrl Pts',(42.,5.31323481166809,3.83040935620181));
#1220=CARTESIAN_POINT('',(39.9999999999921,2.63360950653141,5.997216101418));
#1221=CARTESIAN_POINT('',(40.,6.93559658627079,4.99999999987515));
#1222=CARTESIAN_POINT('Ctrl Pts',(40.,2.6336095065411,5.99721610141375));
#1223=CARTESIAN_POINT('Ctrl Pts',(40.,2.83426641577469,5.90909989303064));
#1224=CARTESIAN_POINT('Ctrl Pts',(40.,3.04622488799062,5.83645352876273));
#1225=CARTESIAN_POINT('Ctrl Pts',(40.,3.80964072047401,5.60978259318572));
#1226=CARTESIAN_POINT('Ctrl Pts',(40.,4.49150228973756,5.47622330500632));
#1227=CARTESIAN_POINT('Ctrl Pts',(40.,5.84973657346643,5.22080901912574));
#1228=CARTESIAN_POINT('Ctrl Pts',(40.,6.37734872870029,5.12561446154391));
#1229=CARTESIAN_POINT('Ctrl Pts',(40.,6.92478623963992,5.00244027053233));
#1230=CARTESIAN_POINT('Ctrl Pts',(40.,6.93019173521929,5.00122139908492));
#1231=CARTESIAN_POINT('Ctrl Pts',(40.,6.93559658573075,5.));
#1232=CARTESIAN_POINT('Ctrl Pts',(40.,6.93559658622323,4.99999999977229));
#1233=CARTESIAN_POINT('Ctrl Pts',(40.0000000000365,6.5893455520123,5.1600971658508));
#1234=CARTESIAN_POINT('Ctrl Pts',(39.9245597312593,5.79303445437909,5.45364571639816));
#1235=CARTESIAN_POINT('Ctrl Pts',(39.6708623778571,4.50164250695162,5.77498217233391));
#1236=CARTESIAN_POINT('Ctrl Pts',(39.4156372470362,3.57389188293395,5.92565460290443));
#1237=CARTESIAN_POINT('Ctrl Pts',(39.1704816754133,3.10769612218802,5.98870450845887));
#1238=CARTESIAN_POINT('Ctrl Pts',(39.074016177619,3.01703496830911,6.));
#1239=CARTESIAN_POINT('Ctrl Pts',(39.,3.01703496830912,6.));
#1240=CARTESIAN_POINT('Ctrl Pts',(39.,2.31129579443564,6.12865497076023));
#1241=CARTESIAN_POINT('Ctrl Pts',(39.2220485328569,2.31129579443563,6.12865497076024));
#1242=CARTESIAN_POINT('Ctrl Pts',(39.51144502624,2.3807496608575,6.10269515686746));
#1243=CARTESIAN_POINT('Ctrl Pts',(39.8214069675942,2.53126780503737,6.04162539450248));
#1244=CARTESIAN_POINT('Ctrl Pts',(39.9398599580891,2.59816527850296,6.01288076537471));
#1245=CARTESIAN_POINT('Ctrl Pts',(39.9988636681136,2.63384033145675,5.9971172527541));
#1246=CARTESIAN_POINT('Origin',(40.,0.,0.));
#1247=CARTESIAN_POINT('',(0.,-5.4554445281755,3.625));
#1248=CARTESIAN_POINT('Origin',(0.,0.,0.));
#1249=CARTESIAN_POINT('',(40.,-5.4554445281755,3.625));
#1250=CARTESIAN_POINT('',(40.,-5.4554445281755,3.625));
#1251=CARTESIAN_POINT('Origin',(40.,0.,0.));
#1252=CARTESIAN_POINT('Origin',(0.,0.,0.));
#1253=CARTESIAN_POINT('',(0.,-3.22209171191634,-3.625));
#1254=CARTESIAN_POINT('',(0.,-3.22209171191635,3.625));
#1255=CARTESIAN_POINT('Origin',(0.,0.,0.));
#1256=CARTESIAN_POINT('',(0.,-5.4554445281755,3.625));
#1257=CARTESIAN_POINT('',(0.,21.,5.));
#1258=CARTESIAN_POINT('',(0.,-4.79635246383288E-16,5.));
#1259=CARTESIAN_POINT('',(0.,21.,-5.));
#1260=CARTESIAN_POINT('',(0.,21.,-6.));
#1261=CARTESIAN_POINT('',(0.,-4.79635246383288E-16,-5.));
#1262=CARTESIAN_POINT('',(0.,-3.22209171191634,-3.625));
#1263=CARTESIAN_POINT('Origin',(40.,0.,0.));
#1264=CARTESIAN_POINT('',(40.,-3.22209171191634,-3.625));
#1265=CARTESIAN_POINT('',(40.,-3.22209171191634,-3.625));
#1266=CARTESIAN_POINT('',(40.,-3.22209171191635,3.625));
#1267=CARTESIAN_POINT('Origin',(40.,0.,0.));
#1268=CARTESIAN_POINT('',(40.,-3.22209171191635,3.625));
#1269=CARTESIAN_POINT('Origin',(40.,-5.4554445281755,-3.625));
#1270=CARTESIAN_POINT('',(40.,-3.22209171191634,-3.625));
#1271=CARTESIAN_POINT('Origin',(40.,-3.22209171191635,3.625));
#1272=CARTESIAN_POINT('',(40.,-5.4554445281755,3.625));
#1273=CARTESIAN_POINT('Origin',(39.,-4.79635246383288E-16,5.));
#1274=CARTESIAN_POINT('',(40.,21.,5.));
#1275=CARTESIAN_POINT('',(40.,-3.04188906600156,5.));
#1276=CARTESIAN_POINT('',(39.,21.,6.));
#1277=CARTESIAN_POINT('Origin',(39.,21.,5.));
#1278=CARTESIAN_POINT('',(39.,22.,6.));
#1279=CARTESIAN_POINT('Origin',(40.,0.,0.));
#1280=CARTESIAN_POINT('',(40.,21.,-5.));
#1281=CARTESIAN_POINT('',(40.,22.,-5.));
#1282=CARTESIAN_POINT('',(40.,21.,0.));
#1283=CARTESIAN_POINT('Origin',(39.,-4.79635246383288E-16,-5.));
#1284=CARTESIAN_POINT('',(39.,21.,-6.));
#1285=CARTESIAN_POINT('',(39.,-3.04188906600156,-6.));
#1286=CARTESIAN_POINT('Origin',(39.,21.,-5.));
#1287=CARTESIAN_POINT('Origin',(40.,-3.04188906600156,6.));
#1288=CARTESIAN_POINT('',(1.,21.,6.));
#1289=CARTESIAN_POINT('',(0.,21.,6.));
#1290=CARTESIAN_POINT('',(1.,-3.04188906600156,6.));
#1291=CARTESIAN_POINT('',(8.5,7.125,6.));
#1292=CARTESIAN_POINT('',(31.5,7.125,6.));
#1293=CARTESIAN_POINT('',(8.5,7.125,6.));
#1294=CARTESIAN_POINT('',(8.5,11.,6.));
#1295=CARTESIAN_POINT('',(8.5,7.125,6.));
#1296=CARTESIAN_POINT('',(4.5,11.,6.));
#1297=CARTESIAN_POINT('',(8.5,11.,6.));
#1298=CARTESIAN_POINT('',(4.5,17.,6.));
#1299=CARTESIAN_POINT('',(4.5,11.,6.));
#1300=CARTESIAN_POINT('',(8.5,17.,6.));
#1301=CARTESIAN_POINT('',(8.5,17.,6.));
#1302=CARTESIAN_POINT('',(8.5,19.125,6.));
#1303=CARTESIAN_POINT('',(8.5,17.,6.));
#1304=CARTESIAN_POINT('',(31.5,19.125,6.));
#1305=CARTESIAN_POINT('',(8.5,19.125,6.));
#1306=CARTESIAN_POINT('',(31.5,7.125,6.));
#1307=CARTESIAN_POINT('Origin',(40.,-3.04188906600156,-6.));
#1308=CARTESIAN_POINT('',(1.,21.,-6.));
#1309=CARTESIAN_POINT('',(1.,-3.04188906600156,-6.));
#1310=CARTESIAN_POINT('',(40.,21.,-6.));
#1311=CARTESIAN_POINT('',(31.5,7.125,-6.));
#1312=CARTESIAN_POINT('',(8.5,7.125,-6.));
#1313=CARTESIAN_POINT('',(8.5,7.125,-6.));
#1314=CARTESIAN_POINT('',(31.5,19.125,-6.));
#1315=CARTESIAN_POINT('',(31.5,7.12500000000001,-6.));
#1316=CARTESIAN_POINT('',(8.5,19.125,-6.));
#1317=CARTESIAN_POINT('',(8.5,19.125,-6.));
#1318=CARTESIAN_POINT('',(8.5,17.,-6.));
#1319=CARTESIAN_POINT('',(8.5,17.,-6.));
#1320=CARTESIAN_POINT('',(4.5,17.,-6.));
#1321=CARTESIAN_POINT('',(8.5,17.,-6.));
#1322=CARTESIAN_POINT('',(4.5,11.,-6.));
#1323=CARTESIAN_POINT('',(4.5,11.,-6.));
#1324=CARTESIAN_POINT('',(8.5,11.,-6.));
#1325=CARTESIAN_POINT('',(8.5,11.,-6.));
#1326=CARTESIAN_POINT('',(8.5,7.12500000000001,-6.));
#1327=CARTESIAN_POINT('Origin',(1.,-3.04188906600156,5.));
#1328=CARTESIAN_POINT('Origin',(1.,21.,5.));
#1329=CARTESIAN_POINT('Origin',(1.,-3.04188906600156,-5.));
#1330=CARTESIAN_POINT('Origin',(1.,21.,-5.));
#1331=CARTESIAN_POINT('Origin',(0.,22.,-49.081318457076));
#1332=CARTESIAN_POINT('',(1.,22.,5.));
#1333=CARTESIAN_POINT('',(39.,22.,5.));
#1334=CARTESIAN_POINT('',(40.,22.,5.));
#1335=CARTESIAN_POINT('',(39.,22.,-5.));
#1336=CARTESIAN_POINT('',(39.,22.,-49.081318457076));
#1337=CARTESIAN_POINT('',(1.,22.,-5.));
#1338=CARTESIAN_POINT('',(0.,22.,-5.));
#1339=CARTESIAN_POINT('',(1.,22.,6.));
#1340=CARTESIAN_POINT('Origin',(8.5,7.125,-49.081318457076));
#1341=CARTESIAN_POINT('',(31.5,7.125,-49.081318457076));
#1342=CARTESIAN_POINT('',(8.5,7.125,-49.081318457076));
#1343=CARTESIAN_POINT('Origin',(31.5,7.125,-49.081318457076));
#1344=CARTESIAN_POINT('',(31.5,19.125,-49.081318457076));
#1345=CARTESIAN_POINT('Origin',(8.5,19.125,-49.081318457076));
#1346=CARTESIAN_POINT('',(8.5,19.125,-49.081318457076));
#1347=CARTESIAN_POINT('Origin',(8.5,17.,-49.081318457076));
#1348=CARTESIAN_POINT('',(8.5,17.,-49.081318457076));
#1349=CARTESIAN_POINT('Origin',(8.5,17.,-49.081318457076));
#1350=CARTESIAN_POINT('',(4.5,17.,-49.081318457076));
#1351=CARTESIAN_POINT('Origin',(4.5,11.,-49.081318457076));
#1352=CARTESIAN_POINT('',(4.5,11.,-49.081318457076));
#1353=CARTESIAN_POINT('Origin',(8.5,11.,-49.081318457076));
#1354=CARTESIAN_POINT('',(8.5,11.,-49.081318457076));
#1355=CARTESIAN_POINT('Origin',(8.5,7.125,-49.081318457076));
#1356=CARTESIAN_POINT('Origin',(1.,21.,-49.081318457076));
#1357=CARTESIAN_POINT('Origin',(1.,21.,-5.));
#1358=CARTESIAN_POINT('Origin',(1.,21.,5.));
#1359=CARTESIAN_POINT('Origin',(1.,21.,-5.));
#1360=CARTESIAN_POINT('Origin',(1.,21.,-5.));
#1361=CARTESIAN_POINT('Origin',(1.,21.,5.));
#1362=CARTESIAN_POINT('Origin',(1.,21.,5.));
#1363=CARTESIAN_POINT('Origin',(40.,21.,-5.));
#1364=CARTESIAN_POINT('Origin',(39.,21.,-5.));
#1365=CARTESIAN_POINT('Origin',(40.,21.,5.));
#1366=CARTESIAN_POINT('Origin',(39.,21.,5.));
#1367=CARTESIAN_POINT('Origin',(39.,21.,-5.));
#1368=CARTESIAN_POINT('Origin',(39.,21.,-5.));
#1369=CARTESIAN_POINT('Origin',(39.,21.,5.));
#1370=CARTESIAN_POINT('Origin',(39.,21.,5.));
#1371=CARTESIAN_POINT('Origin',(39.,21.,0.));
#1372=UNCERTAINTY_MEASURE_WITH_UNIT(LENGTH_MEASURE(0.01),#1376,
'DISTANCE_ACCURACY_VALUE',
'Maximum model space distance between geometric entities at asserted c
onnectivities');
#1373=UNCERTAINTY_MEASURE_WITH_UNIT(LENGTH_MEASURE(0.01),#1376,
'DISTANCE_ACCURACY_VALUE',
'Maximum model space distance between geometric entities at asserted c
onnectivities');
#1374=(
GEOMETRIC_REPRESENTATION_CONTEXT(3)
GLOBAL_UNCERTAINTY_ASSIGNED_CONTEXT((#1372))
GLOBAL_UNIT_ASSIGNED_CONTEXT((#1376,#1378,#1379))
REPRESENTATION_CONTEXT('','3D')
);
#1375=(
GEOMETRIC_REPRESENTATION_CONTEXT(3)
GLOBAL_UNCERTAINTY_ASSIGNED_CONTEXT((#1373))
GLOBAL_UNIT_ASSIGNED_CONTEXT((#1376,#1378,#1379))
REPRESENTATION_CONTEXT('','3D')
);
#1376=(
LENGTH_UNIT()
NAMED_UNIT(*)
SI_UNIT(.MILLI.,.METRE.)
);
#1377=(
LENGTH_UNIT()
NAMED_UNIT(*)
SI_UNIT(.CENTI.,.METRE.)
);
#1378=(
NAMED_UNIT(*)
PLANE_ANGLE_UNIT()
SI_UNIT($,.RADIAN.)
);
#1379=(
NAMED_UNIT(*)
SI_UNIT($,.STERADIAN.)
SOLID_ANGLE_UNIT()
);
#1380=SHAPE_DEFINITION_REPRESENTATION(#1381,#1382);
#1381=PRODUCT_DEFINITION_SHAPE('',$,#1384);
#1382=SHAPE_REPRESENTATION('',(#633),#1374);
#1383=PRODUCT_DEFINITION_CONTEXT('part definition',#1388,'design');
#1384=PRODUCT_DEFINITION('Servo Mount','Servo Mount for Elevator',#1385,
#1383);
#1385=PRODUCT_DEFINITION_FORMATION('ANY',$,#1390);
#1386=PRODUCT_RELATED_PRODUCT_CATEGORY('Servo Mount for Elevator',
'Servo Mount for Elevator',(#1390));
#1387=APPLICATION_PROTOCOL_DEFINITION('international standard',
'automotive_design',2009,#1388);
#1388=APPLICATION_CONTEXT(
'Core Data for Automotive Mechanical Design Process');
#1389=PRODUCT_CONTEXT('part definition',#1388,'mechanical');
#1390=PRODUCT('Servo Mount','Servo Mount for Elevator','STEP AP214',(#1389));
#1391=PRESENTATION_STYLE_ASSIGNMENT((#1393));
#1392=PRESENTATION_STYLE_ASSIGNMENT((#1394));
#1393=SURFACE_STYLE_USAGE(.BOTH.,#1399);
#1394=SURFACE_STYLE_USAGE(.BOTH.,#1400);
#1395=SURFACE_STYLE_RENDERING_WITH_PROPERTIES($,#1407,(#1397));
#1396=SURFACE_STYLE_RENDERING_WITH_PROPERTIES($,#1408,(#1398));
#1397=SURFACE_STYLE_TRANSPARENT(0.);
#1398=SURFACE_STYLE_TRANSPARENT(0.);
#1399=SURFACE_SIDE_STYLE('',(#1401,#1395));
#1400=SURFACE_SIDE_STYLE('',(#1402,#1396));
#1401=SURFACE_STYLE_FILL_AREA(#1403);
#1402=SURFACE_STYLE_FILL_AREA(#1404);
#1403=FILL_AREA_STYLE('',(#1405));
#1404=FILL_AREA_STYLE('',(#1406));
#1405=FILL_AREA_STYLE_COLOUR('',#1407);
#1406=FILL_AREA_STYLE_COLOUR('',#1408);
#1407=COLOUR_RGB('',0.749019607843137,0.749019607843137,0.749019607843137);
#1408=COLOUR_RGB('',0.792156862745098,0.819607843137255,0.933333333333333);
ENDSEC;
END-ISO-10303-21;
