ISO-10303-21;
HEADER;
FILE_DESCRIPTION (( 'STEP AP214' ),
    '1' );
FILE_NAME ('Servo Mount.STEP',
    '2026-09-08T23:05:55',
    ( 'Windows User' ),
    ( '' ),
    'SwSTEP 2.0',
    'SolidWorks 2025',
    '' );
FILE_SCHEMA (( 'AUTOMOTIVE_DESIGN' ));
ENDSEC;

DATA;
#1 = DIRECTION ( 'NONE',  ( 0.000000000000000000, 0.000000000000000000, 1.000000000000000000 ) ) ;
#2 = ORIENTED_EDGE ( 'NONE', *, *, #34, .F. ) ;
#3 = DIRECTION ( 'NONE',  ( 0.000000000000000000, -0.000000000000000000, 1.000000000000000000 ) ) ;
#4 = VERTEX_POINT ( 'NONE', #393 ) ;
#5 = DIRECTION ( 'NONE',  ( -0.000000000000000000, 1.000000000000000000, 0.000000000000000000 ) ) ;
#6 = ORIENTED_EDGE ( 'NONE', *, *, #898, .T. ) ;
#7 = DIRECTION ( 'NONE',  ( 1.000000000000000000, 0.000000000000000000, 0.000000000000000000 ) ) ;
#8 = ADVANCED_FACE ( 'NONE', ( #311 ), #226, .T. ) ;
#9 = VERTEX_POINT ( 'NONE', #300 ) ;
#10 = DIRECTION ( 'NONE',  ( -1.000000000000000000, 0.000000000000000000, 0.000000000000000000 ) ) ;
#11 = ORIENTED_EDGE ( 'NONE', *, *, #551, .F. ) ;
#12 = VECTOR ( 'NONE', #907, 1000.000000000000000 ) ;
#13 = DIRECTION ( 'NONE',  ( 0.000000000000000000, -1.000000000000000000, 9.592704927665759355E-17 ) ) ;
#14 = VERTEX_POINT ( 'NONE', #604 ) ;
#15 = CIRCLE ( 'NONE', #619, 4.000000000000000000 ) ;
#16 = CARTESIAN_POINT ( 'NONE',  ( 1.000000000000000888, 21.00000000000000000, -6.000000000000001776 ) ) ;
#17 = CARTESIAN_POINT ( 'NONE',  ( 0.000000000000000000, 21.00000000000000000, 5.000000000000001776 ) ) ;
#18 = DIRECTION ( 'NONE',  ( 0.000000000000000000, 0.000000000000000000, -1.000000000000000000 ) ) ;
#19 = VERTEX_POINT ( 'NONE', #321 ) ;
#20 = EDGE_CURVE ( 'NONE', #838, #136, #267, .T. ) ;
#21 = CIRCLE ( 'NONE', #785, 1.000000000000000000 ) ;
#22 = EDGE_CURVE ( 'NONE', #754, #433, #89, .T. ) ;
#23 = DIRECTION ( 'NONE',  ( 0.000000000000000000, 0.000000000000000000, 1.000000000000000000 ) ) ;
#24 = EDGE_LOOP ( 'NONE', ( #648, #353, #349, #713 ) ) ;
#25 = DIRECTION ( 'NONE',  ( 0.000000000000000000, 1.000000000000000000, -0.000000000000000000 ) ) ;
#26 = VERTEX_POINT ( 'NONE', #17 ) ;
#27 = CARTESIAN_POINT ( 'NONE',  ( 39.00000000000000000, 21.00000000000000000, 5.000000000000001776 ) ) ;
#28 = CARTESIAN_POINT ( 'NONE',  ( 40.00000000000000000, 4.898587196589412829E-16, -4.000000000000000000 ) ) ;
#29 = FACE_OUTER_BOUND ( 'NONE', #66, .T. ) ;
#30 = ORIENTED_EDGE ( 'NONE', *, *, #141, .F. ) ;
#31 = VECTOR ( 'NONE', #23, 1000.000000000000000 ) ;
#32 = AXIS2_PLACEMENT_3D ( 'NONE', #509, #70, #878 ) ;
#33 = FACE_OUTER_BOUND ( 'NONE', #710, .T. ) ;
#34 = EDGE_CURVE ( 'NONE', #578, #491, #861, .T. ) ;
#35 = CARTESIAN_POINT ( 'NONE',  ( 39.00000000000000000, 21.00000000000000000, -5.000000000000001776 ) ) ;
#36 = ORIENTED_EDGE ( 'NONE', *, *, #92, .T. ) ;
#37 = AXIS2_PLACEMENT_3D ( 'NONE', #931, #849, #924 ) ;
#38 = DIRECTION ( 'NONE',  ( 1.000000000000000000, 0.000000000000000000, 0.000000000000000000 ) ) ;
#39 = LINE ( 'NONE', #845, #707 ) ;
#40 = ORIENTED_EDGE ( 'NONE', *, *, #791, .T. ) ;
#41 = EDGE_CURVE ( 'NONE', #488, #728, #448, .T. ) ;
#42 = CARTESIAN_POINT ( 'NONE',  ( 40.00000000000000000, 21.00000000000000000, -6.000000000000001776 ) ) ;
#43 = LINE ( 'NONE', #178, #901 ) ;
#44 = ORIENTED_EDGE ( 'NONE', *, *, #92, .F. ) ;
#45 = VECTOR ( 'NONE', #61, 1000.000000000000000 ) ;
#46 = VECTOR ( 'NONE', #220, 1000.000000000000000 ) ;
#47 = AXIS2_PLACEMENT_3D ( 'NONE', #424, #794, #417 ) ;
#48 = CARTESIAN_POINT ( 'NONE',  ( 0.000000000000000000, -1.690968657308585588, 3.625000000000000000 ) ) ;
#49 = CARTESIAN_POINT ( 'NONE',  ( 4.499999999999999112, 17.00000000000000000, -49.08131845707603702 ) ) ;
#50 = ORIENTED_EDGE ( 'NONE', *, *, #928, .F. ) ;
#51 = ADVANCED_FACE ( 'NONE', ( #748 ), #895, .F. ) ;
#52 = ADVANCED_FACE ( 'NONE', ( #525 ), #828, .F. ) ;
#53 = FACE_OUTER_BOUND ( 'NONE', #228, .T. ) ;
#54 = VERTEX_POINT ( 'NONE', #821 ) ;
#55 = LINE ( 'NONE', #952, #506 ) ;
#56 = CARTESIAN_POINT ( 'NONE',  ( 0.000000000000000000, 0.000000000000000000, 4.000000000000000000 ) ) ;
#57 = EDGE_CURVE ( 'NONE', #298, #914, #154, .T. ) ;
#58 = CARTESIAN_POINT ( 'NONE',  ( 4.499999999999999112, 11.00000000000000355, 5.999999999999999112 ) ) ;
#59 = VERTEX_POINT ( 'NONE', #28 ) ;
#60 = CARTESIAN_POINT ( 'NONE',  ( 0.000000000000000000, -3.041889066001564501, -4.999999999999999112 ) ) ;
#61 = DIRECTION ( 'NONE',  ( -1.000000000000000000, -0.000000000000000000, -0.000000000000000000 ) ) ;
#62 = ADVANCED_FACE ( 'NONE', ( #621 ), #326, .F. ) ;
#63 = EDGE_LOOP ( 'NONE', ( #906, #683, #98 ) ) ;
#64 = DIRECTION ( 'NONE',  ( -1.000000000000000000, -1.508455196501571429E-16, -0.000000000000000000 ) ) ;
#65 = VECTOR ( 'NONE', #623, 1000.000000000000000 ) ;
#66 = EDGE_LOOP ( 'NONE', ( #738, #208, #404, #425 ) ) ;
#67 = CIRCLE ( 'NONE', #189, 1.000000000000000000 ) ;
#68 = LINE ( 'NONE', #361, #386 ) ;
#69 = ORIENTED_EDGE ( 'NONE', *, *, #255, .F. ) ;
#70 = DIRECTION ( 'NONE',  ( -0.000000000000000000, -1.000000000000000000, -0.000000000000000000 ) ) ;
#71 = VERTEX_POINT ( 'NONE', #175 ) ;
#72 = DIRECTION ( 'NONE',  ( -1.000000000000000000, -0.000000000000000000, -0.000000000000000000 ) ) ;
#73 = PRODUCT_RELATED_PRODUCT_CATEGORY ( 'part', '', ( #359 ) ) ;
#74 = DIRECTION ( 'NONE',  ( 0.000000000000000000, 1.000000000000000000, 0.000000000000000000 ) ) ;
#75 = DIRECTION ( 'NONE',  ( -1.000000000000000000, -4.476705744456275355E-16, 0.000000000000000000 ) ) ;
#76 = VECTOR ( 'NONE', #441, 1000.000000000000000 ) ;
#77 = DIRECTION ( 'NONE',  ( 0.000000000000000000, 1.000000000000000000, -9.592704927665759355E-17 ) ) ;
#78 = APPLICATION_CONTEXT ( 'automotive_design' ) ;
#79 = EDGE_CURVE ( 'NONE', #543, #736, #917, .T. ) ;
#80 = CARTESIAN_POINT ( 'NONE',  ( 0.000000000000000000, -3.041889066001564501, 3.625000000000000000 ) ) ;
#81 = ORIENTED_EDGE ( 'NONE', *, *, #608, .F. ) ;
#82 = DIRECTION ( 'NONE',  ( -0.000000000000000000, 9.592704927665759355E-17, 1.000000000000000000 ) ) ;
#83 = EDGE_LOOP ( 'NONE', ( #30, #144, #891, #534 ) ) ;
#84 = DIRECTION ( 'NONE',  ( 0.000000000000000000, 0.000000000000000000, -1.000000000000000000 ) ) ;
#85 = ORIENTED_EDGE ( 'NONE', *, *, #522, .T. ) ;
#86 = CARTESIAN_POINT ( 'NONE',  ( 40.00000000000000000, -3.041889066001564501, -5.999999999999999112 ) ) ;
#87 = ORIENTED_EDGE ( 'NONE', *, *, #203, .T. ) ;
#88 = DIRECTION ( 'NONE',  ( -1.000000000000000000, 0.000000000000000000, 0.000000000000000000 ) ) ;
#89 = LINE ( 'NONE', #389, #560 ) ;
#90 = VECTOR ( 'NONE', #332, 1000.000000000000000 ) ;
#91 = CIRCLE ( 'NONE', #214, 4.000000000000000000 ) ;
#92 = EDGE_CURVE ( 'NONE', #706, #435, #772, .T. ) ;
#93 = CARTESIAN_POINT ( 'NONE',  ( 31.50000000000000000, 7.125000000000002665, 5.999999999999999112 ) ) ;
#94 = ORIENTED_EDGE ( 'NONE', *, *, #547, .T. ) ;
#95 = CIRCLE ( 'NONE', #309, 1.000000000000000000 ) ;
#96 = UNCERTAINTY_MEASURE_WITH_UNIT (LENGTH_MEASURE( 1.000000000000000082E-05 ), #572, 'distance_accuracy_value', 'NONE');
#97 = PLANE ( 'NONE',  #915 ) ;
#98 = ORIENTED_EDGE ( 'NONE', *, *, #763, .F. ) ;
#99 = EDGE_LOOP ( 'NONE', ( #219, #307, #364, #834 ) ) ;
#100 = CIRCLE ( 'NONE', #609, 1.000000000000000000 ) ;
#101 = CARTESIAN_POINT ( 'NONE',  ( 1.000000000000000000, 21.00000000000000000, -5.000000000000001776 ) ) ;
#102 = DIRECTION ( 'NONE',  ( -1.000000000000000000, -0.000000000000000000, -0.000000000000000000 ) ) ;
#103 = SPHERICAL_SURFACE ( 'NONE', #829, 1.000000000000000000 ) ;
#104 = ORIENTED_EDGE ( 'NONE', *, *, #110, .T. ) ;
#105 = EDGE_CURVE ( 'NONE', #179, #9, #100, .T. ) ;
#106 = DIRECTION ( 'NONE',  ( 0.000000000000000000, -1.000000000000000000, -9.592704927665759355E-17 ) ) ;
#107 = DIRECTION ( 'NONE',  ( 3.771137991253927957E-17, -1.000000000000000000, 0.000000000000000000 ) ) ;
#108 = ORIENTED_EDGE ( 'NONE', *, *, #958, .T. ) ;
#109 = DIRECTION ( 'NONE',  ( 0.000000000000000000, -1.000000000000000000, 0.000000000000000000 ) ) ;
#110 = EDGE_CURVE ( 'NONE', #638, #117, #21, .T. ) ;
#111 =( LENGTH_UNIT ( ) NAMED_UNIT ( * ) SI_UNIT ( .MILLI., .METRE. ) );
#112 = ORIENTED_EDGE ( 'NONE', *, *, #910, .F. ) ;
#113 = AXIS2_PLACEMENT_3D ( 'NONE', #449, #378, #406 ) ;
#114 = VECTOR ( 'NONE', #470, 1000.000000000000000 ) ;
#115 = DIRECTION ( 'NONE',  ( -8.673617379884035472E-16, 0.000000000000000000, 1.000000000000000000 ) ) ;
#116 = DIRECTION ( 'NONE',  ( 0.000000000000000000, 1.000000000000000000, 9.592704927665759355E-17 ) ) ;
#117 = VERTEX_POINT ( 'NONE', #439 ) ;
#118 = CARTESIAN_POINT ( 'NONE',  ( 40.00000000000000000, 21.00000000000000000, -5.000000000000000888 ) ) ;
#119 = DIRECTION ( 'NONE',  ( 0.000000000000000000, 1.000000000000000000, 0.000000000000000000 ) ) ;
#120 = ORIENTED_EDGE ( 'NONE', *, *, #832, .T. ) ;
#121 = EDGE_CURVE ( 'NONE', #465, #781, #654, .T. ) ;
#122 = ADVANCED_FACE ( 'NONE', ( #512 ), #419, .F. ) ;
#123 = AXIS2_PLACEMENT_3D ( 'NONE', #833, #303, #524 ) ;
#124 =( NAMED_UNIT ( * ) SI_UNIT ( $, .STERADIAN. ) SOLID_ANGLE_UNIT ( ) );
#125 = CARTESIAN_POINT ( 'NONE',  ( 40.00000000000000000, -1.690968657308585588, 3.625000000000000000 ) ) ;
#126 = ORIENTED_EDGE ( 'NONE', *, *, #665, .T. ) ;
#127 = DIRECTION ( 'NONE',  ( 0.000000000000000000, 0.000000000000000000, 1.000000000000000000 ) ) ;
#128 = CARTESIAN_POINT ( 'NONE',  ( 0.000000000000000000, 0.000000000000000000, 0.000000000000000000 ) ) ;
#129 = CARTESIAN_POINT ( 'NONE',  ( 4.499999999999999112, 11.00000000000000355, -49.08131845707603702 ) ) ;
#130 = ORIENTED_EDGE ( 'NONE', *, *, #746, .T. ) ;
#131 = DIRECTION ( 'NONE',  ( 0.000000000000000000, 0.000000000000000000, 1.000000000000000000 ) ) ;
#132 = EDGE_CURVE ( 'NONE', #591, #728, #67, .T. ) ;
#133 = CARTESIAN_POINT ( 'NONE',  ( 1.000000000000000000, 21.00000000000000000, -5.000000000000001776 ) ) ;
#134 = ORIENTED_EDGE ( 'NONE', *, *, #963, .F. ) ;
#135 = CARTESIAN_POINT ( 'NONE',  ( 1.000000000000000888, -3.041889066001564501, -4.999999999999999112 ) ) ;
#136 = VERTEX_POINT ( 'NONE', #423 ) ;
#137 = CIRCLE ( 'NONE', #569, 1.000000000000000000 ) ;
#138 = AXIS2_PLACEMENT_3D ( 'NONE', #459, #25, #382 ) ;
#139 = LINE ( 'NONE', #437, #371 ) ;
#140 = ORIENTED_EDGE ( 'NONE', *, *, #522, .F. ) ;
#141 = EDGE_CURVE ( 'NONE', #59, #465, #588, .T. ) ;
#142 = DIRECTION ( 'NONE',  ( -1.000000000000000000, -0.000000000000000000, -0.000000000000000000 ) ) ;
#143 = CARTESIAN_POINT ( 'NONE',  ( 39.00000000000000000, 22.00000000000000355, 5.000000000000001776 ) ) ;
#144 = ORIENTED_EDGE ( 'NONE', *, *, #847, .T. ) ;
#145 = VECTOR ( 'NONE', #102, 1000.000000000000000 ) ;
#146 = CARTESIAN_POINT ( 'NONE',  ( 4.499999999999999112, 11.00000000000000711, -5.999999999999998224 ) ) ;
#147 = ORIENTED_EDGE ( 'NONE', *, *, #383, .T. ) ;
#148 = CARTESIAN_POINT ( 'NONE',  ( 39.00000000000000000, 21.00000000000000000, 5.000000000000001776 ) ) ;
#149 = EDGE_LOOP ( 'NONE', ( #510, #130, #414, #879, #939, #381, #812, #501, #886, #126 ) ) ;
#150 = CARTESIAN_POINT ( 'NONE',  ( 0.000000000000000000, -3.041889066001564501, 3.625000000000000000 ) ) ;
#151 = ADVANCED_FACE ( 'NONE', ( #592 ), #947, .F. ) ;
#152 = VECTOR ( 'NONE', #916, 1000.000000000000000 ) ;
#153 = DIRECTION ( 'NONE',  ( 0.000000000000000000, 0.000000000000000000, 1.000000000000000000 ) ) ;
#154 = LINE ( 'NONE', #160, #145 ) ;
#155 =( GEOMETRIC_REPRESENTATION_CONTEXT ( 3 ) GLOBAL_UNCERTAINTY_ASSIGNED_CONTEXT ( ( #909 ) ) GLOBAL_UNIT_ASSIGNED_CONTEXT ( ( #111, #278, #874 ) ) REPRESENTATION_CONTEXT ( 'NONE', 'WORKASPACE' ) );
#156 = DIRECTION ( 'NONE',  ( 0.000000000000000000, 0.000000000000000000, -1.000000000000000000 ) ) ;
#157 = ORIENTED_EDGE ( 'NONE', *, *, #224, .T. ) ;
#158 = AXIS2_PLACEMENT_3D ( 'NONE', #86, #82, #13 ) ;
#159 = DIRECTION ( 'NONE',  ( 0.000000000000000000, 0.000000000000000000, 1.000000000000000000 ) ) ;
#160 = CARTESIAN_POINT ( 'NONE',  ( 40.00000000000000000, -1.690968657308585588, 3.625000000000000000 ) ) ;
#161 = DIRECTION ( 'NONE',  ( -1.000000000000000000, 0.000000000000000000, -0.000000000000000000 ) ) ;
#162 = EDGE_LOOP ( 'NONE', ( #187, #836, #932, #168 ) ) ;
#163 = FACE_OUTER_BOUND ( 'NONE', #467, .T. ) ;
#164 = EDGE_LOOP ( 'NONE', ( #852, #140, #568, #903 ) ) ;
#165 = CARTESIAN_POINT ( 'NONE',  ( 40.00000000000000000, 0.000000000000000000, 0.000000000000000000 ) ) ;
#166 = ORIENTED_EDGE ( 'NONE', *, *, #493, .F. ) ;
#167 = DIRECTION ( 'NONE',  ( -0.000000000000000000, -1.000000000000000000, 9.592704927665759355E-17 ) ) ;
#168 = ORIENTED_EDGE ( 'NONE', *, *, #432, .T. ) ;
#169 = VECTOR ( 'NONE', #641, 1000.000000000000000 ) ;
#170 = AXIS2_PLACEMENT_3D ( 'NONE', #649, #434, #729 ) ;
#171 = FACE_OUTER_BOUND ( 'NONE', #652, .T. ) ;
#172 = EDGE_CURVE ( 'NONE', #71, #9, #580, .T. ) ;
#173 = ORIENTED_EDGE ( 'NONE', *, *, #614, .F. ) ;
#174 = CARTESIAN_POINT ( 'NONE',  ( 39.00000000000000000, 22.00000000000000355, -5.000000000000001776 ) ) ;
#175 = CARTESIAN_POINT ( 'NONE',  ( 39.00000000000000000, -3.041889066001564501, -5.999999999999999112 ) ) ;
#176 = EDGE_LOOP ( 'NONE', ( #724, #532, #818, #629, #475, #44, #743, #597 ) ) ;
#177 = FACE_OUTER_BOUND ( 'NONE', #63, .T. ) ;
#178 = CARTESIAN_POINT ( 'NONE',  ( 1.000000000000000000, 22.00000000000000355, 5.999999999999998224 ) ) ;
#179 = VERTEX_POINT ( 'NONE', #60 ) ;
#180 = EDGE_CURVE ( 'NONE', #239, #677, #500, .T. ) ;
#181 = CARTESIAN_POINT ( 'NONE',  ( 40.00000000000000000, 4.898587196589412829E-16, -4.000000000000000000 ) ) ;
#182 = FACE_OUTER_BOUND ( 'NONE', #953, .T. ) ;
#183 = VERTEX_POINT ( 'NONE', #355 ) ;
#184 = AXIS2_PLACEMENT_3D ( 'NONE', #297, #280, #575 ) ;
#185 = SPHERICAL_SURFACE ( 'NONE', #823, 1.000000000000000000 ) ;
#186 = CARTESIAN_POINT ( 'NONE',  ( 40.00000000000000000, -1.690968657308585810, -3.625000000000000000 ) ) ;
#187 = ORIENTED_EDGE ( 'NONE', *, *, #871, .T. ) ;
#188 = CIRCLE ( 'NONE', #37, 1.000000000000000000 ) ;
#189 = AXIS2_PLACEMENT_3D ( 'NONE', #504, #813, #735 ) ;
#190 = CARTESIAN_POINT ( 'NONE',  ( 40.00000000000000000, -3.041889066001564501, 4.999999999999999112 ) ) ;
#191 = ADVANCED_FACE ( 'NONE', ( #804 ), #739, .T. ) ;
#192 = DIRECTION ( 'NONE',  ( 0.000000000000000000, 0.000000000000000000, -1.000000000000000000 ) ) ;
#193 = ORIENTED_EDGE ( 'NONE', *, *, #420, .T. ) ;
#194 = EDGE_CURVE ( 'NONE', #491, #736, #68, .T. ) ;
#195 = LINE ( 'NONE', #356, #669 ) ;
#196 = CARTESIAN_POINT ( 'NONE',  ( 0.000000000000000000, 21.00000000000000000, -5.999999999999998224 ) ) ;
#197 = ORIENTED_EDGE ( 'NONE', *, *, #180, .T. ) ;
#198 = CIRCLE ( 'NONE', #32, 1.000000000000000000 ) ;
#199 = FACE_OUTER_BOUND ( 'NONE', #694, .T. ) ;
#200 = ORIENTED_EDGE ( 'NONE', *, *, #494, .T. ) ;
#201 = DIRECTION ( 'NONE',  ( -1.000000000000000000, -0.000000000000000000, -0.000000000000000000 ) ) ;
#202 = AXIS2_PLACEMENT_3D ( 'NONE', #786, #789, #192 ) ;
#203 = EDGE_CURVE ( 'NONE', #677, #633, #957, .T. ) ;
#204 = SHAPE_DEFINITION_REPRESENTATION ( #598, #625 ) ;
#205 = FACE_OUTER_BOUND ( 'NONE', #274, .T. ) ;
#206 = VERTEX_POINT ( 'NONE', #213 ) ;
#207 = CARTESIAN_POINT ( 'NONE',  ( 40.00000000000000000, -3.041889066001564501, -5.999999999999999112 ) ) ;
#208 = ORIENTED_EDGE ( 'NONE', *, *, #217, .T. ) ;
#209 = ADVANCED_FACE ( 'NONE', ( #365 ), #664, .F. ) ;
#210 = CARTESIAN_POINT ( 'NONE',  ( 8.499999999999998224, 17.00000000000000000, -49.08131845707603702 ) ) ;
#211 = LINE ( 'NONE', #129, #867 ) ;
#212 = EDGE_LOOP ( 'NONE', ( #863, #611, #450, #956, #11, #659, #925, #50 ) ) ;
#213 = CARTESIAN_POINT ( 'NONE',  ( 8.499999999999998224, 11.00000000000000355, -5.999999999999998224 ) ) ;
#214 = AXIS2_PLACEMENT_3D ( 'NONE', #165, #238, #536 ) ;
#215 = DIRECTION ( 'NONE',  ( 0.000000000000000000, 1.000000000000000000, 0.000000000000000000 ) ) ;
#216 = VECTOR ( 'NONE', #38, 1000.000000000000000 ) ;
#217 = EDGE_CURVE ( 'NONE', #543, #559, #55, .T. ) ;
#218 = DIRECTION ( 'NONE',  ( 1.000000000000000000, 1.508455196501571183E-16, -1.447016559664364439E-32 ) ) ;
#219 = ORIENTED_EDGE ( 'NONE', *, *, #622, .F. ) ;
#220 = DIRECTION ( 'NONE',  ( -1.000000000000000000, -0.000000000000000000, -0.000000000000000000 ) ) ;
#221 = CYLINDRICAL_SURFACE ( 'NONE', #250, 1.000000000000000000 ) ;
#222 = ORIENTED_EDGE ( 'NONE', *, *, #734, .T. ) ;
#223 = CARTESIAN_POINT ( 'NONE',  ( 40.00000000000000000, -3.041889066001564501, 3.625000000000000000 ) ) ;
#224 = EDGE_CURVE ( 'NONE', #183, #340, #586, .T. ) ;
#225 = CARTESIAN_POINT ( 'NONE',  ( 39.00000000000000000, 21.00000000000000000, -5.000000000000000888 ) ) ;
#226 = CYLINDRICAL_SURFACE ( 'NONE', #933, 1.000000000000000000 ) ;
#227 = CARTESIAN_POINT ( 'NONE',  ( 4.499999999999999112, 11.00000000000000355, -49.08131845707603702 ) ) ;
#228 = EDGE_LOOP ( 'NONE', ( #104, #193, #527 ) ) ;
#229 = PRODUCT_DEFINITION ( 'UNKNOWN', '', #291, #692 ) ;
#230 = LINE ( 'NONE', #236, #387 ) ;
#231 = DIRECTION ( 'NONE',  ( 0.000000000000000000, -1.000000000000000000, 9.592704927665759355E-17 ) ) ;
#232 = CARTESIAN_POINT ( 'NONE',  ( 40.00000000000000000, -1.690968657308585588, 3.625000000000000000 ) ) ;
#233 = ORIENTED_EDGE ( 'NONE', *, *, #57, .T. ) ;
#234 = EDGE_CURVE ( 'NONE', #298, #875, #428, .T. ) ;
#235 = CIRCLE ( 'NONE', #113, 4.000000000000000000 ) ;
#236 = CARTESIAN_POINT ( 'NONE',  ( 8.499999999999998224, 11.00000000000000355, -49.08131845707603702 ) ) ;
#237 = DIRECTION ( 'NONE',  ( 0.000000000000000000, -1.000000000000000000, 0.000000000000000000 ) ) ;
#238 = DIRECTION ( 'NONE',  ( -1.000000000000000000, -0.000000000000000000, -0.000000000000000000 ) ) ;
#239 = VERTEX_POINT ( 'NONE', #800 ) ;
#240 = EDGE_CURVE ( 'NONE', #875, #59, #91, .T. ) ;
#241 = CARTESIAN_POINT ( 'NONE',  ( 39.00000000000000000, -3.041889066001564501, -4.999999999999999112 ) ) ;
#242 = CARTESIAN_POINT ( 'NONE',  ( 1.000000000000000888, 21.00000000000000000, 5.000000000000001776 ) ) ;
#243 = LINE ( 'NONE', #306, #554 ) ;
#244 = VERTEX_POINT ( 'NONE', #93 ) ;
#245 = DIRECTION ( 'NONE',  ( 0.000000000000000000, 0.000000000000000000, 1.000000000000000000 ) ) ;
#246 = CARTESIAN_POINT ( 'NONE',  ( 39.00000000000000000, 22.00000000000000355, -49.08131845707603702 ) ) ;
#247 = ADVANCED_FACE ( 'NONE', ( #830 ), #769, .T. ) ;
#248 = CARTESIAN_POINT ( 'NONE',  ( 8.500000000000000000, 7.125000000000001776, -5.999999999999998224 ) ) ;
#249 = ORIENTED_EDGE ( 'NONE', *, *, #630, .T. ) ;
#250 = AXIS2_PLACEMENT_3D ( 'NONE', #376, #533, #88 ) ;
#251 = LINE ( 'NONE', #264, #216 ) ;
#252 = DIRECTION ( 'NONE',  ( -1.000000000000000000, -1.508455196501571183E-16, 0.000000000000000000 ) ) ;
#253 = DIRECTION ( 'NONE',  ( 1.000000000000000000, 3.771137991253927957E-17, 0.000000000000000000 ) ) ;
#254 = ORIENTED_EDGE ( 'NONE', *, *, #494, .F. ) ;
#255 = EDGE_CURVE ( 'NONE', #488, #559, #462, .T. ) ;
#256 = CARTESIAN_POINT ( 'NONE',  ( 31.50000000000000000, 19.12500000000001066, -5.999999999999999112 ) ) ;
#257 = PRESENTATION_STYLE_ASSIGNMENT (( #918 ) ) ;
#258 = VERTEX_POINT ( 'NONE', #839 ) ;
#259 = LINE ( 'NONE', #190, #866 ) ;
#260 = FACE_OUTER_BOUND ( 'NONE', #149, .T. ) ;
#261 = ORIENTED_EDGE ( 'NONE', *, *, #608, .T. ) ;
#262 = AXIS2_PLACEMENT_3D ( 'NONE', #695, #7, #156 ) ;
#263 = ADVANCED_FACE ( 'NONE', ( #322 ), #822, .F. ) ;
#264 = CARTESIAN_POINT ( 'NONE',  ( 8.499999999999998224, 17.00000000000000000, -5.999999999999998224 ) ) ;
#265 = DIRECTION ( 'NONE',  ( 0.000000000000000000, 9.592704927665759355E-17, -1.000000000000000000 ) ) ;
#266 = ORIENTED_EDGE ( 'NONE', *, *, #715, .F. ) ;
#267 = CIRCLE ( 'NONE', #816, 4.000000000000000000 ) ;
#268 = CARTESIAN_POINT ( 'NONE',  ( 40.00000000000000000, 0.000000000000000000, 4.000000000000000000 ) ) ;
#269 = CYLINDRICAL_SURFACE ( 'NONE', #47, 1.000000000000000000 ) ;
#270 = ORIENTED_EDGE ( 'NONE', *, *, #726, .F. ) ;
#271 = PRODUCT_CONTEXT ( 'NONE', #78, 'mechanical' ) ;
#272 = LINE ( 'NONE', #125, #718 ) ;
#273 = EDGE_CURVE ( 'NONE', #754, #239, #374, .T. ) ;
#274 = EDGE_LOOP ( 'NONE', ( #289, #516, #418, #757 ) ) ;
#275 = DIRECTION ( 'NONE',  ( -0.000000000000000000, 1.000000000000000000, 9.592704927665759355E-17 ) ) ;
#276 = VECTOR ( 'NONE', #716, 1000.000000000000000 ) ;
#277 = VECTOR ( 'NONE', #590, 1000.000000000000000 ) ;
#278 =( NAMED_UNIT ( * ) PLANE_ANGLE_UNIT ( ) SI_UNIT ( $, .RADIAN. ) );
#279 = ORIENTED_EDGE ( 'NONE', *, *, #714, .F. ) ;
#280 = DIRECTION ( 'NONE',  ( 0.000000000000000000, 0.000000000000000000, 1.000000000000000000 ) ) ;
#281 = AXIS2_PLACEMENT_3D ( 'NONE', #773, #333, #637 ) ;
#282 = EDGE_CURVE ( 'NONE', #781, #19, #243, .T. ) ;
#283 =( NAMED_UNIT ( * ) PLANE_ANGLE_UNIT ( ) SI_UNIT ( $, .RADIAN. ) );
#284 = ORIENTED_EDGE ( 'NONE', *, *, #551, .T. ) ;
#285 = DIRECTION ( 'NONE',  ( 0.000000000000000000, -0.000000000000000000, 1.000000000000000000 ) ) ;
#286 = EDGE_LOOP ( 'NONE', ( #770, #81, #613, #774 ) ) ;
#287 = DIRECTION ( 'NONE',  ( 0.000000000000000000, 0.000000000000000000, 1.000000000000000000 ) ) ;
#288 = LINE ( 'NONE', #563, #750 ) ;
#289 = ORIENTED_EDGE ( 'NONE', *, *, #797, .T. ) ;
#290 = DIRECTION ( 'NONE',  ( 0.000000000000000000, 1.000000000000000000, 0.000000000000000000 ) ) ;
#291 = PRODUCT_DEFINITION_FORMATION_WITH_SPECIFIED_SOURCE ( 'ANY', '', #359, .NOT_KNOWN. ) ;
#292 = ADVANCED_FACE ( 'NONE', ( #171 ), #675, .T. ) ;
#293 = VECTOR ( 'NONE', #811, 1000.000000000000000 ) ;
#294 = EDGE_CURVE ( 'NONE', #578, #26, #685, .T. ) ;
#295 = CARTESIAN_POINT ( 'NONE',  ( 39.00000000000000000, -4.796352463832879184E-16, 4.999999999999999112 ) ) ;
#296 = ORIENTED_EDGE ( 'NONE', *, *, #562, .F. ) ;
#297 = CARTESIAN_POINT ( 'NONE',  ( 39.00000000000000000, 21.00000000000000000, 0.000000000000000000 ) ) ;
#298 = VERTEX_POINT ( 'NONE', #232 ) ;
#299 = CARTESIAN_POINT ( 'NONE',  ( 0.000000000000000000, 0.000000000000000000, 0.000000000000000000 ) ) ;
#300 = CARTESIAN_POINT ( 'NONE',  ( 1.000000000000000888, -3.041889066001564501, -5.999999999999999112 ) ) ;
#301 = CARTESIAN_POINT ( 'NONE',  ( 0.000000000000000000, -3.041889066001564501, 4.999999999999999112 ) ) ;
#302 = ORIENTED_EDGE ( 'NONE', *, *, #468, .F. ) ;
#303 = DIRECTION ( 'NONE',  ( 1.000000000000000000, -0.000000000000000000, 0.000000000000000000 ) ) ;
#304 = DIRECTION ( 'NONE',  ( 0.000000000000000000, -1.000000000000000000, -9.592704927665759355E-17 ) ) ;
#305 = ADVANCED_FACE ( 'NONE', ( #526 ), #689, .F. ) ;
#306 = CARTESIAN_POINT ( 'NONE',  ( 40.00000000000000000, -3.041889066001564501, -3.625000000000000000 ) ) ;
#307 = ORIENTED_EDGE ( 'NONE', *, *, #401, .T. ) ;
#308 = AXIS2_PLACEMENT_3D ( 'NONE', #896, #18, #161 ) ;
#309 = AXIS2_PLACEMENT_3D ( 'NONE', #241, #751, #767 ) ;
#310 = LINE ( 'NONE', #603, #809 ) ;
#311 = FACE_OUTER_BOUND ( 'NONE', #460, .T. ) ;
#312 = FACE_OUTER_BOUND ( 'NONE', #337, .T. ) ;
#313 = VERTEX_POINT ( 'NONE', #317 ) ;
#314 = EDGE_CURVE ( 'NONE', #736, #323, #656, .T. ) ;
#315 = CARTESIAN_POINT ( 'NONE',  ( 0.000000000000000000, 22.00000000000000355, -49.08131845707603702 ) ) ;
#316 = ORIENTED_EDGE ( 'NONE', *, *, #871, .F. ) ;
#317 = CARTESIAN_POINT ( 'NONE',  ( 0.000000000000000000, -3.041889066001564501, -3.625000000000000000 ) ) ;
#318 = ORIENTED_EDGE ( 'NONE', *, *, #826, .T. ) ;
#319 = AXIS2_PLACEMENT_3D ( 'NONE', #242, #912, #377 ) ;
#320 = DIRECTION ( 'NONE',  ( 0.000000000000000000, 0.000000000000000000, 1.000000000000000000 ) ) ;
#321 = CARTESIAN_POINT ( 'NONE',  ( 40.00000000000000000, -3.041889066001564501, -4.999999999999998224 ) ) ;
#322 = FACE_OUTER_BOUND ( 'NONE', #768, .T. ) ;
#323 = VERTEX_POINT ( 'NONE', #301 ) ;
#324 = EDGE_CURVE ( 'NONE', #546, #54, #682, .T. ) ;
#325 = CARTESIAN_POINT ( 'NONE',  ( 40.00000000000000000, -3.041889066001564501, -3.625000000000000000 ) ) ;
#326 = PLANE ( 'NONE',  #436 ) ;
#327 = ADVANCED_FACE ( 'NONE', ( #595, #913 ), #520, .F. ) ;
#328 = DIRECTION ( 'NONE',  ( 0.000000000000000000, 0.000000000000000000, 1.000000000000000000 ) ) ;
#329 = ORIENTED_EDGE ( 'NONE', *, *, #784, .T. ) ;
#330 = AXIS2_PLACEMENT_3D ( 'NONE', #864, #727, #368 ) ;
#331 = AXIS2_PLACEMENT_3D ( 'NONE', #474, #107, #253 ) ;
#332 = DIRECTION ( 'NONE',  ( 0.000000000000000000, 0.000000000000000000, 1.000000000000000000 ) ) ;
#333 = DIRECTION ( 'NONE',  ( -1.000000000000000000, -0.000000000000000000, -0.000000000000000000 ) ) ;
#334 = ORIENTED_EDGE ( 'NONE', *, *, #814, .F. ) ;
#335 = DIRECTION ( 'NONE',  ( 1.000000000000000000, 0.000000000000000000, 0.000000000000000000 ) ) ;
#336 = CARTESIAN_POINT ( 'NONE',  ( 8.499999999999998224, 11.00000000000000355, -5.999999999999998224 ) ) ;
#337 = EDGE_LOOP ( 'NONE', ( #624, #681, #166, #157 ) ) ;
#338 = DIRECTION ( 'NONE',  ( -0.000000000000000000, 1.000000000000000000, 9.592704927665759355E-17 ) ) ;
#339 = CARTESIAN_POINT ( 'NONE',  ( 4.499999999999999112, 17.00000000000000000, -5.999999999999998224 ) ) ;
#340 = VERTEX_POINT ( 'NONE', #150 ) ;
#341 = VECTOR ( 'NONE', #540, 1000.000000000000000 ) ;
#342 = AXIS2_PLACEMENT_3D ( 'NONE', #758, #77, #601 ) ;
#343 = STYLED_ITEM ( 'NONE', ( #257 ), #476 ) ;
#344 = ADVANCED_FACE ( 'NONE', ( #312 ), #394, .F. ) ;
#345 = LINE ( 'NONE', #950, #446 ) ;
#346 = EDGE_LOOP ( 'NONE', ( #733, #254, #358, #846 ) ) ;
#347 = LINE ( 'NONE', #650, #701 ) ;
#348 = CARTESIAN_POINT ( 'NONE',  ( 39.00000000000000000, 21.00000000000000000, 6.000000000000001776 ) ) ;
#349 = ORIENTED_EDGE ( 'NONE', *, *, #535, .T. ) ;
#350 = CARTESIAN_POINT ( 'NONE',  ( 40.00000000000000000, -1.690968657308585588, -3.625000000000000000 ) ) ;
#351 = APPLICATION_PROTOCOL_DEFINITION ( 'draft international standard', 'automotive_design', 1998, #579 ) ;
#352 = DIRECTION ( 'NONE',  ( 0.000000000000000000, -0.000000000000000000, -1.000000000000000000 ) ) ;
#353 = ORIENTED_EDGE ( 'NONE', *, *, #240, .F. ) ;
#354 = EDGE_CURVE ( 'NONE', #258, #546, #892, .T. ) ;
#355 = CARTESIAN_POINT ( 'NONE',  ( 40.00000000000000000, -3.041889066001564501, 3.625000000000000000 ) ) ;
#356 = CARTESIAN_POINT ( 'NONE',  ( 31.50000000000000000, 7.125000000000002665, 5.999999999999999112 ) ) ;
#357 = CARTESIAN_POINT ( 'NONE',  ( 1.000000000000000888, 21.00000000000000000, 6.000000000000001776 ) ) ;
#358 = ORIENTED_EDGE ( 'NONE', *, *, #294, .F. ) ;
#359 = PRODUCT ( 'Servo Mount', 'Servo Mount', '', ( #271 ) ) ;
#360 = EDGE_CURVE ( 'NONE', #914, #951, #235, .T. ) ;
#361 = CARTESIAN_POINT ( 'NONE',  ( 1.000000000000000888, -3.041889066001564501, 5.999999999999999112 ) ) ;
#362 = AXIS2_PLACEMENT_3D ( 'NONE', #403, #265, #116 ) ;
#363 = LINE ( 'NONE', #566, #653 ) ;
#364 = ORIENTED_EDGE ( 'NONE', *, *, #562, .T. ) ;
#365 = FACE_OUTER_BOUND ( 'NONE', #960, .T. ) ;
#366 = ADVANCED_FACE ( 'NONE', ( #29, #642 ), #471, .F. ) ;
#367 = ADVANCED_FACE ( 'NONE', ( #260 ), #778, .T. ) ;
#368 = DIRECTION ( 'NONE',  ( 0.000000000000000000, -0.000000000000000000, 1.000000000000000000 ) ) ;
#369 = ORIENTED_EDGE ( 'NONE', *, *, #826, .F. ) ;
#370 = CARTESIAN_POINT ( 'NONE',  ( 8.499999999999998224, 19.12500000000000355, 5.999999999999999112 ) ) ;
#371 = VECTOR ( 'NONE', #868, 1000.000000000000000 ) ;
#372 = DIRECTION ( 'NONE',  ( 0.000000000000000000, 0.000000000000000000, 1.000000000000000000 ) ) ;
#373 = CARTESIAN_POINT ( 'NONE',  ( 8.499999999999998224, 11.00000000000000355, -49.08131845707603702 ) ) ;
#374 = LINE ( 'NONE', #819, #12 ) ;
#375 = ADVANCED_FACE ( 'NONE', ( #182 ), #478, .F. ) ;
#376 = CARTESIAN_POINT ( 'NONE',  ( 1.000000000000000000, 21.00000000000000000, -49.08131845707603702 ) ) ;
#377 = DIRECTION ( 'NONE',  ( 8.673617379884027583E-16, -1.000000000000000000, 0.000000000000000000 ) ) ;
#378 = DIRECTION ( 'NONE',  ( -1.000000000000000000, -0.000000000000000000, -0.000000000000000000 ) ) ;
#379 = ORIENTED_EDGE ( 'NONE', *, *, #565, .T. ) ;
#380 = FACE_OUTER_BOUND ( 'NONE', #346, .T. ) ;
#381 = ORIENTED_EDGE ( 'NONE', *, *, #240, .T. ) ;
#382 = DIRECTION ( 'NONE',  ( 0.000000000000000000, 0.000000000000000000, 1.000000000000000000 ) ) ;
#383 = EDGE_CURVE ( 'NONE', #313, #179, #857, .T. ) ;
#384 = ORIENTED_EDGE ( 'NONE', *, *, #383, .F. ) ;
#385 = VECTOR ( 'NONE', #771, 1000.000000000000000 ) ;
#386 = VECTOR ( 'NONE', #668, 1000.000000000000000 ) ;
#387 = VECTOR ( 'NONE', #1, 1000.000000000000000 ) ;
#388 = DIRECTION ( 'NONE',  ( 0.000000000000000000, 0.000000000000000000, 1.000000000000000000 ) ) ;
#389 = CARTESIAN_POINT ( 'NONE',  ( 31.50000000000000000, 7.125000000000007105, -5.999999999999998224 ) ) ;
#390 = CARTESIAN_POINT ( 'NONE',  ( 1.000000000000000000, 21.00000000000000000, 5.000000000000001776 ) ) ;
#391 = ORIENTED_EDGE ( 'NONE', *, *, #775, .T. ) ;
#392 = DIRECTION ( 'NONE',  ( 0.000000000000000000, 0.000000000000000000, 1.000000000000000000 ) ) ;
#393 = CARTESIAN_POINT ( 'NONE',  ( 40.00000000000000000, -3.041889066001564501, 4.999999999999999112 ) ) ;
#394 = PLANE ( 'NONE',  #607 ) ;
#395 = VERTEX_POINT ( 'NONE', #248 ) ;
#396 = AXIS2_PLACEMENT_3D ( 'NONE', #373, #237, #674 ) ;
#397 = LINE ( 'NONE', #181, #152 ) ;
#398 = CARTESIAN_POINT ( 'NONE',  ( 8.499999999999998224, 19.12500000000000355, -49.08131845707603702 ) ) ;
#399 = FILL_AREA_STYLE ('',( #705 ) ) ;
#400 = ORIENTED_EDGE ( 'NONE', *, *, #776, .F. ) ;
#401 = EDGE_CURVE ( 'NONE', #206, #706, #862, .T. ) ;
#402 = FACE_OUTER_BOUND ( 'NONE', #24, .T. ) ;
#403 = CARTESIAN_POINT ( 'NONE',  ( 40.00000000000000000, -3.041889066001564501, 5.999999999999999112 ) ) ;
#404 = ORIENTED_EDGE ( 'NONE', *, *, #721, .T. ) ;
#405 = VECTOR ( 'NONE', #921, 1000.000000000000000 ) ;
#406 = DIRECTION ( 'NONE',  ( 0.000000000000000000, 0.000000000000000000, -1.000000000000000000 ) ) ;
#407 = ORIENTED_EDGE ( 'NONE', *, *, #928, .T. ) ;
#408 = LINE ( 'NONE', #923, #882 ) ;
#409 = CARTESIAN_POINT ( 'NONE',  ( 8.499999999999998224, 17.00000000000000000, -5.999999999999998224 ) ) ;
#410 = ORIENTED_EDGE ( 'NONE', *, *, #910, .T. ) ;
#411 = ADVANCED_FACE ( 'NONE', ( #632 ), #712, .F. ) ;
#412 = DIRECTION ( 'NONE',  ( -1.000000000000000000, -0.000000000000000000, -0.000000000000000000 ) ) ;
#413 = DIRECTION ( 'NONE',  ( -1.000000000000000000, 0.000000000000000000, 0.000000000000000000 ) ) ;
#414 = ORIENTED_EDGE ( 'NONE', *, *, #963, .T. ) ;
#415 = VECTOR ( 'NONE', #167, 1000.000000000000000 ) ;
#416 = APPLICATION_PROTOCOL_DEFINITION ( 'draft international standard', 'automotive_design', 1998, #78 ) ;
#417 = DIRECTION ( 'NONE',  ( 0.000000000000000000, 0.000000000000000000, 1.000000000000000000 ) ) ;
#418 = ORIENTED_EDGE ( 'NONE', *, *, #132, .F. ) ;
#419 = CYLINDRICAL_SURFACE ( 'NONE', #485, 4.000000000000000000 ) ;
#420 = EDGE_CURVE ( 'NONE', #117, #14, #188, .T. ) ;
#421 = LINE ( 'NONE', #577, #293 ) ;
#422 = VERTEX_POINT ( 'NONE', #409 ) ;
#423 = CARTESIAN_POINT ( 'NONE',  ( 0.000000000000000000, -1.690968657308585810, -3.625000000000000000 ) ) ;
#424 = CARTESIAN_POINT ( 'NONE',  ( 40.00000000000000000, 21.00000000000000000, -5.000000000000001776 ) ) ;
#425 = ORIENTED_EDGE ( 'NONE', *, *, #194, .T. ) ;
#426 = DIRECTION ( 'NONE',  ( 0.000000000000000000, -1.000000000000000000, 0.000000000000000000 ) ) ;
#427 = ORIENTED_EDGE ( 'NONE', *, *, #715, .T. ) ;
#428 = CIRCLE ( 'NONE', #731, 4.000000000000000000 ) ;
#429 = AXIS2_PLACEMENT_3D ( 'NONE', #148, #74, #372 ) ;
#430 = DIRECTION ( 'NONE',  ( 1.000000000000000000, 0.000000000000000000, 0.000000000000000000 ) ) ;
#431 = DIRECTION ( 'NONE',  ( 0.000000000000000000, 1.000000000000000000, -9.592704927665759355E-17 ) ) ;
#432 = EDGE_CURVE ( 'NONE', #14, #578, #43, .T. ) ;
#433 = VERTEX_POINT ( 'NONE', #558 ) ;
#434 = DIRECTION ( 'NONE',  ( -1.000000000000000000, 0.000000000000000000, 0.000000000000000000 ) ) ;
#435 = VERTEX_POINT ( 'NONE', #339 ) ;
#436 = AXIS2_PLACEMENT_3D ( 'NONE', #398, #698, #252 ) ;
#437 = CARTESIAN_POINT ( 'NONE',  ( 40.00000000000000000, 0.000000000000000000, 4.000000000000000000 ) ) ;
#438 = ORIENTED_EDGE ( 'NONE', *, *, #314, .F. ) ;
#439 = CARTESIAN_POINT ( 'NONE',  ( 0.000000000000000000, 21.00000000000000000, -5.000000000000001776 ) ) ;
#440 = EDGE_CURVE ( 'NONE', #433, #395, #39, .T. ) ;
#441 = DIRECTION ( 'NONE',  ( -0.000000000000000000, -0.000000000000000000, -1.000000000000000000 ) ) ;
#442 = DIRECTION ( 'NONE',  ( 0.000000000000000000, 0.000000000000000000, -1.000000000000000000 ) ) ;
#443 = DIRECTION ( 'NONE',  ( 1.000000000000000000, 0.000000000000000000, 0.000000000000000000 ) ) ;
#444 = ADVANCED_FACE ( 'NONE', ( #545 ), #103, .T. ) ;
#445 = AXIS2_PLACEMENT_3D ( 'NONE', #101, #627, #115 ) ;
#446 = VECTOR ( 'NONE', #431, 1000.000000000000000 ) ;
#447 = DIRECTION ( 'NONE',  ( -0.000000000000000000, 1.000000000000000000, 9.592704927665759355E-17 ) ) ;
#448 = LINE ( 'NONE', #246, #904 ) ;
#449 = CARTESIAN_POINT ( 'NONE',  ( 0.000000000000000000, 0.000000000000000000, 0.000000000000000000 ) ) ;
#450 = ORIENTED_EDGE ( 'NONE', *, *, #324, .F. ) ;
#451 = VECTOR ( 'NONE', #709, 1000.000000000000000 ) ;
#452 = EDGE_CURVE ( 'NONE', #581, #244, #549, .T. ) ;
#453 = LINE ( 'NONE', #756, #793 ) ;
#454 = ORIENTED_EDGE ( 'NONE', *, *, #440, .T. ) ;
#455 = DIRECTION ( 'NONE',  ( 0.000000000000000000, 0.000000000000000000, -1.000000000000000000 ) ) ;
#456 = ORIENTED_EDGE ( 'NONE', *, *, #194, .F. ) ;
#457 = CARTESIAN_POINT ( 'NONE',  ( 8.499999999999998224, 17.00000000000000000, 5.999999999999999112 ) ) ;
#458 = CARTESIAN_POINT ( 'NONE',  ( 1.000000000000000888, -3.041889066001564501, 4.999999999999999112 ) ) ;
#459 = CARTESIAN_POINT ( 'NONE',  ( 1.000000000000000000, 21.00000000000000000, 5.000000000000001776 ) ) ;
#460 = EDGE_LOOP ( 'NONE', ( #438, #456, #564, #270 ) ) ;
#461 = VECTOR ( 'NONE', #851, 1000.000000000000000 ) ;
#462 = CIRCLE ( 'NONE', #262, 1.000000000000000000 ) ;
#463 = PRESENTATION_LAYER_ASSIGNMENT (  '', '', ( #343 ) ) ;
#464 = DIRECTION ( 'NONE',  ( 0.000000000000000000, -9.592704927665763053E-17, 1.000000000000000000 ) ) ;
#465 = VERTEX_POINT ( 'NONE', #186 ) ;
#466 = DIRECTION ( 'NONE',  ( 0.000000000000000000, 0.000000000000000000, 1.000000000000000000 ) ) ;
#467 = EDGE_LOOP ( 'NONE', ( #795, #690, #69, #316 ) ) ;
#468 = EDGE_CURVE ( 'NONE', #435, #258, #555, .T. ) ;
#469 = PLANE ( 'NONE',  #552 ) ;
#470 = DIRECTION ( 'NONE',  ( -1.000000000000000000, -0.000000000000000000, -0.000000000000000000 ) ) ;
#471 = PLANE ( 'NONE',  #362 ) ;
#472 = ORIENTED_EDGE ( 'NONE', *, *, #172, .T. ) ;
#473 = DIRECTION ( 'NONE',  ( -8.673617379884026597E-16, -0.000000000000000000, 1.000000000000000000 ) ) ;
#474 = CARTESIAN_POINT ( 'NONE',  ( 8.500000000000000000, 7.125000000000001776, -49.08131845707603702 ) ) ;
#475 = ORIENTED_EDGE ( 'NONE', *, *, #745, .F. ) ;
#476 = MANIFOLD_SOLID_BREP ( 'Fillet1', #661 ) ;
#477 = DIRECTION ( 'NONE',  ( 1.000000000000000000, 0.000000000000000000, 0.000000000000000000 ) ) ;
#478 = CYLINDRICAL_SURFACE ( 'NONE', #281, 4.000000000000000000 ) ;
#479 = ORIENTED_EDGE ( 'NONE', *, *, #622, .T. ) ;
#480 = VECTOR ( 'NONE', #612, 1000.000000000000000 ) ;
#481 = CARTESIAN_POINT ( 'NONE',  ( 39.00000000000000000, 21.00000000000000000, 5.000000000000001776 ) ) ;
#482 = EDGE_CURVE ( 'NONE', #9, #638, #345, .T. ) ;
#483 = CARTESIAN_POINT ( 'NONE',  ( 0.000000000000000000, -3.041889066001564501, -3.625000000000000000 ) ) ;
#484 = ORIENTED_EDGE ( 'NONE', *, *, #132, .T. ) ;
#485 = AXIS2_PLACEMENT_3D ( 'NONE', #725, #744, #658 ) ;
#486 = CARTESIAN_POINT ( 'NONE',  ( 40.00000000000000000, 0.000000000000000000, 0.000000000000000000 ) ) ;
#487 = DIRECTION ( 'NONE',  ( -1.000000000000000000, -3.771137991253927957E-17, 3.617541399160911097E-33 ) ) ;
#488 = VERTEX_POINT ( 'NONE', #143 ) ;
#489 = CARTESIAN_POINT ( 'NONE',  ( 8.499999999999998224, 17.00000000000000355, -5.999999999999998224 ) ) ;
#490 = CARTESIAN_POINT ( 'NONE',  ( 8.499999999999998224, 19.12500000000000355, -5.999999999999998224 ) ) ;
#491 = VERTEX_POINT ( 'NONE', #357 ) ;
#492 = VECTOR ( 'NONE', #873, 1000.000000000000000 ) ;
#493 = EDGE_CURVE ( 'NONE', #183, #298, #272, .T. ) ;
#494 = EDGE_CURVE ( 'NONE', #26, #117, #495, .T. ) ;
#495 = LINE ( 'NONE', #196, #766 ) ;
#496 = ORIENTED_EDGE ( 'NONE', *, *, #273, .T. ) ;
#497 = DIRECTION ( 'NONE',  ( 0.000000000000000000, 0.000000000000000000, -1.000000000000000000 ) ) ;
#498 = CARTESIAN_POINT ( 'NONE',  ( 39.00000000000000000, -4.796352463832879184E-16, -4.999999999999999112 ) ) ;
#499 = EDGE_LOOP ( 'NONE', ( #296, #36, #550, #824 ) ) ;
#500 = LINE ( 'NONE', #370, #853 ) ;
#501 = ORIENTED_EDGE ( 'NONE', *, *, #121, .T. ) ;
#502 = CARTESIAN_POINT ( 'NONE',  ( 1.000000000000000000, 22.00000000000000355, 5.000000000000001776 ) ) ;
#503 = ORIENTED_EDGE ( 'NONE', *, *, #22, .T. ) ;
#504 = CARTESIAN_POINT ( 'NONE',  ( 39.00000000000000000, 21.00000000000000000, -5.000000000000001776 ) ) ;
#505 =( GEOMETRIC_REPRESENTATION_CONTEXT ( 3 ) GLOBAL_UNCERTAINTY_ASSIGNED_CONTEXT ( ( #96 ) ) GLOBAL_UNIT_ASSIGNED_CONTEXT ( ( #572, #283, #124 ) ) REPRESENTATION_CONTEXT ( 'NONE', 'WORKASPACE' ) );
#506 = VECTOR ( 'NONE', #275, 1000.000000000000000 ) ;
#507 = AXIS2_PLACEMENT_3D ( 'NONE', #911, #473, #783 ) ;
#508 = DIRECTION ( 'NONE',  ( 1.000000000000000000, -0.000000000000000000, 0.000000000000000000 ) ) ;
#509 = CARTESIAN_POINT ( 'NONE',  ( 39.00000000000000000, -3.041889066001564501, 4.999999999999999112 ) ) ;
#510 = ORIENTED_EDGE ( 'NONE', *, *, #814, .T. ) ;
#511 = ADVANCED_FACE ( 'NONE', ( #807 ), #651, .T. ) ;
#512 = FACE_OUTER_BOUND ( 'NONE', #83, .T. ) ;
#513 = ORIENTED_EDGE ( 'NONE', *, *, #726, .T. ) ;
#514 = VECTOR ( 'NONE', #876, 1000.000000000000000 ) ;
#515 = FACE_OUTER_BOUND ( 'NONE', #521, .T. ) ;
#516 = ORIENTED_EDGE ( 'NONE', *, *, #660, .F. ) ;
#517 = DIRECTION ( 'NONE',  ( -0.000000000000000000, 0.000000000000000000, 1.000000000000000000 ) ) ;
#518 = LINE ( 'NONE', #666, #277 ) ;
#519 = DIRECTION ( 'NONE',  ( -0.000000000000000000, 0.000000000000000000, -1.000000000000000000 ) ) ;
#520 = PLANE ( 'NONE',  #158 ) ;
#521 = EDGE_LOOP ( 'NONE', ( #173, #513, #200, #261, #384, #369, #764, #279, #594, #556 ) ) ;
#522 = EDGE_CURVE ( 'NONE', #591, #71, #421, .T. ) ;
#523 = AXIS2_PLACEMENT_3D ( 'NONE', #486, #631, #320 ) ;
#524 = DIRECTION ( 'NONE',  ( 0.000000000000000000, 0.000000000000000000, -1.000000000000000000 ) ) ;
#525 = FACE_OUTER_BOUND ( 'NONE', #99, .T. ) ;
#526 = FACE_OUTER_BOUND ( 'NONE', #499, .T. ) ;
#527 = ORIENTED_EDGE ( 'NONE', *, *, #797, .F. ) ;
#528 = COLOUR_RGB ( '',0.7921568627450980005, 0.8196078431372548767, 0.9333333333333333481 ) ;
#529 = CYLINDRICAL_SURFACE ( 'NONE', #571, 1.000000000000000000 ) ;
#530 = ORIENTED_EDGE ( 'NONE', *, *, #234, .F. ) ;
#531 = DIRECTION ( 'NONE',  ( 1.000000000000000000, 0.000000000000000000, 0.000000000000000000 ) ) ;
#532 = ORIENTED_EDGE ( 'NONE', *, *, #22, .F. ) ;
#533 = DIRECTION ( 'NONE',  ( 0.000000000000000000, 0.000000000000000000, -1.000000000000000000 ) ) ;
#534 = ORIENTED_EDGE ( 'NONE', *, *, #898, .F. ) ;
#535 = EDGE_CURVE ( 'NONE', #875, #951, #139, .T. ) ;
#536 = DIRECTION ( 'NONE',  ( 0.000000000000000000, 0.000000000000000000, -1.000000000000000000 ) ) ;
#537 = EDGE_LOOP ( 'NONE', ( #720, #888, #574, #87 ) ) ;
#538 = AXIS2_PLACEMENT_3D ( 'NONE', #954, #730, #287 ) ;
#539 = AXIS2_PLACEMENT_3D ( 'NONE', #315, #827, #599 ) ;
#540 = DIRECTION ( 'NONE',  ( 1.000000000000000000, 0.000000000000000000, 0.000000000000000000 ) ) ;
#541 = CARTESIAN_POINT ( 'NONE',  ( 8.500000000000000000, 7.125000000000001776, -49.08131845707603702 ) ) ;
#542 = DIRECTION ( 'NONE',  ( -0.000000000000000000, 0.000000000000000000, 1.000000000000000000 ) ) ;
#543 = VERTEX_POINT ( 'NONE', #955 ) ;
#544 = CARTESIAN_POINT ( 'NONE',  ( 8.500000000000000000, 7.125000000000001776, 5.999999999999999112 ) ) ;
#545 = FACE_OUTER_BOUND ( 'NONE', #779, .T. ) ;
#546 = VERTEX_POINT ( 'NONE', #58 ) ;
#547 = EDGE_CURVE ( 'NONE', #4, #543, #198, .T. ) ;
#548 = DIRECTION ( 'NONE',  ( 0.000000000000000000, 1.000000000000000000, -0.000000000000000000 ) ) ;
#549 = LINE ( 'NONE', #719, #405 ) ;
#550 = ORIENTED_EDGE ( 'NONE', *, *, #468, .T. ) ;
#551 = EDGE_CURVE ( 'NONE', #633, #258, #288, .T. ) ;
#552 = AXIS2_PLACEMENT_3D ( 'NONE', #557, #335, #693 ) ;
#553 = CARTESIAN_POINT ( 'NONE',  ( 8.499999999999998224, 19.12500000000000355, -5.999999999999998224 ) ) ;
#554 = VECTOR ( 'NONE', #455, 1000.000000000000000 ) ;
#555 = LINE ( 'NONE', #49, #948 ) ;
#556 = ORIENTED_EDGE ( 'NONE', *, *, #844, .F. ) ;
#557 = CARTESIAN_POINT ( 'NONE',  ( 31.50000000000000000, 7.125000000000002665, -49.08131845707603702 ) ) ;
#558 = CARTESIAN_POINT ( 'NONE',  ( 31.50000000000000000, 7.125000000000002665, -5.999999999999998224 ) ) ;
#559 = VERTEX_POINT ( 'NONE', #348 ) ;
#560 = VECTOR ( 'NONE', #231, 1000.000000000000000 ) ;
#561 = LINE ( 'NONE', #792, #492 ) ;
#562 = EDGE_CURVE ( 'NONE', #706, #546, #211, .T. ) ;
#563 = CARTESIAN_POINT ( 'NONE',  ( 8.499999999999998224, 17.00000000000000000, 5.999999999999999112 ) ) ;
#564 = ORIENTED_EDGE ( 'NONE', *, *, #832, .F. ) ;
#565 = EDGE_CURVE ( 'NONE', #858, #754, #883, .T. ) ;
#566 = CARTESIAN_POINT ( 'NONE',  ( 40.00000000000000000, 22.00000000000000355, 5.000000000000001776 ) ) ;
#567 = DIRECTION ( 'NONE',  ( 0.000000000000000000, -9.592704927665763053E-17, -1.000000000000000000 ) ) ;
#568 = ORIENTED_EDGE ( 'NONE', *, *, #630, .F. ) ;
#569 = AXIS2_PLACEMENT_3D ( 'NONE', #711, #548, #392 ) ;
#570 = CARTESIAN_POINT ( 'NONE',  ( 40.00000000000000000, 0.000000000000000000, 0.000000000000000000 ) ) ;
#571 = AXIS2_PLACEMENT_3D ( 'NONE', #295, #447, #464 ) ;
#572 =( LENGTH_UNIT ( ) NAMED_UNIT ( * ) SI_UNIT ( .MILLI., .METRE. ) );
#573 = AXIS2_PLACEMENT_3D ( 'NONE', #749, #678, #466 ) ;
#574 = ORIENTED_EDGE ( 'NONE', *, *, #776, .T. ) ;
#575 = DIRECTION ( 'NONE',  ( 1.000000000000000000, 0.000000000000000000, 0.000000000000000000 ) ) ;
#576 = ADVANCED_FACE ( 'NONE', ( #199 ), #742, .F. ) ;
#577 = CARTESIAN_POINT ( 'NONE',  ( 39.00000000000000000, -3.041889066001564501, -5.999999999999999112 ) ) ;
#578 = VERTEX_POINT ( 'NONE', #502 ) ;
#579 = APPLICATION_CONTEXT ( 'automotive_design' ) ;
#580 = LINE ( 'NONE', #207, #717 ) ;
#581 = VERTEX_POINT ( 'NONE', #934 ) ;
#582 = ADVANCED_FACE ( 'NONE', ( #205 ), #269, .T. ) ;
#583 = LINE ( 'NONE', #489, #169 ) ;
#584 = DIRECTION ( 'NONE',  ( 0.000000000000000000, 0.000000000000000000, 1.000000000000000000 ) ) ;
#585 = ORIENTED_EDGE ( 'NONE', *, *, #294, .T. ) ;
#586 = LINE ( 'NONE', #885, #46 ) ;
#587 = VECTOR ( 'NONE', #245, 1000.000000000000000 ) ;
#588 = CIRCLE ( 'NONE', #806, 4.000000000000000000 ) ;
#589 = AXIS2_PLACEMENT_3D ( 'NONE', #225, #5, #388 ) ;
#590 = DIRECTION ( 'NONE',  ( -1.000000000000000000, 0.000000000000000000, -0.000000000000000000 ) ) ;
#591 = VERTEX_POINT ( 'NONE', #723 ) ;
#592 = FACE_OUTER_BOUND ( 'NONE', #537, .T. ) ;
#593 = FACE_OUTER_BOUND ( 'NONE', #162, .T. ) ;
#594 = ORIENTED_EDGE ( 'NONE', *, *, #360, .F. ) ;
#595 = FACE_OUTER_BOUND ( 'NONE', #667, .T. ) ;
#596 = ADVANCED_FACE ( 'NONE', ( #53 ), #938, .T. ) ;
#597 = ORIENTED_EDGE ( 'NONE', *, *, #937, .F. ) ;
#598 = PRODUCT_DEFINITION_SHAPE ( 'NONE', 'NONE',  #229 ) ;
#599 = DIRECTION ( 'NONE',  ( 0.000000000000000000, -0.000000000000000000, 1.000000000000000000 ) ) ;
#600 = DIRECTION ( 'NONE',  ( -1.000000000000000000, -0.000000000000000000, -0.000000000000000000 ) ) ;
#601 = DIRECTION ( 'NONE',  ( 0.000000000000000000, 0.000000000000000000, 1.000000000000000000 ) ) ;
#602 = EDGE_LOOP ( 'NONE', ( #799, #700, #935, #908 ) ) ;
#603 = CARTESIAN_POINT ( 'NONE',  ( 0.000000000000000000, -4.796352463832879184E-16, 5.000000000000000000 ) ) ;
#604 = CARTESIAN_POINT ( 'NONE',  ( 1.000000000000000000, 22.00000000000000355, -5.000000000000001776 ) ) ;
#605 = DIRECTION ( 'NONE',  ( 0.000000000000000000, 0.000000000000000000, 1.000000000000000000 ) ) ;
#606 = ORIENTED_EDGE ( 'NONE', *, *, #775, .F. ) ;
#607 = AXIS2_PLACEMENT_3D ( 'NONE', #902, #517, #443 ) ;
#608 = EDGE_CURVE ( 'NONE', #117, #179, #647, .T. ) ;
#609 = AXIS2_PLACEMENT_3D ( 'NONE', #135, #796, #127 ) ;
#610 = LINE ( 'NONE', #820, #686 ) ;
#611 = ORIENTED_EDGE ( 'NONE', *, *, #791, .F. ) ;
#612 = DIRECTION ( 'NONE',  ( -0.000000000000000000, -1.000000000000000000, -0.000000000000000000 ) ) ;
#613 = ORIENTED_EDGE ( 'NONE', *, *, #110, .F. ) ;
#614 = EDGE_CURVE ( 'NONE', #323, #340, #905, .T. ) ;
#615 = CARTESIAN_POINT ( 'NONE',  ( 0.000000000000000000, 4.898587196589412829E-16, -4.000000000000000000 ) ) ;
#616 = CARTESIAN_POINT ( 'NONE',  ( 0.000000000000000000, 0.000000000000000000, 0.000000000000000000 ) ) ;
#617 = DIRECTION ( 'NONE',  ( 1.000000000000000000, -0.000000000000000000, -0.000000000000000000 ) ) ;
#618 = EDGE_LOOP ( 'NONE', ( #266, #454, #391, #759 ) ) ;
#619 = AXIS2_PLACEMENT_3D ( 'NONE', #676, #890, #84 ) ;
#620 = DIRECTION ( 'NONE',  ( -0.000000000000000000, -0.000000000000000000, -1.000000000000000000 ) ) ;
#621 = FACE_OUTER_BOUND ( 'NONE', #657, .T. ) ;
#622 = EDGE_CURVE ( 'NONE', #206, #54, #230, .T. ) ;
#623 = DIRECTION ( 'NONE',  ( 0.000000000000000000, 0.000000000000000000, -1.000000000000000000 ) ) ;
#624 = ORIENTED_EDGE ( 'NONE', *, *, #844, .T. ) ;
#625 = ADVANCED_BREP_SHAPE_REPRESENTATION ( 'Servo Mount', ( #476, #684 ), #505 ) ;
#626 = VECTOR ( 'NONE', #617, 1000.000000000000000 ) ;
#627 = DIRECTION ( 'NONE',  ( 1.000000000000000000, -0.000000000000000000, 8.673617379884034486E-16 ) ) ;
#628 = SURFACE_SIDE_STYLE ('',( #699 ) ) ;
#629 = ORIENTED_EDGE ( 'NONE', *, *, #940, .F. ) ;
#630 = EDGE_CURVE ( 'NONE', #884, #591, #961, .T. ) ;
#631 = DIRECTION ( 'NONE',  ( -1.000000000000000000, -0.000000000000000000, -0.000000000000000000 ) ) ;
#632 = FACE_OUTER_BOUND ( 'NONE', #618, .T. ) ;
#633 = VERTEX_POINT ( 'NONE', #457 ) ;
#634 = VECTOR ( 'NONE', #881, 1000.000000000000000 ) ;
#635 = LINE ( 'NONE', #780, #587 ) ;
#636 = VECTOR ( 'NONE', #941, 1000.000000000000000 ) ;
#637 = DIRECTION ( 'NONE',  ( 0.000000000000000000, 0.000000000000000000, 1.000000000000000000 ) ) ;
#638 = VERTEX_POINT ( 'NONE', #16 ) ;
#639 = ADVANCED_FACE ( 'NONE', ( #163 ), #687, .T. ) ;
#640 = ADVANCED_FACE ( 'NONE', ( #837 ), #529, .T. ) ;
#641 = DIRECTION ( 'NONE',  ( 0.000000000000000000, 1.000000000000000000, -9.592704927665759355E-17 ) ) ;
#642 = FACE_BOUND ( 'NONE', #212, .T. ) ;
#643 = ORIENTED_EDGE ( 'NONE', *, *, #482, .T. ) ;
#644 = VECTOR ( 'NONE', #426, 1000.000000000000000 ) ;
#645 = LINE ( 'NONE', #210, #634 ) ;
#646 = ADVANCED_FACE ( 'NONE', ( #593 ), #760, .T. ) ;
#647 = LINE ( 'NONE', #887, #415 ) ;
#648 = ORIENTED_EDGE ( 'NONE', *, *, #847, .F. ) ;
#649 = CARTESIAN_POINT ( 'NONE',  ( 8.499999999999998224, 17.00000000000000000, -49.08131845707603702 ) ) ;
#650 = CARTESIAN_POINT ( 'NONE',  ( 40.00000000000000000, -1.690968657308585810, -3.625000000000000000 ) ) ;
#651 = CYLINDRICAL_SURFACE ( 'NONE', #944, 1.000000000000000000 ) ;
#652 = EDGE_LOOP ( 'NONE', ( #585, #120, #2 ) ) ;
#653 = VECTOR ( 'NONE', #508, 1000.000000000000000 ) ;
#654 = LINE ( 'NONE', #350, #644 ) ;
#655 = FACE_OUTER_BOUND ( 'NONE', #850, .T. ) ;
#656 = CIRCLE ( 'NONE', #573, 1.000000000000000000 ) ;
#657 = EDGE_LOOP ( 'NONE', ( #400, #379, #496, #197 ) ) ;
#658 = DIRECTION ( 'NONE',  ( 0.000000000000000000, 0.000000000000000000, 1.000000000000000000 ) ) ;
#659 = ORIENTED_EDGE ( 'NONE', *, *, #203, .F. ) ;
#660 = EDGE_CURVE ( 'NONE', #728, #14, #518, .T. ) ;
#661 = CLOSED_SHELL ( 'NONE', ( #122, #801, #209, #344, #375, #263, #576, #327, #366, #367, #691, #646, #411, #755, #62, #151, #860, #305, #52, #51, #247, #8, #672, #596, #292, #582, #511, #640, #639, #444, #854, #191 ) ) ;
#662 = DIRECTION ( 'NONE',  ( 0.000000000000000000, 1.000000000000000000, 0.000000000000000000 ) ) ;
#663 = ORIENTED_EDGE ( 'NONE', *, *, #224, .F. ) ;
#664 = PLANE ( 'NONE',  #927 ) ;
#665 = EDGE_CURVE ( 'NONE', #19, #884, #610, .T. ) ;
#666 = CARTESIAN_POINT ( 'NONE',  ( 0.000000000000000000, 22.00000000000000355, -5.000000000000001776 ) ) ;
#667 = EDGE_LOOP ( 'NONE', ( #329, #85, #472, #643 ) ) ;
#668 = DIRECTION ( 'NONE',  ( 0.000000000000000000, -1.000000000000000000, -9.592704927665759355E-17 ) ) ;
#669 = VECTOR ( 'NONE', #662, 1000.000000000000000 ) ;
#670 = VECTOR ( 'NONE', #159, 1000.000000000000000 ) ;
#671 = EDGE_CURVE ( 'NONE', #71, #19, #95, .T. ) ;
#672 = ADVANCED_FACE ( 'NONE', ( #380 ), #221, .T. ) ;
#673 = CARTESIAN_POINT ( 'NONE',  ( 4.499999999999999112, 11.00000000000000355, -5.999999999999998224 ) ) ;
#674 = DIRECTION ( 'NONE',  ( 0.000000000000000000, -0.000000000000000000, -1.000000000000000000 ) ) ;
#675 = SPHERICAL_SURFACE ( 'NONE', #138, 1.000000000000000000 ) ;
#676 = CARTESIAN_POINT ( 'NONE',  ( 0.000000000000000000, 0.000000000000000000, 0.000000000000000000 ) ) ;
#677 = VERTEX_POINT ( 'NONE', #959 ) ;
#678 = DIRECTION ( 'NONE',  ( -0.000000000000000000, -1.000000000000000000, -0.000000000000000000 ) ) ;
#679 = ORIENTED_EDGE ( 'NONE', *, *, #535, .F. ) ;
#680 = DIRECTION ( 'NONE',  ( 1.000000000000000000, 0.000000000000000000, 0.000000000000000000 ) ) ;
#681 = ORIENTED_EDGE ( 'NONE', *, *, #57, .F. ) ;
#682 = LINE ( 'NONE', #753, #626 ) ;
#683 = ORIENTED_EDGE ( 'NONE', *, *, #704, .T. ) ;
#684 = AXIS2_PLACEMENT_3D ( 'NONE', #128, #805, #430 ) ;
#685 = CIRCLE ( 'NONE', #872, 1.000000000000000000 ) ;
#686 = VECTOR ( 'NONE', #747, 1000.000000000000000 ) ;
#687 = CYLINDRICAL_SURFACE ( 'NONE', #123, 1.000000000000000000 ) ;
#688 = ORIENTED_EDGE ( 'NONE', *, *, #734, .F. ) ;
#689 = PLANE ( 'NONE',  #782 ) ;
#690 = ORIENTED_EDGE ( 'NONE', *, *, #721, .F. ) ;
#691 = ADVANCED_FACE ( 'NONE', ( #515 ), #97, .F. ) ;
#692 = PRODUCT_DEFINITION_CONTEXT ( 'detailed design', #579, 'design' ) ;
#693 = DIRECTION ( 'NONE',  ( 0.000000000000000000, 0.000000000000000000, -1.000000000000000000 ) ) ;
#694 = EDGE_LOOP ( 'NONE', ( #919, #808, #922, #410, #147, #865 ) ) ;
#695 = CARTESIAN_POINT ( 'NONE',  ( 39.00000000000000000, 21.00000000000000000, 5.000000000000001776 ) ) ;
#696 = ORIENTED_EDGE ( 'NONE', *, *, #360, .T. ) ;
#697 = LINE ( 'NONE', #42, #341 ) ;
#698 = DIRECTION ( 'NONE',  ( -1.508455196501571183E-16, 1.000000000000000000, 0.000000000000000000 ) ) ;
#699 = SURFACE_STYLE_FILL_AREA ( #399 ) ;
#700 = ORIENTED_EDGE ( 'NONE', *, *, #746, .F. ) ;
#701 = VECTOR ( 'NONE', #412, 1000.000000000000000 ) ;
#702 = AXIS2_PLACEMENT_3D ( 'NONE', #133, #732, #153 ) ;
#703 = CARTESIAN_POINT ( 'NONE',  ( 40.00000000000000000, 21.00000000000000000, 0.000000000000000000 ) ) ;
#704 = EDGE_CURVE ( 'NONE', #559, #831, #855, .T. ) ;
#705 = FILL_AREA_STYLE_COLOUR ( '', #528 ) ;
#706 = VERTEX_POINT ( 'NONE', #673 ) ;
#707 = VECTOR ( 'NONE', #487, 1000.000000000000000 ) ;
#708 = CYLINDRICAL_SURFACE ( 'NONE', #523, 4.000000000000000000 ) ;
#709 = DIRECTION ( 'NONE',  ( -1.000000000000000000, 0.000000000000000000, 0.000000000000000000 ) ) ;
#710 = EDGE_LOOP ( 'NONE', ( #897, #503, #427, #407 ) ) ;
#711 = CARTESIAN_POINT ( 'NONE',  ( 1.000000000000000000, 21.00000000000000000, 5.000000000000001776 ) ) ;
#712 = PLANE ( 'NONE',  #331 ) ;
#713 = ORIENTED_EDGE ( 'NONE', *, *, #714, .T. ) ;
#714 = EDGE_CURVE ( 'NONE', #951, #838, #15, .T. ) ;
#715 = EDGE_CURVE ( 'NONE', #433, #244, #894, .T. ) ;
#716 = DIRECTION ( 'NONE',  ( -4.476705744456275355E-16, 1.000000000000000000, -9.592704927665759355E-17 ) ) ;
#717 = VECTOR ( 'NONE', #72, 1000.000000000000000 ) ;
#718 = VECTOR ( 'NONE', #798, 1000.000000000000000 ) ;
#719 = CARTESIAN_POINT ( 'NONE',  ( 8.500000000000000000, 7.125000000000001776, 5.999999999999999112 ) ) ;
#720 = ORIENTED_EDGE ( 'NONE', *, *, #958, .F. ) ;
#721 = EDGE_CURVE ( 'NONE', #559, #491, #453, .T. ) ;
#722 = PLANE ( 'NONE',  #538 ) ;
#723 = CARTESIAN_POINT ( 'NONE',  ( 39.00000000000000000, 21.00000000000000000, -6.000000000000001776 ) ) ;
#724 = ORIENTED_EDGE ( 'NONE', *, *, #440, .F. ) ;
#725 = CARTESIAN_POINT ( 'NONE',  ( 40.00000000000000000, 0.000000000000000000, 0.000000000000000000 ) ) ;
#726 = EDGE_CURVE ( 'NONE', #323, #26, #310, .T. ) ;
#727 = DIRECTION ( 'NONE',  ( -0.000000000000000000, 1.000000000000000000, 0.000000000000000000 ) ) ;
#728 = VERTEX_POINT ( 'NONE', #174 ) ;
#729 = DIRECTION ( 'NONE',  ( 0.000000000000000000, 0.000000000000000000, 1.000000000000000000 ) ) ;
#730 = DIRECTION ( 'NONE',  ( 0.000000000000000000, 1.000000000000000000, -0.000000000000000000 ) ) ;
#731 = AXIS2_PLACEMENT_3D ( 'NONE', #570, #201, #497 ) ;
#732 = DIRECTION ( 'NONE',  ( 0.000000000000000000, 1.000000000000000000, -0.000000000000000000 ) ) ;
#733 = ORIENTED_EDGE ( 'NONE', *, *, #420, .F. ) ;
#734 = EDGE_CURVE ( 'NONE', #884, #728, #929, .T. ) ;
#735 = DIRECTION ( 'NONE',  ( 0.000000000000000000, 0.000000000000000000, -1.000000000000000000 ) ) ;
#736 = VERTEX_POINT ( 'NONE', #920 ) ;
#737 = DIRECTION ( 'NONE',  ( 0.000000000000000000, -1.000000000000000000, 9.592704927665759355E-17 ) ) ;
#738 = ORIENTED_EDGE ( 'NONE', *, *, #79, .F. ) ;
#739 = CYLINDRICAL_SURFACE ( 'NONE', #184, 1.000000000000000888 ) ;
#740 = ORIENTED_EDGE ( 'NONE', *, *, #763, .T. ) ;
#741 = AXIS2_PLACEMENT_3D ( 'NONE', #541, #75, #900 ) ;
#742 = PLANE ( 'NONE',  #330 ) ;
#743 = ORIENTED_EDGE ( 'NONE', *, *, #401, .F. ) ;
#744 = DIRECTION ( 'NONE',  ( -1.000000000000000000, -0.000000000000000000, -0.000000000000000000 ) ) ;
#745 = EDGE_CURVE ( 'NONE', #435, #422, #251, .T. ) ;
#746 = EDGE_CURVE ( 'NONE', #831, #4, #259, .T. ) ;
#747 = DIRECTION ( 'NONE',  ( 0.000000000000000000, 1.000000000000000000, -9.592704927665759355E-17 ) ) ;
#748 = FACE_OUTER_BOUND ( 'NONE', #815, .T. ) ;
#749 = CARTESIAN_POINT ( 'NONE',  ( 1.000000000000000888, -3.041889066001564501, 4.999999999999999112 ) ) ;
#750 = VECTOR ( 'NONE', #945, 1000.000000000000000 ) ;
#751 = DIRECTION ( 'NONE',  ( 0.000000000000000000, -1.000000000000000000, -0.000000000000000000 ) ) ;
#752 = ORIENTED_EDGE ( 'NONE', *, *, #314, .T. ) ;
#753 = CARTESIAN_POINT ( 'NONE',  ( 8.499999999999998224, 11.00000000000000355, 5.999999999999999112 ) ) ;
#754 = VERTEX_POINT ( 'NONE', #256 ) ;
#755 = ADVANCED_FACE ( 'NONE', ( #33 ), #469, .F. ) ;
#756 = CARTESIAN_POINT ( 'NONE',  ( 0.000000000000000000, 21.00000000000000000, 6.000000000000001776 ) ) ;
#757 = ORIENTED_EDGE ( 'NONE', *, *, #784, .F. ) ;
#758 = CARTESIAN_POINT ( 'NONE',  ( 1.000000000000000888, -3.041889066001564501, -4.999999999999999112 ) ) ;
#759 = ORIENTED_EDGE ( 'NONE', *, *, #452, .T. ) ;
#760 = PLANE ( 'NONE',  #539 ) ;
#761 = DIRECTION ( 'NONE',  ( 0.000000000000000000, 0.000000000000000000, -1.000000000000000000 ) ) ;
#762 = CARTESIAN_POINT ( 'NONE',  ( 4.499999999999999112, 11.00000000000000355, 5.999999999999999112 ) ) ;
#763 = EDGE_CURVE ( 'NONE', #488, #831, #926, .T. ) ;
#764 = ORIENTED_EDGE ( 'NONE', *, *, #20, .F. ) ;
#765 = AXIS2_PLACEMENT_3D ( 'NONE', #27, #620, #477 ) ;
#766 = VECTOR ( 'NONE', #352, 1000.000000000000000 ) ;
#767 = DIRECTION ( 'NONE',  ( 0.000000000000000000, 0.000000000000000000, 1.000000000000000000 ) ) ;
#768 = EDGE_LOOP ( 'NONE', ( #318, #112, #869, #6 ) ) ;
#769 = CYLINDRICAL_SURFACE ( 'NONE', #342, 1.000000000000000000 ) ;
#770 = ORIENTED_EDGE ( 'NONE', *, *, #105, .F. ) ;
#771 = DIRECTION ( 'NONE',  ( 4.476705744456275355E-16, -1.000000000000000000, -0.000000000000000000 ) ) ;
#772 = LINE ( 'NONE', #146, #514 ) ;
#773 = CARTESIAN_POINT ( 'NONE',  ( 40.00000000000000000, 0.000000000000000000, 0.000000000000000000 ) ) ;
#774 = ORIENTED_EDGE ( 'NONE', *, *, #482, .F. ) ;
#775 = EDGE_CURVE ( 'NONE', #395, #581, #635, .T. ) ;
#776 = EDGE_CURVE ( 'NONE', #858, #677, #777, .T. ) ;
#777 = LINE ( 'NONE', #930, #90 ) ;
#778 = PLANE ( 'NONE',  #202 ) ;
#779 = EDGE_LOOP ( 'NONE', ( #249, #484, #688 ) ) ;
#780 = CARTESIAN_POINT ( 'NONE',  ( 8.500000000000000000, 7.125000000000001776, -49.08131845707603702 ) ) ;
#781 = VERTEX_POINT ( 'NONE', #325 ) ;
#782 = AXIS2_PLACEMENT_3D ( 'NONE', #227, #835, #605 ) ;
#783 = DIRECTION ( 'NONE',  ( -1.000000000000000000, 0.000000000000000000, -8.673617379884027583E-16 ) ) ;
#784 = EDGE_CURVE ( 'NONE', #638, #591, #697, .T. ) ;
#785 = AXIS2_PLACEMENT_3D ( 'NONE', #810, #870, #131 ) ;
#786 = CARTESIAN_POINT ( 'NONE',  ( 40.00000000000000000, 0.000000000000000000, 0.000000000000000000 ) ) ;
#787 = ORIENTED_EDGE ( 'NONE', *, *, #745, .T. ) ;
#788 = LINE ( 'NONE', #703, #31 ) ;
#789 = DIRECTION ( 'NONE',  ( 1.000000000000000000, 0.000000000000000000, 0.000000000000000000 ) ) ;
#790 = ORIENTED_EDGE ( 'NONE', *, *, #41, .F. ) ;
#791 = EDGE_CURVE ( 'NONE', #54, #581, #859, .T. ) ;
#792 = CARTESIAN_POINT ( 'NONE',  ( 40.00000000000000000, -3.041889066001564501, 3.625000000000000000 ) ) ;
#793 = VECTOR ( 'NONE', #10, 1000.000000000000000 ) ;
#794 = DIRECTION ( 'NONE',  ( -1.000000000000000000, 0.000000000000000000, -0.000000000000000000 ) ) ;
#795 = ORIENTED_EDGE ( 'NONE', *, *, #34, .T. ) ;
#796 = DIRECTION ( 'NONE',  ( 0.000000000000000000, -1.000000000000000000, -0.000000000000000000 ) ) ;
#797 = EDGE_CURVE ( 'NONE', #638, #14, #942, .T. ) ;
#798 = DIRECTION ( 'NONE',  ( -0.000000000000000000, 1.000000000000000000, -0.000000000000000000 ) ) ;
#799 = ORIENTED_EDGE ( 'NONE', *, *, #547, .F. ) ;
#800 = CARTESIAN_POINT ( 'NONE',  ( 31.50000000000000000, 19.12500000000000711, 5.999999999999999112 ) ) ;
#801 = ADVANCED_FACE ( 'NONE', ( #402 ), #708, .F. ) ;
#802 = DIRECTION ( 'NONE',  ( 1.000000000000000000, 0.000000000000000000, 0.000000000000000000 ) ) ;
#803 = EDGE_LOOP ( 'NONE', ( #222, #790, #740, #334 ) ) ;
#804 = FACE_OUTER_BOUND ( 'NONE', #803, .T. ) ;
#805 = DIRECTION ( 'NONE',  ( 0.000000000000000000, 0.000000000000000000, 1.000000000000000000 ) ) ;
#806 = AXIS2_PLACEMENT_3D ( 'NONE', #889, #142, #962 ) ;
#807 = FACE_OUTER_BOUND ( 'NONE', #164, .T. ) ;
#808 = ORIENTED_EDGE ( 'NONE', *, *, #671, .T. ) ;
#809 = VECTOR ( 'NONE', #338, 1000.000000000000000 ) ;
#810 = CARTESIAN_POINT ( 'NONE',  ( 1.000000000000000888, 21.00000000000000000, -5.000000000000001776 ) ) ;
#811 = DIRECTION ( 'NONE',  ( -0.000000000000000000, -1.000000000000000000, 9.592704927665759355E-17 ) ) ;
#812 = ORIENTED_EDGE ( 'NONE', *, *, #141, .T. ) ;
#813 = DIRECTION ( 'NONE',  ( 1.000000000000000000, -0.000000000000000000, 0.000000000000000000 ) ) ;
#814 = EDGE_CURVE ( 'NONE', #884, #831, #788, .T. ) ;
#815 = EDGE_LOOP ( 'NONE', ( #606, #893, #479, #40 ) ) ;
#816 = AXIS2_PLACEMENT_3D ( 'NONE', #616, #600, #761 ) ;
#817 = DIRECTION ( 'NONE',  ( 0.000000000000000000, 0.000000000000000000, -1.000000000000000000 ) ) ;
#818 = ORIENTED_EDGE ( 'NONE', *, *, #565, .F. ) ;
#819 = CARTESIAN_POINT ( 'NONE',  ( 31.50000000000000000, 19.12500000000000711, -49.08131845707603702 ) ) ;
#820 = CARTESIAN_POINT ( 'NONE',  ( 40.00000000000000000, 22.00000000000000355, -5.000000000000000888 ) ) ;
#821 = CARTESIAN_POINT ( 'NONE',  ( 8.499999999999998224, 11.00000000000000355, 5.999999999999999112 ) ) ;
#822 = PLANE ( 'NONE',  #308 ) ;
#823 = AXIS2_PLACEMENT_3D ( 'NONE', #481, #215, #802 ) ;
#824 = ORIENTED_EDGE ( 'NONE', *, *, #354, .T. ) ;
#825 = VECTOR ( 'NONE', #218, 1000.000000000000000 ) ;
#826 = EDGE_CURVE ( 'NONE', #136, #313, #408, .T. ) ;
#827 = DIRECTION ( 'NONE',  ( 0.000000000000000000, 1.000000000000000000, 0.000000000000000000 ) ) ;
#828 = PLANE ( 'NONE',  #396 ) ;
#829 = AXIS2_PLACEMENT_3D ( 'NONE', #35, #119, #413 ) ;
#830 = FACE_OUTER_BOUND ( 'NONE', #286, .T. ) ;
#831 = VERTEX_POINT ( 'NONE', #856 ) ;
#832 = EDGE_CURVE ( 'NONE', #26, #491, #137, .T. ) ;
#833 = CARTESIAN_POINT ( 'NONE',  ( 40.00000000000000000, 21.00000000000000000, 5.000000000000001776 ) ) ;
#834 = ORIENTED_EDGE ( 'NONE', *, *, #324, .T. ) ;
#835 = DIRECTION ( 'NONE',  ( -1.000000000000000000, 0.000000000000000000, 0.000000000000000000 ) ) ;
#836 = ORIENTED_EDGE ( 'NONE', *, *, #41, .T. ) ;
#837 = FACE_OUTER_BOUND ( 'NONE', #602, .T. ) ;
#838 = VERTEX_POINT ( 'NONE', #615 ) ;
#839 = CARTESIAN_POINT ( 'NONE',  ( 4.499999999999999112, 17.00000000000000000, 5.999999999999999112 ) ) ;
#840 = ORIENTED_EDGE ( 'NONE', *, *, #614, .T. ) ;
#841 = MECHANICAL_DESIGN_GEOMETRIC_PRESENTATION_REPRESENTATION (  '', ( #343 ), #155 ) ;
#842 = LINE ( 'NONE', #848, #461 ) ;
#843 = CARTESIAN_POINT ( 'NONE',  ( 40.00000000000000000, -3.041889066001564501, 5.999999999999999112 ) ) ;
#844 = EDGE_CURVE ( 'NONE', #340, #914, #842, .T. ) ;
#845 = CARTESIAN_POINT ( 'NONE',  ( 8.500000000000000000, 7.125000000000001776, -5.999999999999998224 ) ) ;
#846 = ORIENTED_EDGE ( 'NONE', *, *, #432, .F. ) ;
#847 = EDGE_CURVE ( 'NONE', #59, #838, #397, .T. ) ;
#848 = CARTESIAN_POINT ( 'NONE',  ( 0.000000000000000000, -1.690968657308585588, 3.625000000000000000 ) ) ;
#849 = DIRECTION ( 'NONE',  ( 0.000000000000000000, 0.000000000000000000, -1.000000000000000000 ) ) ;
#850 = EDGE_LOOP ( 'NONE', ( #302, #787, #108, #284 ) ) ;
#851 = DIRECTION ( 'NONE',  ( -0.000000000000000000, 1.000000000000000000, -0.000000000000000000 ) ) ;
#852 = ORIENTED_EDGE ( 'NONE', *, *, #671, .F. ) ;
#853 = VECTOR ( 'NONE', #64, 1000.000000000000000 ) ;
#854 = ADVANCED_FACE ( 'NONE', ( #177 ), #185, .T. ) ;
#855 = CIRCLE ( 'NONE', #429, 1.000000000000000000 ) ;
#856 = CARTESIAN_POINT ( 'NONE',  ( 40.00000000000000000, 21.00000000000000000, 5.000000000000001776 ) ) ;
#857 = LINE ( 'NONE', #483, #65 ) ;
#858 = VERTEX_POINT ( 'NONE', #553 ) ;
#859 = LINE ( 'NONE', #544, #385 ) ;
#860 = ADVANCED_FACE ( 'NONE', ( #655 ), #722, .F. ) ;
#861 = CIRCLE ( 'NONE', #319, 1.000000000000000888 ) ;
#862 = LINE ( 'NONE', #336, #451 ) ;
#863 = ORIENTED_EDGE ( 'NONE', *, *, #452, .F. ) ;
#864 = CARTESIAN_POINT ( 'NONE',  ( 40.00000000000000000, -3.041889066001564501, -3.625000000000000000 ) ) ;
#865 = ORIENTED_EDGE ( 'NONE', *, *, #105, .T. ) ;
#866 = VECTOR ( 'NONE', #106, 1000.000000000000000 ) ;
#867 = VECTOR ( 'NONE', #584, 1000.000000000000000 ) ;
#868 = DIRECTION ( 'NONE',  ( -1.000000000000000000, -0.000000000000000000, -0.000000000000000000 ) ) ;
#869 = ORIENTED_EDGE ( 'NONE', *, *, #121, .F. ) ;
#870 = DIRECTION ( 'NONE',  ( 0.000000000000000000, 1.000000000000000000, 0.000000000000000000 ) ) ;
#871 = EDGE_CURVE ( 'NONE', #578, #488, #363, .T. ) ;
#872 = AXIS2_PLACEMENT_3D ( 'NONE', #390, #3, #531 ) ;
#873 = DIRECTION ( 'NONE',  ( -0.000000000000000000, -0.000000000000000000, -1.000000000000000000 ) ) ;
#874 =( NAMED_UNIT ( * ) SI_UNIT ( $, .STERADIAN. ) SOLID_ANGLE_UNIT ( ) );
#875 = VERTEX_POINT ( 'NONE', #268 ) ;
#876 = DIRECTION ( 'NONE',  ( 0.000000000000000000, 1.000000000000000000, -9.592704927665759355E-17 ) ) ;
#877 = CARTESIAN_POINT ( 'NONE',  ( 40.00000000000000000, -3.041889066001564501, -3.625000000000000000 ) ) ;
#878 = DIRECTION ( 'NONE',  ( 0.000000000000000000, 0.000000000000000000, 1.000000000000000000 ) ) ;
#879 = ORIENTED_EDGE ( 'NONE', *, *, #493, .T. ) ;
#880 = CARTESIAN_POINT ( 'NONE',  ( 8.499999999999998224, 17.00000000000000000, 5.999999999999999112 ) ) ;
#881 = DIRECTION ( 'NONE',  ( 0.000000000000000000, 0.000000000000000000, 1.000000000000000000 ) ) ;
#882 = VECTOR ( 'NONE', #109, 1000.000000000000000 ) ;
#883 = LINE ( 'NONE', #490, #825 ) ;
#884 = VERTEX_POINT ( 'NONE', #118 ) ;
#885 = CARTESIAN_POINT ( 'NONE',  ( 40.00000000000000000, -3.041889066001564501, 3.625000000000000000 ) ) ;
#886 = ORIENTED_EDGE ( 'NONE', *, *, #282, .T. ) ;
#887 = CARTESIAN_POINT ( 'NONE',  ( 0.000000000000000000, -4.796352463832879184E-16, -4.999999999999999112 ) ) ;
#888 = ORIENTED_EDGE ( 'NONE', *, *, #940, .T. ) ;
#889 = CARTESIAN_POINT ( 'NONE',  ( 40.00000000000000000, 0.000000000000000000, 0.000000000000000000 ) ) ;
#890 = DIRECTION ( 'NONE',  ( -1.000000000000000000, -0.000000000000000000, -0.000000000000000000 ) ) ;
#891 = ORIENTED_EDGE ( 'NONE', *, *, #20, .T. ) ;
#892 = LINE ( 'NONE', #762, #480 ) ;
#893 = ORIENTED_EDGE ( 'NONE', *, *, #937, .T. ) ;
#894 = LINE ( 'NONE', #899, #670 ) ;
#895 = PLANE ( 'NONE',  #741 ) ;
#896 = CARTESIAN_POINT ( 'NONE',  ( 40.00000000000000000, -1.690968657308585588, -3.625000000000000000 ) ) ;
#897 = ORIENTED_EDGE ( 'NONE', *, *, #273, .F. ) ;
#898 = EDGE_CURVE ( 'NONE', #465, #136, #347, .T. ) ;
#899 = CARTESIAN_POINT ( 'NONE',  ( 31.50000000000000000, 7.125000000000002665, -49.08131845707603702 ) ) ;
#900 = DIRECTION ( 'NONE',  ( 4.476705744456275355E-16, -1.000000000000000000, 0.000000000000000000 ) ) ;
#901 = VECTOR ( 'NONE', #542, 1000.000000000000000 ) ;
#902 = CARTESIAN_POINT ( 'NONE',  ( 40.00000000000000000, -1.690968657308585588, 3.625000000000000000 ) ) ;
#903 = ORIENTED_EDGE ( 'NONE', *, *, #665, .F. ) ;
#904 = VECTOR ( 'NONE', #519, 1000.000000000000000 ) ;
#905 = LINE ( 'NONE', #80, #76 ) ;
#906 = ORIENTED_EDGE ( 'NONE', *, *, #255, .T. ) ;
#907 = DIRECTION ( 'NONE',  ( 0.000000000000000000, 0.000000000000000000, 1.000000000000000000 ) ) ;
#908 = ORIENTED_EDGE ( 'NONE', *, *, #217, .F. ) ;
#909 = UNCERTAINTY_MEASURE_WITH_UNIT (LENGTH_MEASURE( 1.000000000000000082E-05 ), #111, 'distance_accuracy_value', 'NONE');
#910 = EDGE_CURVE ( 'NONE', #781, #313, #949, .T. ) ;
#911 = CARTESIAN_POINT ( 'NONE',  ( 39.00000000000000000, 21.00000000000000000, -5.000000000000001776 ) ) ;
#912 = DIRECTION ( 'NONE',  ( 1.000000000000000000, 8.673617379884026597E-16, -0.000000000000000000 ) ) ;
#913 = FACE_BOUND ( 'NONE', #176, .T. ) ;
#914 = VERTEX_POINT ( 'NONE', #48 ) ;
#915 = AXIS2_PLACEMENT_3D ( 'NONE', #299, #680, #817 ) ;
#916 = DIRECTION ( 'NONE',  ( -1.000000000000000000, -0.000000000000000000, -0.000000000000000000 ) ) ;
#917 = LINE ( 'NONE', #843, #114 ) ;
#918 = SURFACE_STYLE_USAGE ( .BOTH. , #628 ) ;
#919 = ORIENTED_EDGE ( 'NONE', *, *, #172, .F. ) ;
#920 = CARTESIAN_POINT ( 'NONE',  ( 1.000000000000000888, -3.041889066001564501, 5.999999999999999112 ) ) ;
#921 = DIRECTION ( 'NONE',  ( 1.000000000000000000, 3.771137991253928573E-17, 0.000000000000000000 ) ) ;
#922 = ORIENTED_EDGE ( 'NONE', *, *, #282, .F. ) ;
#923 = CARTESIAN_POINT ( 'NONE',  ( 0.000000000000000000, -1.690968657308585588, -3.625000000000000000 ) ) ;
#924 = DIRECTION ( 'NONE',  ( -1.000000000000000000, 0.000000000000000000, 0.000000000000000000 ) ) ;
#925 = ORIENTED_EDGE ( 'NONE', *, *, #180, .F. ) ;
#926 = CIRCLE ( 'NONE', #765, 1.000000000000000888 ) ;
#927 = AXIS2_PLACEMENT_3D ( 'NONE', #223, #290, #285 ) ;
#928 = EDGE_CURVE ( 'NONE', #244, #239, #195, .T. ) ;
#929 = CIRCLE ( 'NONE', #507, 1.000000000000000888 ) ;
#930 = CARTESIAN_POINT ( 'NONE',  ( 8.499999999999998224, 19.12500000000000355, -49.08131845707603702 ) ) ;
#931 = CARTESIAN_POINT ( 'NONE',  ( 1.000000000000000000, 21.00000000000000000, -5.000000000000001776 ) ) ;
#932 = ORIENTED_EDGE ( 'NONE', *, *, #660, .T. ) ;
#933 = AXIS2_PLACEMENT_3D ( 'NONE', #458, #304, #442 ) ;
#934 = CARTESIAN_POINT ( 'NONE',  ( 8.500000000000000000, 7.125000000000001776, 5.999999999999999112 ) ) ;
#935 = ORIENTED_EDGE ( 'NONE', *, *, #704, .F. ) ;
#936 = LINE ( 'NONE', #943, #276 ) ;
#937 = EDGE_CURVE ( 'NONE', #395, #206, #936, .T. ) ;
#938 = SPHERICAL_SURFACE ( 'NONE', #702, 1.000000000000000000 ) ;
#939 = ORIENTED_EDGE ( 'NONE', *, *, #234, .T. ) ;
#940 = EDGE_CURVE ( 'NONE', #422, #858, #583, .T. ) ;
#941 = DIRECTION ( 'NONE',  ( -0.000000000000000000, -1.000000000000000000, -0.000000000000000000 ) ) ;
#942 = CIRCLE ( 'NONE', #445, 1.000000000000000000 ) ;
#943 = CARTESIAN_POINT ( 'NONE',  ( 8.500000000000000000, 7.125000000000006217, -5.999999999999998224 ) ) ;
#944 = AXIS2_PLACEMENT_3D ( 'NONE', #498, #737, #567 ) ;
#945 = DIRECTION ( 'NONE',  ( -1.000000000000000000, 0.000000000000000000, 0.000000000000000000 ) ) ;
#946 = ORIENTED_EDGE ( 'NONE', *, *, #79, .T. ) ;
#947 = PLANE ( 'NONE',  #170 ) ;
#948 = VECTOR ( 'NONE', #328, 1000.000000000000000 ) ;
#949 = LINE ( 'NONE', #877, #45 ) ;
#950 = CARTESIAN_POINT ( 'NONE',  ( 1.000000000000000888, -3.041889066001564501, -5.999999999999999112 ) ) ;
#951 = VERTEX_POINT ( 'NONE', #56 ) ;
#952 = CARTESIAN_POINT ( 'NONE',  ( 39.00000000000000000, 22.00000000000000355, 6.000000000000001776 ) ) ;
#953 = EDGE_LOOP ( 'NONE', ( #679, #530, #233, #696 ) ) ;
#954 = CARTESIAN_POINT ( 'NONE',  ( 8.499999999999998224, 17.00000000000000000, -49.08131845707603702 ) ) ;
#955 = CARTESIAN_POINT ( 'NONE',  ( 39.00000000000000000, -3.041889066001564501, 5.999999999999999112 ) ) ;
#956 = ORIENTED_EDGE ( 'NONE', *, *, #354, .F. ) ;
#957 = LINE ( 'NONE', #880, #636 ) ;
#958 = EDGE_CURVE ( 'NONE', #422, #633, #645, .T. ) ;
#959 = CARTESIAN_POINT ( 'NONE',  ( 8.499999999999998224, 19.12500000000000355, 5.999999999999999112 ) ) ;
#960 = EDGE_LOOP ( 'NONE', ( #134, #94, #946, #752, #840, #663 ) ) ;
#961 = CIRCLE ( 'NONE', #589, 1.000000000000000000 ) ;
#962 = DIRECTION ( 'NONE',  ( 0.000000000000000000, 0.000000000000000000, -1.000000000000000000 ) ) ;
#963 = EDGE_CURVE ( 'NONE', #4, #183, #561, .T. ) ;
ENDSEC;
END-ISO-10303-21;
